<?xml version="1.0" encoding="UTF-8" standalone="no"?>
<svg
   width="460.8pt"
   height="345.6pt"
   viewBox="0 0 460.8 345.6"
   version="1.1"
   id="svg136"
   sodipodi:docname="Cs137.svg"
   inkscape:export-filename="Cs137.pdf"
   inkscape:export-xdpi="96"
   inkscape:export-ydpi="96"
   inkscape:version="1.3.1 (91b66b0, 2023-11-16)"
   xmlns:inkscape="http://www.inkscape.org/namespaces/inkscape"
   xmlns:sodipodi="http://sodipodi.sourceforge.net/DTD/sodipodi-0.dtd"
   xmlns:xlink="http://www.w3.org/1999/xlink"
   xmlns="http://www.w3.org/2000/svg"
   xmlns:svg="http://www.w3.org/2000/svg"
   xmlns:rdf="http://www.w3.org/1999/02/22-rdf-syntax-ns#"
   xmlns:cc="http://creativecommons.org/ns#"
   xmlns:dc="http://purl.org/dc/elements/1.1/">
  <sodipodi:namedview
     id="namedview136"
     pagecolor="#ffffff"
     bordercolor="#000000"
     borderopacity="0.25"
     inkscape:showpageshadow="2"
     inkscape:pageopacity="0.0"
     inkscape:pagecheckerboard="0"
     inkscape:deskcolor="#d1d1d1"
     inkscape:document-units="pt"
     inkscape:zoom="0.89022844"
     inkscape:cx="284.19672"
     inkscape:cy="212.86671"
     inkscape:window-width="1440"
     inkscape:window-height="786"
     inkscape:window-x="0"
     inkscape:window-y="25"
     inkscape:window-maximized="0"
     inkscape:current-layer="svg136" />
  <metadata
     id="metadata1">
    <rdf:RDF>
      <cc:Work>
        <dc:type
           rdf:resource="http://purl.org/dc/dcmitype/StillImage" />
        <dc:date>2024-05-17T17:36:11.270660</dc:date>
        <dc:format>image/svg+xml</dc:format>
        <dc:creator>
          <cc:Agent>
            <dc:title>Matplotlib v3.7.2, https://matplotlib.org/</dc:title>
          </cc:Agent>
        </dc:creator>
      </cc:Work>
    </rdf:RDF>
  </metadata>
  <defs
     id="defs1">
    <inkscape:path-effect
       effect="spiro"
       id="path-effect141"
       is_visible="true"
       lpeversion="1" />
    <inkscape:path-effect
       effect="spiro"
       id="path-effect140"
       is_visible="true"
       lpeversion="1" />
    <marker
       style="overflow:visible"
       id="ArrowWideRounded"
       refX="0"
       refY="0"
       orient="auto-start-reverse"
       inkscape:stockid="Wide, rounded arrow"
       markerWidth="1"
       markerHeight="1"
       viewBox="0 0 1 1"
       inkscape:isstock="true"
       inkscape:collect="always"
       preserveAspectRatio="xMidYMid">
      <path
         style="fill:none;stroke:context-stroke;stroke-width:1;stroke-linecap:round"
         d="M 3,-3 0,0 3,3"
         transform="rotate(180,0.125,0)"
         sodipodi:nodetypes="ccc"
         id="path138" />
    </marker>
    <style
       type="text/css"
       id="style1">*{stroke-linejoin: round; stroke-linecap: butt}</style>
  </defs>
  <defs
     id="defs136">
    <clipPath
       id="p8184bedd5b">
      <rect
         x="57.6"
         y="41.472"
         width="357.12"
         height="266.112"
         id="rect136" />
    </clipPath>
  </defs>
  <g
     id="patch_2"
     inkscape:export-filename="./Cs137.pdf"
     inkscape:export-xdpi="96"
     inkscape:export-ydpi="96"
     transform="translate(14.25)">
    <path
       d="M 57.6,307.584 H 414.72 V 41.472 H 57.6 Z"
       style="fill:#ffffff"
       id="path2" />
  </g>
  <g
     id="matplotlib.axis_1"
     transform="translate(14.25)">
    <g
       id="xtick_1">
      <g
         id="line2d_1">
        <defs
           id="defs2">
          <path
             id="m96acb82a2c"
             d="M 0,0 V 3.5"
             style="stroke:#000000;stroke-width:0.8" />
        </defs>
        <g
           id="g2">
          <use
             xlink:href="#m96acb82a2c"
             x="57.599998"
             y="307.58401"
             style="stroke:#000000;stroke-width:0.8"
             id="use2" />
        </g>
      </g>
      <g
         id="text_1">
        <!-- 0.0 -->
        <g
           transform="matrix(0.12,0,0,-0.12,48.058125,323.70213)"
           id="g5">
          <defs
             id="defs3">
            <path
               id="DejaVuSans-30"
               d="m 2034,4250 q -487,0 -733,-480 -245,-479 -245,-1442 0,-959 245,-1439 246,-480 733,-480 491,0 736,480 246,480 246,1439 0,963 -246,1442 -245,480 -736,480 z m 0,500 q 785,0 1199,-621 414,-620 414,-1801 0,-1178 -414,-1799 -414,-620 -1199,-620 -784,0 -1198,620 -414,621 -414,1799 0,1181 414,1801 414,621 1198,621 z"
               transform="scale(0.015625)" />
            <path
               id="DejaVuSans-2e"
               d="m 684,794 h 660 V 0 H 684 Z"
               transform="scale(0.015625)" />
          </defs>
          <use
             xlink:href="#DejaVuSans-30"
             id="use3" />
          <use
             xlink:href="#DejaVuSans-2e"
             x="63.623047"
             id="use4" />
          <use
             xlink:href="#DejaVuSans-30"
             x="95.410156"
             id="use5" />
        </g>
      </g>
    </g>
    <g
       id="xtick_2">
      <g
         id="line2d_2">
        <g
           id="g6">
          <use
             xlink:href="#m96acb82a2c"
             x="102.24"
             y="307.58401"
             style="stroke:#000000;stroke-width:0.8"
             id="use6" />
        </g>
      </g>
      <g
         id="text_2">
        <!-- 0.1 -->
        <g
           transform="matrix(0.12,0,0,-0.12,92.698125,323.70213)"
           id="g9">
          <defs
             id="defs6">
            <path
               id="DejaVuSans-31"
               d="M 794,531 H 1825 V 4091 L 703,3866 v 575 l 1116,225 h 631 V 531 H 3481 V 0 H 794 Z"
               transform="scale(0.015625)" />
          </defs>
          <use
             xlink:href="#DejaVuSans-30"
             id="use7" />
          <use
             xlink:href="#DejaVuSans-2e"
             x="63.623047"
             id="use8" />
          <use
             xlink:href="#DejaVuSans-31"
             x="95.410156"
             id="use9" />
        </g>
      </g>
    </g>
    <g
       id="xtick_3">
      <g
         id="line2d_3">
        <g
           id="g10">
          <use
             xlink:href="#m96acb82a2c"
             x="146.88"
             y="307.58401"
             style="stroke:#000000;stroke-width:0.8"
             id="use10" />
        </g>
      </g>
      <g
         id="text_3">
        <!-- 0.2 -->
        <g
           transform="matrix(0.12,0,0,-0.12,137.33812,323.70213)"
           id="g13">
          <defs
             id="defs10">
            <path
               id="DejaVuSans-32"
               d="M 1228,531 H 3431 V 0 H 469 v 531 q 359,372 979,998 621,627 780,809 303,340 423,576 121,236 121,464 0,372 -261,606 -261,235 -680,235 -297,0 -627,-103 -329,-103 -704,-313 v 638 q 381,153 712,231 332,78 607,78 725,0 1156,-363 431,-362 431,-968 0,-288 -108,-546 -107,-257 -392,-607 -78,-91 -497,-524 Q 1991,1309 1228,531 Z"
               transform="scale(0.015625)" />
          </defs>
          <use
             xlink:href="#DejaVuSans-30"
             id="use11" />
          <use
             xlink:href="#DejaVuSans-2e"
             x="63.623047"
             id="use12" />
          <use
             xlink:href="#DejaVuSans-32"
             x="95.410156"
             id="use13" />
        </g>
      </g>
    </g>
    <g
       id="xtick_4">
      <g
         id="line2d_4">
        <g
           id="g14">
          <use
             xlink:href="#m96acb82a2c"
             x="191.52"
             y="307.58401"
             style="stroke:#000000;stroke-width:0.8"
             id="use14" />
        </g>
      </g>
      <g
         id="text_4">
        <!-- 0.3 -->
        <g
           transform="matrix(0.12,0,0,-0.12,181.97812,323.70213)"
           id="g17">
          <defs
             id="defs14">
            <path
               id="DejaVuSans-33"
               d="m 2597,2516 q 453,-97 707,-404 255,-306 255,-756 0,-690 -475,-1069 -475,-378 -1350,-378 -293,0 -604,58 -311,58 -642,174 v 609 q 262,-153 574,-231 313,-78 654,-78 593,0 904,234 311,234 311,681 0,413 -289,645 -289,233 -804,233 h -544 v 519 h 569 q 465,0 712,186 247,186 247,536 0,359 -255,551 -254,193 -729,193 -260,0 -557,-57 -297,-56 -653,-174 v 562 q 360,100 674,150 314,50 592,50 719,0 1137,-327 419,-326 419,-882 0,-388 -222,-655 -222,-267 -631,-370 z"
               transform="scale(0.015625)" />
          </defs>
          <use
             xlink:href="#DejaVuSans-30"
             id="use15" />
          <use
             xlink:href="#DejaVuSans-2e"
             x="63.623047"
             id="use16" />
          <use
             xlink:href="#DejaVuSans-33"
             x="95.410156"
             id="use17" />
        </g>
      </g>
    </g>
    <g
       id="xtick_5">
      <g
         id="line2d_5">
        <g
           id="g18">
          <use
             xlink:href="#m96acb82a2c"
             x="236.16"
             y="307.58401"
             style="stroke:#000000;stroke-width:0.8"
             id="use18" />
        </g>
      </g>
      <g
         id="text_5">
        <!-- 0.4 -->
        <g
           transform="matrix(0.12,0,0,-0.12,226.61812,323.70213)"
           id="g21">
          <defs
             id="defs18">
            <path
               id="DejaVuSans-34"
               d="M 2419,4116 825,1625 h 1594 z m -166,550 h 794 V 1625 h 666 V 1100 H 3047 V 0 H 2419 V 1100 H 313 v 609 z"
               transform="scale(0.015625)" />
          </defs>
          <use
             xlink:href="#DejaVuSans-30"
             id="use19" />
          <use
             xlink:href="#DejaVuSans-2e"
             x="63.623047"
             id="use20" />
          <use
             xlink:href="#DejaVuSans-34"
             x="95.410156"
             id="use21" />
        </g>
      </g>
    </g>
    <g
       id="xtick_6">
      <g
         id="line2d_6">
        <g
           id="g22">
          <use
             xlink:href="#m96acb82a2c"
             x="280.79999"
             y="307.58401"
             style="stroke:#000000;stroke-width:0.8"
             id="use22" />
        </g>
      </g>
      <g
         id="text_6">
        <!-- 0.5 -->
        <g
           transform="matrix(0.12,0,0,-0.12,271.25812,323.70213)"
           id="g25">
          <defs
             id="defs22">
            <path
               id="DejaVuSans-35"
               d="M 691,4666 H 3169 V 4134 H 1269 V 2991 q 137,47 274,70 138,23 276,23 781,0 1237,-428 457,-428 457,-1159 Q 3513,744 3044,326 2575,-91 1722,-91 1428,-91 1123,-41 819,9 494,109 v 635 q 281,-153 581,-228 300,-75 634,-75 541,0 856,284 316,284 316,772 0,487 -316,771 -315,285 -856,285 -253,0 -505,-56 -251,-56 -513,-175 z"
               transform="scale(0.015625)" />
          </defs>
          <use
             xlink:href="#DejaVuSans-30"
             id="use23" />
          <use
             xlink:href="#DejaVuSans-2e"
             x="63.623047"
             id="use24" />
          <use
             xlink:href="#DejaVuSans-35"
             x="95.410156"
             id="use25" />
        </g>
      </g>
    </g>
    <g
       id="xtick_7">
      <g
         id="line2d_7">
        <g
           id="g26">
          <use
             xlink:href="#m96acb82a2c"
             x="325.44"
             y="307.58401"
             style="stroke:#000000;stroke-width:0.8"
             id="use26" />
        </g>
      </g>
      <g
         id="text_7">
        <!-- 0.6 -->
        <g
           transform="matrix(0.12,0,0,-0.12,315.89812,323.70213)"
           id="g29">
          <defs
             id="defs26">
            <path
               id="DejaVuSans-36"
               d="m 2113,2584 q -425,0 -674,-291 -248,-290 -248,-796 0,-503 248,-796 249,-292 674,-292 425,0 673,292 248,293 248,796 0,506 -248,796 -248,291 -673,291 z m 1253,1979 v -575 q -238,112 -480,171 -242,60 -480,60 -625,0 -955,-422 -329,-422 -376,-1275 184,272 462,417 279,145 613,145 703,0 1111,-427 408,-426 408,-1160 0,-719 -425,-1154 -425,-434 -1131,-434 -810,0 -1238,620 -428,621 -428,1799 0,1106 525,1764 525,658 1409,658 238,0 480,-47 242,-47 505,-140 z"
               transform="scale(0.015625)" />
          </defs>
          <use
             xlink:href="#DejaVuSans-30"
             id="use27" />
          <use
             xlink:href="#DejaVuSans-2e"
             x="63.623047"
             id="use28" />
          <use
             xlink:href="#DejaVuSans-36"
             x="95.410156"
             id="use29" />
        </g>
      </g>
    </g>
    <g
       id="xtick_8">
      <g
         id="line2d_8">
        <g
           id="g30">
          <use
             xlink:href="#m96acb82a2c"
             x="370.07999"
             y="307.58401"
             style="stroke:#000000;stroke-width:0.8"
             id="use30" />
        </g>
      </g>
      <g
         id="text_8">
        <!-- 0.7 -->
        <g
           transform="matrix(0.12,0,0,-0.12,360.53812,323.70213)"
           id="g33">
          <defs
             id="defs30">
            <path
               id="DejaVuSans-37"
               d="M 525,4666 H 3525 V 4397 L 1831,0 H 1172 L 2766,4134 H 525 Z"
               transform="scale(0.015625)" />
          </defs>
          <use
             xlink:href="#DejaVuSans-30"
             id="use31" />
          <use
             xlink:href="#DejaVuSans-2e"
             x="63.623047"
             id="use32" />
          <use
             xlink:href="#DejaVuSans-37"
             x="95.410156"
             id="use33" />
        </g>
      </g>
    </g>
    <g
       id="xtick_9">
      <g
         id="line2d_9">
        <g
           id="g34">
          <use
             xlink:href="#m96acb82a2c"
             x="414.72"
             y="307.58401"
             style="stroke:#000000;stroke-width:0.8"
             id="use34" />
        </g>
      </g>
      <g
         id="text_9">
        <!-- 0.8 -->
        <g
           transform="matrix(0.12,0,0,-0.12,405.17813,323.70213)"
           id="g37">
          <defs
             id="defs34">
            <path
               id="DejaVuSans-38"
               d="m 2034,2216 q -450,0 -708,-241 -257,-241 -257,-662 0,-422 257,-663 258,-241 708,-241 450,0 709,242 260,243 260,662 0,421 -258,662 -257,241 -711,241 z m -631,268 q -406,100 -633,378 -226,279 -226,679 0,559 398,884 399,325 1092,325 697,0 1094,-325 397,-325 397,-884 0,-400 -227,-679 -226,-278 -629,-378 456,-106 710,-416 255,-309 255,-755 Q 3634,634 3220,271 2806,-91 2034,-91 1263,-91 848,271 434,634 434,1313 q 0,446 256,755 257,310 713,416 z m -231,997 q 0,-362 226,-565 227,-203 636,-203 407,0 636,203 230,203 230,565 0,363 -230,566 -229,203 -636,203 -409,0 -636,-203 -226,-203 -226,-566 z"
               transform="scale(0.015625)" />
          </defs>
          <use
             xlink:href="#DejaVuSans-30"
             id="use35" />
          <use
             xlink:href="#DejaVuSans-2e"
             x="63.623047"
             id="use36" />
          <use
             xlink:href="#DejaVuSans-38"
             x="95.410156"
             id="use37" />
        </g>
      </g>
    </g>
    <g
       id="text_10">
      <!-- Energy, MeV -->
      <g
         transform="matrix(0.12,0,0,-0.12,198.36562,339.31587)"
         id="g48">
        <defs
           id="defs37">
          <path
             id="DejaVuSans-45"
             d="M 628,4666 H 3578 V 4134 H 1259 V 2753 H 3481 V 2222 H 1259 V 531 H 3634 V 0 H 628 Z"
             transform="scale(0.015625)" />
          <path
             id="DejaVuSans-6e"
             d="M 3513,2113 V 0 h -575 v 2094 q 0,497 -194,743 -194,247 -581,247 -466,0 -735,-297 -269,-296 -269,-809 V 0 H 581 v 3500 h 578 v -544 q 207,316 486,472 280,156 646,156 603,0 912,-373 310,-373 310,-1098 z"
             transform="scale(0.015625)" />
          <path
             id="DejaVuSans-65"
             d="M 3597,1894 V 1613 H 953 q 38,-594 358,-905 320,-311 892,-311 331,0 642,81 311,81 618,244 V 178 Q 3153,47 2828,-22 2503,-91 2169,-91 1331,-91 842,396 353,884 353,1716 q 0,859 464,1363 464,505 1252,505 706,0 1117,-455 411,-454 411,-1235 z m -575,169 q -6,471 -264,752 -258,282 -683,282 -481,0 -770,-272 -289,-272 -333,-766 z"
             transform="scale(0.015625)" />
          <path
             id="DejaVuSans-72"
             d="m 2631,2963 q -97,56 -211,82 -114,27 -251,27 -488,0 -749,-317 -261,-317 -261,-911 V 0 H 581 v 3500 h 578 v -544 q 182,319 472,473 291,155 707,155 59,0 131,-8 72,-7 159,-23 z"
             transform="scale(0.015625)" />
          <path
             id="DejaVuSans-67"
             d="m 2906,1791 q 0,625 -258,968 -257,344 -723,344 -462,0 -720,-344 -258,-343 -258,-968 0,-622 258,-966 258,-344 720,-344 466,0 723,344 258,344 258,966 z M 3481,434 q 0,-893 -397,-1329 -396,-436 -1215,-436 -303,0 -572,45 -269,45 -522,139 v 559 q 253,-137 500,-202 247,-66 503,-66 566,0 847,295 281,295 281,892 V 616 Q 2728,306 2450,153 2172,0 1784,0 1141,0 747,490 353,981 353,1791 q 0,812 394,1302 394,491 1037,491 388,0 666,-153 278,-153 456,-462 v 531 h 575 z"
             transform="scale(0.015625)" />
          <path
             id="DejaVuSans-79"
             d="m 2059,-325 q -243,-625 -475,-815 -231,-191 -618,-191 H 506 v 481 h 338 q 237,0 368,113 132,112 291,531 L 1606,56 191,3500 H 800 L 1894,763 2988,3500 h 609 z"
             transform="scale(0.015625)" />
          <path
             id="DejaVuSans-2c"
             d="m 750,794 h 659 V 256 L 897,-744 H 494 L 750,256 Z"
             transform="scale(0.015625)" />
          <path
             id="DejaVuSans-20"
             transform="scale(0.015625)"
             d="" />
          <path
             id="DejaVuSans-4d"
             d="m 628,4666 h 941 L 2759,1491 3956,4666 h 941 V 0 H 4281 V 4097 L 3078,897 H 2444 L 1241,4097 V 0 H 628 Z"
             transform="scale(0.015625)" />
          <path
             id="DejaVuSans-56"
             d="M 1831,0 50,4666 H 709 L 2188,738 3669,4666 h 656 L 2547,0 Z"
             transform="scale(0.015625)" />
        </defs>
        <use
           xlink:href="#DejaVuSans-45"
           id="use38" />
        <use
           xlink:href="#DejaVuSans-6e"
           x="63.183594"
           id="use39" />
        <use
           xlink:href="#DejaVuSans-65"
           x="126.5625"
           id="use40" />
        <use
           xlink:href="#DejaVuSans-72"
           x="188.08594"
           id="use41" />
        <use
           xlink:href="#DejaVuSans-67"
           x="227.44922"
           id="use42" />
        <use
           xlink:href="#DejaVuSans-79"
           x="290.92578"
           id="use43" />
        <use
           xlink:href="#DejaVuSans-2c"
           x="350.10547"
           id="use44" />
        <use
           xlink:href="#DejaVuSans-20"
           x="381.89258"
           id="use45" />
        <use
           xlink:href="#DejaVuSans-4d"
           x="413.67969"
           id="use46" />
        <use
           xlink:href="#DejaVuSans-65"
           x="499.95898"
           id="use47" />
        <use
           xlink:href="#DejaVuSans-56"
           x="561.48242"
           id="use48" />
      </g>
    </g>
  </g>
  <g
     id="matplotlib.axis_2"
     transform="translate(14.25)">
    <g
       id="ytick_1">
      <g
         id="line2d_10">
        <defs
           id="defs48">
          <path
             id="m5c6dce65c7"
             d="M 0,0 H -3.5"
             style="stroke:#000000;stroke-width:0.8" />
        </defs>
        <g
           id="g49">
          <use
             xlink:href="#m5c6dce65c7"
             x="57.599998"
             y="295.48801"
             style="stroke:#000000;stroke-width:0.8"
             id="use49" />
        </g>
      </g>
      <g
         id="text_11">
        <!-- 0 -->
        <g
           transform="matrix(0.12,0,0,-0.12,42.965,300.04706)"
           id="g50">
          <use
             xlink:href="#DejaVuSans-30"
             id="use50" />
        </g>
      </g>
    </g>
    <g
       id="ytick_2">
      <g
         id="line2d_11">
        <g
           id="g51">
          <use
             xlink:href="#m5c6dce65c7"
             x="57.599998"
             y="247.2184"
             style="stroke:#000000;stroke-width:0.8"
             id="use51" />
        </g>
      </g>
      <g
         id="text_12">
        <!-- 20000 -->
        <g
           transform="matrix(0.12,0,0,-0.12,12.425,251.77746)"
           id="g56">
          <use
             xlink:href="#DejaVuSans-32"
             id="use52" />
          <use
             xlink:href="#DejaVuSans-30"
             x="63.623047"
             id="use53" />
          <use
             xlink:href="#DejaVuSans-30"
             x="127.24609"
             id="use54" />
          <use
             xlink:href="#DejaVuSans-30"
             x="190.86914"
             id="use55" />
          <use
             xlink:href="#DejaVuSans-30"
             x="254.49219"
             id="use56" />
        </g>
      </g>
    </g>
    <g
       id="ytick_3">
      <g
         id="line2d_12">
        <g
           id="g57">
          <use
             xlink:href="#m5c6dce65c7"
             x="57.599998"
             y="198.94879"
             style="stroke:#000000;stroke-width:0.8"
             id="use57" />
        </g>
      </g>
      <g
         id="text_13">
        <!-- 40000 -->
        <g
           transform="matrix(0.12,0,0,-0.12,12.425,203.50786)"
           id="g62">
          <use
             xlink:href="#DejaVuSans-34"
             id="use58" />
          <use
             xlink:href="#DejaVuSans-30"
             x="63.623047"
             id="use59" />
          <use
             xlink:href="#DejaVuSans-30"
             x="127.24609"
             id="use60" />
          <use
             xlink:href="#DejaVuSans-30"
             x="190.86914"
             id="use61" />
          <use
             xlink:href="#DejaVuSans-30"
             x="254.49219"
             id="use62" />
        </g>
      </g>
    </g>
    <g
       id="ytick_4">
      <g
         id="line2d_13">
        <g
           id="g63">
          <use
             xlink:href="#m5c6dce65c7"
             x="57.599998"
             y="150.6792"
             style="stroke:#000000;stroke-width:0.8"
             id="use63" />
        </g>
      </g>
      <g
         id="text_14">
        <!-- 60000 -->
        <g
           transform="matrix(0.12,0,0,-0.12,12.425,155.23826)"
           id="g68">
          <use
             xlink:href="#DejaVuSans-36"
             id="use64" />
          <use
             xlink:href="#DejaVuSans-30"
             x="63.623047"
             id="use65" />
          <use
             xlink:href="#DejaVuSans-30"
             x="127.24609"
             id="use66" />
          <use
             xlink:href="#DejaVuSans-30"
             x="190.86914"
             id="use67" />
          <use
             xlink:href="#DejaVuSans-30"
             x="254.49219"
             id="use68" />
        </g>
      </g>
    </g>
    <g
       id="ytick_5">
      <g
         id="line2d_14">
        <g
           id="g69">
          <use
             xlink:href="#m5c6dce65c7"
             x="57.599998"
             y="102.4096"
             style="stroke:#000000;stroke-width:0.8"
             id="use69" />
        </g>
      </g>
      <g
         id="text_15">
        <!-- 80000 -->
        <g
           transform="matrix(0.12,0,0,-0.12,12.425,106.96866)"
           id="g74">
          <use
             xlink:href="#DejaVuSans-38"
             id="use70" />
          <use
             xlink:href="#DejaVuSans-30"
             x="63.623047"
             id="use71" />
          <use
             xlink:href="#DejaVuSans-30"
             x="127.24609"
             id="use72" />
          <use
             xlink:href="#DejaVuSans-30"
             x="190.86914"
             id="use73" />
          <use
             xlink:href="#DejaVuSans-30"
             x="254.49219"
             id="use74" />
        </g>
      </g>
    </g>
    <g
       id="ytick_6">
      <g
         id="line2d_15">
        <g
           id="g75">
          <use
             xlink:href="#m5c6dce65c7"
             x="57.599998"
             y="54.139996"
             style="stroke:#000000;stroke-width:0.8"
             id="use75" />
        </g>
      </g>
      <g
         id="text_16">
        <!-- 100000 -->
        <g
           transform="matrix(0.12,0,0,-0.12,4.79,58.699057)"
           id="g81">
          <use
             xlink:href="#DejaVuSans-31"
             id="use76" />
          <use
             xlink:href="#DejaVuSans-30"
             x="63.623047"
             id="use77" />
          <use
             xlink:href="#DejaVuSans-30"
             x="127.24609"
             id="use78" />
          <use
             xlink:href="#DejaVuSans-30"
             x="190.86914"
             id="use79" />
          <use
             xlink:href="#DejaVuSans-30"
             x="254.49219"
             id="use80" />
          <use
             xlink:href="#DejaVuSans-30"
             x="318.11523"
             id="use81" />
        </g>
      </g>
    </g>
    <g
       id="text_17">
      <!-- Counts -->
      <g
         transform="matrix(0,-0.12,-0.12,0,-1.705625,195.47175)"
         id="g87">
        <defs
           id="defs81">
          <path
             id="DejaVuSans-43"
             d="m 4122,4306 v -665 q -319,297 -680,443 -361,147 -767,147 -800,0 -1225,-489 -425,-489 -425,-1414 0,-922 425,-1411 425,-489 1225,-489 406,0 767,147 361,147 680,444 V 359 Q 3791,134 3420,21 3050,-91 2638,-91 1578,-91 968,557 359,1206 359,2328 q 0,1125 609,1773 610,649 1670,649 418,0 788,-111 371,-111 696,-333 z"
             transform="scale(0.015625)" />
          <path
             id="DejaVuSans-6f"
             d="m 1959,3097 q -462,0 -731,-361 -269,-361 -269,-989 0,-628 267,-989 268,-361 733,-361 460,0 728,362 269,363 269,988 0,622 -269,986 -268,364 -728,364 z m 0,487 q 750,0 1178,-488 429,-487 429,-1349 Q 3566,888 3137,398 2709,-91 1959,-91 1206,-91 779,398 353,888 353,1747 q 0,862 426,1349 427,488 1180,488 z"
             transform="scale(0.015625)" />
          <path
             id="DejaVuSans-75"
             d="m 544,1381 v 2119 h 575 V 1403 q 0,-497 193,-746 194,-248 582,-248 465,0 735,297 271,297 271,810 v 1984 h 575 V 0 H 2900 V 538 Q 2691,219 2414,64 2138,-91 1772,-91 1169,-91 856,284 544,659 544,1381 Z m 1447,2203 z"
             transform="scale(0.015625)" />
          <path
             id="DejaVuSans-74"
             d="M 1172,4494 V 3500 H 2356 V 3053 H 1172 V 1153 q 0,-428 117,-550 117,-122 477,-122 h 590 V 0 H 1766 Q 1100,0 847,248 594,497 594,1153 V 3053 H 172 v 447 h 422 v 994 z"
             transform="scale(0.015625)" />
          <path
             id="DejaVuSans-73"
             d="m 2834,3397 v -544 q -243,125 -506,187 -262,63 -544,63 -428,0 -642,-131 -214,-131 -214,-394 0,-200 153,-314 153,-114 616,-217 l 197,-44 q 612,-131 870,-370 258,-239 258,-667 0,-488 -386,-773 Q 2250,-91 1575,-91 1294,-91 989,-36 684,19 347,128 v 594 q 319,-166 628,-249 309,-82 613,-82 406,0 624,139 219,139 219,392 0,234 -158,359 -157,125 -692,241 l -200,47 q -534,112 -772,345 -237,233 -237,639 0,494 350,762 350,269 994,269 318,0 599,-47 282,-46 519,-140 z"
             transform="scale(0.015625)" />
        </defs>
        <use
           xlink:href="#DejaVuSans-43"
           id="use82" />
        <use
           xlink:href="#DejaVuSans-6f"
           x="69.824219"
           id="use83" />
        <use
           xlink:href="#DejaVuSans-75"
           x="131.00586"
           id="use84" />
        <use
           xlink:href="#DejaVuSans-6e"
           x="194.38477"
           id="use85" />
        <use
           xlink:href="#DejaVuSans-74"
           x="257.76367"
           id="use86" />
        <use
           xlink:href="#DejaVuSans-73"
           x="296.97266"
           id="use87" />
      </g>
    </g>
  </g>
  <g
     id="line2d_16"
     transform="translate(14.25)">
    <path
       d="m 57.529656,295.488 5.413246,-0.0772 v -0.22687 h 0.166561 v -1.94044 h 0.166562 v -6.55018 h 0.166561 v -4.93557 h 0.166562 v -1.17054 h 0.166561 v -0.57923 h 0.166562 v -0.93402 h 0.166561 v -0.61302 h 0.166561 v 0.20756 l 0.333123,-0.0579 v 0.57441 h 0.166562 v 0.66612 h 0.166561 v 0.33789 H 65.1082 v 0.4658 h 0.166562 v 0.13033 h 0.166561 v 0.3403 h 0.166562 v -0.22445 l 0.333123,-0.0845 v -0.3934 h 0.166561 v -0.13516 h 0.166561 v -0.21238 h 0.166562 v -0.45374 h 0.166561 v -0.82782 h 0.166562 v -0.90023 h 0.166561 v -0.6444 h 0.166561 v -1.57359 h 0.166562 v -2.46416 h 0.166561 v -3.87122 h 0.166562 v -5.34103 h 0.166561 v -9.97009 h 0.166562 v -15.04805 h 0.166561 v -20.29254 h 0.166561 v -22.65534 h 0.166562 V 176.3128 h 0.166561 v -11.41818 h 0.166562 v 1.79322 h 0.166561 v 13.51549 h 0.166561 v 20.82592 h 0.166562 v 21.28448 h 0.166561 v 19.45023 h 0.166562 v 12.83006 h 0.166561 v 5.30966 h 0.166561 v 1.70874 h 0.166562 v -2.55346 h 0.166561 v -4.30082 h 0.166562 v -3.87846 h 0.166561 v -2.12145 h 0.166562 v 1.9332 h 0.166561 v 3.96052 h 0.166561 v 5.11657 h 0.166562 v 6.17127 h 0.166561 v 5.15278 h 0.166562 v 3.98949 h 0.166561 v 2.51484 h 0.166561 v 1.81494 h 0.166562 v 1.26225 h 0.166561 v 0.53096 h 0.166562 v 0.56235 l 0.333123,-0.0193 v 0.36443 l 0.832807,0.0121 v -0.14481 h 0.166561 v 0.30893 h 0.166561 v 0.27513 h 0.166562 v -0.50441 h 0.166561 v 0.21962 h 0.166562 v 0.30169 l 0.333123,-0.10861 v -0.13998 l 0.832807,0.07 v -0.21721 h 0.166561 v 0.12067 h 0.166561 v -0.1255 h 0.166562 v 0.19067 l 0.999368,0.0796 v 0.1424 h 0.166562 v -0.15205 h 0.166561 v -0.12068 h 0.166562 v 0.18343 h 0.166561 v -0.37651 h 0.166561 v 0.43443 h 0.166562 v -0.37168 h 0.166561 v 0.12068 h 0.166562 v -0.11585 h 0.166561 v 0.12068 h 0.166561 v -0.17378 l 0.333123,-0.0603 v 0.1786 l 0.499685,-0.0603 v -0.17377 h 0.166561 v 0.22928 l 0.333123,-0.099 v -0.24859 l 0.333123,0.0265 v 0.16411 l 0.333122,-0.0893 v -0.0507 l 0.333123,0.11102 v -0.31375 h 0.166562 v 0.22445 l 0.499684,-0.10136 v -0.38375 h 0.166561 v 0.37892 l 0.499685,-0.099 v -0.22204 h 0.166561 v 0.41994 h 0.166561 v -0.13757 h 0.166562 v 0.1786 h 0.166561 v -0.65647 h 0.166562 v 0.38133 l 0.333122,0.0386 v -0.1617 h 0.166562 v 0.13515 h 0.166561 v -0.24859 h 0.166562 v 0.48753 h 0.166561 v -0.33306 l 0.333123,0.0314 v 0.39099 h 0.166561 v -0.94126 h 0.166562 v 0.44166 l 0.333123,-0.1086 v -0.17377 l 0.333122,0.0386 v -0.31858 l 0.333123,-0.0483 v -0.77231 h 0.166562 v -0.86644 H 86.2615 v -1.76184 h 0.166562 v -1.17054 h 0.166561 v -2.42072 h 0.166561 v -1.9332 h 0.166562 v -1.255 h 0.166561 v -1.4312 h 0.166562 v -1.78597 h 0.166561 v -1.44809 h 0.166561 v -1.08124 h 0.166562 v -0.7337 h 0.166561 v 0.56234 h 0.166562 v 2.08766 h 0.166561 v 2.37969 h 0.166561 v 2.95893 h 0.166562 v 3.74331 h 0.166561 v 2.04663 h 0.166562 v 1.09089 h 0.166561 v 1.08848 h 0.166562 v 1.0016 h 0.166561 v 0.39339 h 0.166561 v 0.15447 h 0.166562 v 0.53096 h 0.166561 v -0.47063 h 0.166562 v 0.11826 h 0.166561 v 0.31375 l 0.499684,0.0941 v -0.29203 l 0.333123,-0.07 v -0.13274 h 0.166562 v -0.31617 h 0.166561 v -0.63233 h 0.166561 v -1.14399 h 0.166562 v -0.84713 h 0.166561 v -1.40465 h 0.166562 v -0.93884 h 0.166561 v -0.9316 h 0.166561 v 0.19307 l 0.333123,-0.0772 v 1.15365 h 0.166562 v 0.95332 h 0.166561 v 0.25824 h 0.166562 v 1.04021 h 0.166561 v 0.34272 h 0.166561 v 0.33547 h 0.166562 v 0.5189 h 0.166561 v 0.37892 h 0.166562 v 0.91712 l 0.333122,0.07 v 0.4827 h 0.166562 v 0.53096 l 0.499684,-0.0483 v -0.24376 h 0.166561 v 0.49959 l 0.499685,-0.10619 v -0.07 h 0.166561 v 0.35719 h 0.166562 v -0.42477 h 0.166561 v -0.20273 l 0.333123,0.082 v 0.22204 l 0.832807,0.0362 v -0.18825 l 0.333123,-0.1062 v 0.29445 h 0.166561 v -0.18101 h 0.166562 v 0.21721 h 0.166561 v 0.37168 h 0.166561 v -0.48511 l 0.333123,-0.0941 v 0.31375 l 0.333123,0.0314 v -0.29927 l 0.666246,-0.0314 v 0.22928 l 0.832805,-0.0724 v 0.2872 h 0.16656 v -0.4296 l 0.49969,-0.0965 v 0.4296 l 0.66624,-0.10378 v -0.20273 l 0.49969,-0.007 v 0.17136 h 0.16656 v -0.27273 h 0.16656 v 0.40306 h 0.16656 v -0.19791 l 0.33312,0.0796 v -0.50441 h 0.16657 v 0.25824 h 0.16656 v 0.11343 l 0.33312,0.0531 v -0.28238 h 0.16656 v 0.3572 h 0.16656 v -0.11344 h 0.16656 v -0.13515 h 0.16657 v 0.17377 l 0.33312,-0.0169 v -0.30168 h 0.16656 v 0.18343 l 0.33312,0.01 v -0.20273 h 0.16656 v -0.14723 h 0.16657 v 0.33789 l 0.33312,-0.0724 v 0.18584 h 0.16656 v -0.24135 l 0.33312,-0.007 v -0.10861 h 0.16656 v -0.2679 h 0.16657 v 0.45132 l 0.49968,-0.0724 v -0.26548 h 0.16656 v 0.20273 h 0.16656 v -0.1786 h 0.16656 v -0.13274 l 0.33313,0.0821 v 0.19066 h 0.16656 v -0.20756 l 0.49968,0.0338 v -0.17618 h 0.16656 v 0.12309 h 0.16657 v 0.13515 h 0.16656 v 0.1424 h 0.16656 v -0.21963 l 0.33312,0.0676 v -0.2679 h 0.16656 v 0.14722 l 0.33312,0.0241 v 0.20032 l 0.33313,0.0314 v -0.15205 l 0.33312,-0.0941 v 0.24617 h 0.16656 v -0.22445 l 0.33312,-0.029 v -0.27031 h 0.16657 v 0.23652 l 0.33312,0.005 v 0.29204 h 0.16656 v -0.45615 h 0.16656 v 0.35719 h 0.16656 v -0.39098 l 0.49969,-0.0483 v 0.43443 l 0.33312,-0.11102 v -0.002 l 0.33312,-0.041 v -0.14722 l 0.33313,0.005 v 0.11343 h 0.16656 v -0.19066 l 0.33312,-0.0145 v 0.38615 h 0.16656 v -0.19066 h 0.16656 v -0.54304 h 0.16657 v 0.7506 h 0.16656 v -0.2679 l 0.33312,-0.0338 v -0.1786 h 0.16656 v 0.18826 h 0.16656 v -0.22446 l 0.33312,0.0676 v -0.24617 h 0.16657 v 0.47062 l 0.33312,-0.0845 v -0.13998 l 0.33312,0.07 v 0.16894 h 0.16656 v 0.12792 h 0.16657 v -0.33547 h 0.16656 v -0.3403 h 0.16656 v 0.37408 h 0.16656 v -0.13756 h 0.16656 v 0.15446 h 0.16656 v 0.11826 l 0.33312,0.0241 v -0.27755 l 0.33313,0.0145 v 0.18342 h 0.16656 V 281.917 l 0.33312,0.0772 v 0.10861 l 0.49969,-0.10137 v -0.24134 h 0.16656 v 0.21479 l 0.33312,-0.0627 v -0.0555 l 0.49968,-0.1062 v 0.40064 h 0.16657 v -0.46822 h 0.16656 v 0.27997 h 0.16656 v 0.12308 l 0.33312,0.005 v -0.1617 l 0.66625,0.0579 v -0.57923 h 0.16656 v 0.48993 h 0.16656 v 0.1255 h 0.16656 v 0.29445 h 0.16656 v -0.33065 h 0.16656 v -0.16894 h 0.16657 v -0.15446 h 0.16656 v 0.74576 h 0.16656 v -0.502 l 0.33312,0.0676 v 0.34996 h 0.16656 v -0.69026 h 0.16656 v 0.3403 l 0.33313,-0.0338 v -0.24376 h 0.16656 v 0.23652 l 0.49968,-0.0145 v 0.15204 l 0.33312,0.0217 v -0.4827 l 0.33313,-0.0193 v 0.20756 l 0.33312,0.0169 v -0.27997 h 0.16656 v 0.55752 h 0.16656 v -0.25342 h 0.16657 v -0.2679 h 0.16656 v -0.13032 h 0.16656 v 0.47787 h 0.16656 v -0.41271 h 0.16656 v 0.3403 h 0.16656 v -0.13274 h 0.16656 v 0.43443 h 0.16656 v -0.49718 h 0.16657 v 0.27031 h 0.16656 v -0.15929 h 0.16656 v -0.27514 h 0.16656 v 0.29445 l 0.33312,-0.0338 v -0.10378 l 0.49969,-0.10378 v 0.23652 h 0.16656 v -0.3041 h 0.16656 v 0.32099 l 0.49968,-0.10378 v -0.0652 h 0.16657 v -0.22445 h 0.16656 v 0.31134 h 0.16656 v -0.23411 h 0.16656 v -0.13998 h 0.16656 v 0.23652 h 0.16656 v -0.29686 l 0.33313,0.0386 v 0.17136 h 0.16656 v 0.50683 h 0.16656 v -0.49476 l 0.33312,-0.0193 v 0.27272 h 0.16656 v -0.31857 h 0.16656 v -0.13999 h 0.16657 v 0.40064 h 0.16656 v -0.22445 h 0.16656 v -0.30169 h 0.16656 v -0.49476 h 0.16656 v 0.91953 h 0.16656 v -0.42718 h 0.16656 v 0.1617 h 0.16657 v -0.14722 h 0.16656 v 0.19308 l 0.49968,-0.10378 v -0.40547 h 0.16656 v 0.58648 h 0.16656 v -0.59854 h 0.16657 v 0.1617 h 0.16656 v -0.31617 l 0.66624,-0.0386 v -0.11102 l 0.33313,-0.1062 v -0.32581 l 0.33312,0.0265 v -0.17859 h 0.16656 v -0.2317 h 0.16656 v -0.29203 h 0.16656 v -0.37892 h 0.16656 v 0.4103 h 0.16657 v -0.70474 h 0.16656 v 0.34754 l 0.33312,-0.0917 v -0.62268 l 0.49968,0.0603 v -0.42236 h 0.16657 v 0.34754 l 0.33312,-0.0893 v 0.23652 h 0.16656 v 0.20756 h 0.16656 v -0.25341 l 0.33312,-0.0121 v 0.14964 h 0.16657 v 0.30409 h 0.16656 v -0.53579 l 0.33312,0.0869 v 0.0845 l 0.49968,-0.0314 v 0.67819 h 0.16656 v -0.41512 h 0.16657 v -0.47545 h 0.16656 v 0.45373 h 0.16656 v -0.11826 h 0.16656 v -0.20515 h 0.16656 v 0.40064 l 0.49969,0.099 v -0.35478 l 0.33312,0.0579 v 0.41994 l 0.33312,-0.0652 v 0.21238 h 0.16656 v -0.13756 h 0.16656 v -0.35479 h 0.16657 v 0.43443 l 0.49968,0.0893 v -0.26066 h 0.16656 v 0.29445 h 0.16656 v -0.57924 h 0.16656 v 0.64923 l 1.3325,0.10137 v 0.35719 h 0.16656 v -0.12067 l 0.33312,-0.1062 v -0.20997 h 0.16656 v 0.51407 h 0.16656 v -0.50683 h 0.16656 v 0.64923 l 0.49969,-0.0724 v -0.34995 h 0.16656 v 0.1617 h 0.16656 v 0.24859 h 0.16656 v -0.14964 l 0.49969,0.0193 v 0.3572 h 0.16656 v 0.2148 h 0.16656 v -0.27997 h 0.16656 v -0.17135 h 0.16656 v 0.26306 h 0.16656 v 0.22205 h 0.16657 V 280.09 h 0.16656 v -0.16895 h 0.16656 v 0.22928 l 0.33312,0.0338 v 0.0893 h 0.16656 v 0.23411 h 0.16656 v -0.16894 h 0.16657 v 0.34512 h 0.16656 v -0.47304 h 0.16656 v 0.52614 h 0.16656 v -0.12309 l 0.33312,-0.0965 v -0.082 h 0.16656 v 0.21721 h 0.16657 v 0.11585 l 0.8328,-0.099 v -0.0676 l 0.33313,-0.0676 v 0.18342 l 0.49968,-0.005 v 0.31617 h 0.16656 v -0.36202 h 0.16656 v 0.40546 h 0.16656 v -0.11343 h 0.16657 v 0.12792 l 0.66624,-0.07 v -0.0434 l 0.66625,0.0748 v 0.17377 h 0.16656 v -0.18584 l 0.66624,0.10378 v 0.28721 l 0.33313,-0.0435 v -0.16411 l 0.49968,-0.1062 v -0.07 h 0.16656 v 0.58165 h 0.16656 v -0.50442 l 0.33313,0.0266 v 0.20273 l 0.33312,0.0459 v -0.44408 h 0.16656 v 0.45856 h 0.16656 v 0.32823 h 0.16656 v -0.67336 h 0.16656 v 0.27755 h 0.16657 v -0.39098 h 0.16656 v 0.43443 h 0.16656 v -0.12551 h 0.16656 v 0.25101 l 0.33312,-0.0772 v -0.30893 h 0.16656 v 0.37168 h 0.16657 v -0.24135 h 0.16656 v 0.17377 h 0.16656 v -0.12068 h 0.16656 v 0.21239 h 0.16656 v -0.23893 h 0.16656 v 0.37409 h 0.16656 v -0.3572 h 0.16657 v 0.19791 l 0.33312,0.0555 v -0.3934 h 0.16656 v 0.35478 h 0.16656 v -0.20997 l 0.33312,-0.1062 v 0.24859 l 0.49969,0.0845 v -0.44166 h 0.16656 v 0.50683 h 0.16656 v -0.21721 h 0.16656 v 0.14239 h 0.16656 v -0.38616 h 0.16657 v 0.5189 h 0.16656 v -0.1786 h 0.16656 v 0.22446 h 0.16656 v -0.27755 h 0.16656 v -0.15446 h 0.16656 v 0.23169 h 0.16656 v -0.1786 h 0.16657 v -0.17618 h 0.16656 v 0.22928 h 0.16656 v 0.22687 h 0.16656 v -0.24859 h 0.16656 v 0.1979 l 0.49969,0.0121 v 0.12067 l 0.33312,-0.0458 v -0.0772 h 0.16656 v 0.16653 l 1.16593,0.0217 v -0.18343 h 0.16656 v 0.16653 h 0.16656 v -0.26065 h 0.16657 v 0.1617 l 0.33312,0.0531 v -0.25342 h 0.16656 v 0.18584 h 0.16656 v 0.22928 h 0.16656 v -0.32099 l 0.66625,0.005 v 0.27031 l 0.33312,0.099 v 0.0796 h 0.16656 v -0.38133 h 0.16656 v 0.13516 l 0.33313,-0.0241 v 0.15446 h 0.16656 v -0.27272 h 0.16656 v 0.51166 h 0.16656 v -0.29444 l 0.33312,-0.005 v -0.19067 h 0.16656 v 0.25825 l 0.33313,0.0265 v 0.15929 h 0.16656 v -0.20031 h 0.16656 v -0.24377 h 0.16656 v 0.39581 l 0.33312,-0.005 v -0.23652 h 0.16657 V 281.6369 H 173.04 v 0.21238 h 0.16656 v 0.19067 l 0.33312,-0.005 v -0.27755 h 0.16656 v 0.11585 l 0.33312,-0.0265 v 0.29444 h 0.16657 v -0.32581 h 0.16656 v 0.24134 h 0.16656 v -0.11584 l 0.33312,-0.0386 v -0.22445 h 0.16656 v 0.26065 h 0.16656 v -0.19307 h 0.16657 v 0.3596 h 0.16656 v 0.14964 h 0.16656 v -0.30651 l 0.33312,-0.0241 v -0.11343 h 0.16656 v 0.25824 h 0.16656 v 0.20032 h 0.16657 v 0.12791 l 0.33312,-0.0434 v -0.57199 h 0.16656 v 0.27755 h 0.16656 v -0.20273 h 0.16656 v 0.28237 h 0.16657 v -0.22687 h 0.16656 v 0.31858 h 0.16656 v -0.29685 h 0.16656 v 0.39339 l 0.33312,0.0241 v -0.35961 l 0.49969,-0.0893 v 0.61061 h 0.16656 v -0.15688 l 0.33312,0.029 v 0.0869 h 0.16656 v -0.1979 l 0.33312,0.0145 v -0.24135 h 0.16657 v 0.26065 h 0.16656 v 0.11344 h 0.16656 v -0.25583 l 0.66624,-0.07 v -0.0772 h 0.16657 v 0.40064 h 0.16656 v -0.24618 h 0.16656 v 0.38374 h 0.16656 v -0.20273 h 0.16656 v 0.38375 h 0.16656 v -0.50442 h 0.16656 v 0.20997 h 0.16657 v -0.3403 l 0.33312,-0.0386 v 0.18343 l 0.49968,-0.0531 v 0.24376 h 0.16656 v -0.1617 l 0.49969,0.0772 v 0.1424 l 0.49968,-0.007 v -0.36203 h 0.16656 v 0.39099 h 0.16657 v -0.38857 l 0.49968,-0.007 v 0.2872 h 0.16656 v 0.17619 h 0.16656 v -0.22446 h 0.16656 v 0.11585 h 0.16657 v -0.26548 h 0.16656 v 0.47062 h 0.16656 v -0.27755 h 0.16656 v 0.33789 h 0.16656 v -0.15687 l 0.33312,0.0386 v -0.33547 l 0.33313,-0.0869 v 0.5358 h 0.16656 v -0.3934 h 0.16656 v 0.15205 l 1.33249,-0.0555 v -0.28479 h 0.16656 v 0.30168 h 0.33313 v 0.32823 h 0.16656 v -0.24858 l 0.33312,-0.0362 v -0.17135 h 0.16656 v 0.30892 h 0.16656 v -0.28479 h 0.16656 v 0.55752 h 0.16657 v -0.43926 l 0.49968,-0.0314 v 0.14722 h 0.16656 v 0.12309 h 0.16656 v -0.21239 h 0.16656 v 0.27272 l 0.33313,-0.0845 v -0.0748 h 0.16656 v 0.20756 h 0.16656 v -0.31134 l 0.49968,-0.0434 v 0.22687 h 0.16656 v -0.23652 l 0.33313,0.0676 v 0.37651 h 0.16656 v -0.35478 h 0.16656 v -0.31858 h 0.16656 v 0.30892 h 0.16656 v 0.23894 h 0.16656 v -0.2679 h 0.16657 v -0.35961 h 0.16656 v 0.55752 l 1.49905,0.0241 v -0.1786 l 0.99937,0.0121 v -0.1255 l 0.33312,-0.002 v 0.15446 l 0.33312,0.0845 v 0.0941 h 0.16657 v -0.19067 h 0.16656 v 0.16894 h 0.16656 v -0.25341 h 0.16656 v 0.36202 l 0.33312,-0.10861 v -0.13998 h 0.16656 v -0.2872 h 0.16657 v 0.29203 l 0.33312,0.0724 v 0.13033 h 0.16656 v -0.44166 l 0.49968,0.11102 v 0.25583 h 0.16657 v -0.30169 h 0.16656 v -0.42477 h 0.16656 v 1.074 h 0.16656 v -0.65647 h 0.16656 v 0.16412 h 0.16656 v -0.14481 h 0.16656 v -0.18101 l 0.33313,0.0579 v 0.32341 l 0.33312,-0.10861 v -0.099 l 0.33312,0.0965 v 0.2341 h 0.16656 v -0.4489 h 0.16657 v 0.14239 h 0.16656 v 0.26307 h 0.16656 v -0.45856 h 0.16656 v 0.45615 h 0.16656 v -0.34513 l 0.33312,0.0603 v 0.42477 h 0.16657 v -0.48752 h 0.16656 v 0.17377 h 0.16656 v -0.30652 h 0.16656 v 0.40306 h 0.16656 v -0.22446 h 0.16656 v 0.26307 l 0.33313,-0.10378 v -0.0386 h 0.16656 v -0.27755 l 0.33312,0.0652 v 0.11343 h 0.16656 v -0.14722 l 0.33312,0.0241 v 0.29203 h 0.16657 v -0.11826 l 0.49968,-0.0579 v -0.21962 h 0.16656 v 0.20032 l 0.33312,0.0748 v -0.31616 h 0.16657 v 0.19549 l 0.49968,0.0627 v 0.0627 l 0.33312,0.0579 v -0.37409 h 0.16656 v 0.3572 h 0.16657 v -0.44167 h 0.16656 v 0.13033 h 0.16656 v 0.4658 l 0.33312,0.0145 v -0.31134 l 0.33312,0.0434 v -0.16653 l 0.33313,-0.099 v 0.27514 h 0.16656 v -0.18584 h 0.16656 v -0.25824 h 0.16656 v 0.20032 l 0.49968,-0.10861 v 0.49235 h 0.16657 v -0.5382 h 0.16656 v 0.24858 h 0.16656 v -0.13032 h 0.16656 v 0.14963 h 0.16656 v 0.11344 h 0.16656 v -0.27031 l 0.49969,0.0241 v -0.3765 h 0.16656 v 0.36685 l 0.33312,0.0821 v -0.22204 h 0.16656 v 0.43925 h 0.16656 v -0.23411 h 0.16657 v -0.14239 h 0.16656 v 0.13274 l 0.33312,0.007 v -0.18343 h 0.16656 v 0.2148 h 0.16656 v -0.18584 l 0.83281,-0.0362 v 0.37409 h 0.16656 v -0.29686 l 0.33312,-0.0917 v -0.1086 h 0.16657 v 0.17618 h 0.16656 v -0.56958 h 0.16656 v 0.83023 l 0.66624,-0.0748 v -0.17619 h 0.16657 v -0.13515 l 0.33312,0.0217 v -0.26307 l 0.49968,0.0459 v 0.082 l 0.33313,0.0772 v -0.52373 h 0.16656 v 0.44891 h 0.16656 v 0.1979 h 0.16656 v -0.14239 l 0.49969,0.005 v -0.44891 h 0.16656 v 0.16894 h 0.16656 v 0.15205 h 0.16656 v 0.48994 h 0.16656 v -0.70474 h 0.16656 v 0.18343 l 0.49969,0.0507 v 0.23652 h 0.16656 v -0.1786 h 0.16656 v -0.22204 l 0.33312,0.0579 v 0.2148 h 0.16656 v -0.50201 h 0.16656 v 0.21721 l 0.33313,0.07 v -0.19791 h 0.16656 v 0.45132 h 0.16656 v -0.45373 h 0.16656 v 0.30892 l 0.33312,0.0459 v -0.37892 l 0.66625,-0.0217 v 0.18101 l 0.33312,0.0507 v 0.17135 h 0.16656 v -0.38133 h 0.16657 v 0.1786 h 0.16656 v -0.18101 l 0.99936,0.0121 v -0.1424 h 0.16657 v 0.23652 l 0.33312,0.0386 v -0.29203 h 0.16656 v 0.27513 h 0.16656 v -0.2148 h 0.16656 v -0.16894 h 0.16656 v 0.13757 l 0.83281,-0.0193 v -0.14481 h 0.16656 v 0.16894 h 0.16656 v -0.14239 l 0.33313,0.0386 v -0.3934 h 0.16656 v 0.42718 h 0.16656 v -0.32582 h 0.16656 v 0.27514 h 0.16656 v -0.24135 h 0.16656 v 0.4296 h 0.16657 V 281.302 l 0.49968,-0.0434 v -0.18101 h 0.16656 v -0.17377 h 0.16656 v 0.24376 h 0.16656 v -0.25583 h 0.16657 v 0.28479 h 0.16656 v -0.21721 h 0.16656 v -0.2679 h 0.16656 v 0.43684 l 0.33312,-0.0362 v -0.22928 h 0.33313 v -0.30168 h 0.16656 v 0.28237 h 0.16656 v 0.18101 l 0.33312,-0.0869 v -0.36926 h 0.16656 v 0.21962 h 0.16656 v -0.3234 h 0.16657 v 0.25824 h 0.16656 v -0.1424 l 0.99937,-0.029 v 0.15205 h 0.16656 v -0.27996 h 0.16656 v 0.502 h 0.16656 v -0.28962 l 0.49968,-0.0724 v -0.21963 h 0.16657 v -0.13515 h 0.16656 v 0.29203 h 0.16656 v -0.12792 h 0.16656 v 0.20998 h 0.16656 v -0.4465 h 0.16656 v 0.18584 l 0.33313,0.0965 v 0.14481 h 0.16656 v -0.4658 h 0.16656 v 0.14963 h 0.16656 v -0.15929 h 0.16656 v 0.26066 l 0.33312,-0.0531 v -0.20273 l 0.33313,0.0893 v 0.0386 h 0.16656 v -0.37408 h 0.16656 v 0.41029 h 0.16656 v -0.27273 h 0.16656 v 0.24377 l 0.33313,-0.099 v -0.18342 h 0.16656 v -0.32582 h 0.16656 v 0.37891 h 0.16656 v 0.21722 h 0.16656 v -0.63475 h 0.16656 v -0.14481 h 0.16656 v 0.54062 h 0.16657 v -0.30651 h 0.16656 v 0.16653 h 0.16656 v -0.36926 h 0.16656 v 0.35719 l 0.33312,0.029 v -0.42236 l 0.33313,0.0241 v 0.31617 h 0.16656 v -0.4827 h 0.16656 v 0.40064 l 0.33312,-0.0555 v -0.29203 h 0.16656 v -0.16412 l 0.66625,0.0338 v 0.4658 h 0.16656 v -0.28962 h 0.16656 v -0.38133 l 0.33312,0.0796 v 0.0603 h 0.16656 v -0.41995 h 0.16657 v 0.67095 h 0.16656 v -0.62509 h 0.16656 v -0.2679 h 0.16656 v 0.22204 h 0.16656 v 0.23411 l 0.83281,0.0483 V 278.765 l 0.33312,-0.0193 v -0.3017 l 0.33312,0.005 v -0.13757 l 0.49969,0.0459 v 0.40064 h 0.16656 v -0.77473 h 0.16656 v 0.43925 h 0.16656 v 0.19067 h 0.16656 v -0.42719 l 0.33313,-0.0869 v 0.34271 h 0.16656 v -0.26066 l 0.33312,0.099 v -0.31376 l 0.33312,-0.0579 v 0.55752 h 0.16657 v -0.6251 h 0.16656 v 0.16412 l 0.33312,0.0434 v -0.22445 l 0.33312,0.0965 v -0.4827 h 0.16656 v 0.45132 h 0.16657 v -0.17135 l 0.33312,-0.002 v -0.46097 l 0.33312,0.0145 v 0.14239 h 0.16656 v 0.35237 l 0.33313,-0.0821 v -0.30168 l 0.33312,0.0241 v 0.22687 h 0.16656 v -0.35961 h 0.16656 v 0.20274 h 0.16656 v 0.19066 h 0.16656 v -0.39581 h 0.16657 v -0.3403 h 0.16656 v 0.14239 l 0.33312,0.0845 v -0.27756 h 0.16656 v 0.36444 h 0.16656 v 0.20273 h 0.16656 v -0.59854 l 0.33313,0.01 v -0.27755 h 0.16656 v 0.36685 h 0.16656 v -0.13274 h 0.16656 v 0.11585 h 0.16656 v -0.11344 h 0.16656 v 0.14481 h 0.16657 v -0.21721 l 0.49968,-0.0893 v -0.25341 h 0.16656 v 0.17859 h 0.16656 v 0.13757 h 0.16656 v -0.12791 h 0.16657 v -0.51649 h 0.16656 v 0.15205 h 0.16656 v 0.1424 h 0.16656 v -0.572 h 0.16656 v 0.16653 l 0.33312,-0.0869 v 0.39822 l 0.49969,-0.1086 v -0.49718 h 0.16656 v 0.35719 l 0.33312,-0.0265 v -0.12308 h 0.16656 v -0.41271 h 0.16657 v 0.45856 h 0.16656 v -0.18101 h 0.16656 v -0.37891 h 0.16656 v 0.51889 h 0.16656 v -0.38857 h 0.16656 v 0.26549 l 0.33313,0.0628 v -0.3765 h 0.16656 V 275.223 h 0.16656 v 0.1255 h 0.16656 v 0.35237 l 0.33312,-0.005 v -0.6444 h 0.16656 v 0.30651 h 0.16656 v -0.38615 l 0.33313,0.0772 v 0.0531 h 0.16656 v -0.23169 h 0.16656 v 0.34996 h 0.16656 v 0.13515 h 0.16656 v -0.29444 h 0.16656 v -0.3572 l 0.33313,-0.0579 v 0.37891 l 0.33312,-0.0893 v -0.10136 l 0.33312,0.0145 v 0.27514 l 0.33313,0.041 v -0.5913 h 0.16656 v 0.45856 h 0.16656 v -0.45373 l 0.33312,0.10619 v 0.0507 h 0.16656 v -0.41029 h 0.16656 v 0.18826 l 0.49969,0.0652 v -0.18584 l 0.33312,-0.0241 v 0.16411 h 0.16656 v 0.12309 h 0.16656 v 0.36202 h 0.16657 v -0.69508 h 0.16656 v 0.74094 h 0.16656 v -0.58406 h 0.16656 v 0.46821 h 0.16656 v -0.26066 l 0.49969,0.0603 v 0.32099 h 0.16656 v 0.30652 h 0.16656 v -0.27997 l 0.33312,-0.1086 v 0.50924 l 0.33312,-0.07 v -0.18101 h 0.16657 v 0.63474 l 0.33312,0.0917 v -0.28238 h 0.16656 v 0.29444 h 0.16656 v 0.21239 h 0.16656 v 0.11585 h 0.16656 v 0.41512 h 0.16657 v 0.1448 h 0.16656 v 0.4827 l 0.33312,0.0965 v 0.36685 l 0.33312,0.0555 v 0.53579 l 0.33313,0.0724 v 0.40063 l 0.33312,-0.07 v 0.47787 l 0.33312,0.10378 v 0.67819 h 0.16656 v 0.25341 h 0.16657 v -0.18101 h 0.16656 v 0.5189 h 0.16656 v 0.20756 h 0.16656 v 0.35237 h 0.16656 v 0.2872 h 0.16656 v 0.39099 l 0.33312,0.0507 v 0.2679 h 0.16657 v 0.43442 l 0.33312,-0.1086 v 0.23652 h 0.16656 v 0.36443 l 0.33312,-0.0169 v 0.2872 l 0.66625,0.0362 v 0.2848 h 0.16656 v 0.37891 h 0.16656 v -0.18101 l 0.33312,-0.0217 v 0.14964 l 0.33313,0.0338 v 0.38857 h 0.16656 v 0.21722 h 0.16656 v -0.20756 h 0.16656 v 0.16653 h 0.16656 v 0.33306 h 0.16656 v -0.50442 h 0.16657 v 0.22928 l 0.33312,0.099 v 0.0869 h 0.16656 v 0.14722 l 0.66624,-0.1086 v 0.24376 l 0.49969,0.10619 v -0.41753 h 0.16656 v 0.51166 h 0.16656 v 0.27755 h 0.16656 v -0.21963 l 0.49969,-0.0603 v 0.55752 l 0.33312,0.002 v -0.3041 h 0.16656 v -0.11826 h 0.16656 v 0.37892 h 0.16656 v -0.16895 h 0.16657 v 0.12792 l 0.33312,-0.007 v 0.13515 l 0.33312,0.0821 v 0.0748 l 0.33312,-0.10137 v 0.40547 h 0.16657 v -0.28238 l 0.33312,-0.10619 v 0.2341 l 0.33312,-0.01 v -0.21721 h 0.16656 v 0.47063 h 0.16656 v -0.23411 h 0.16657 v 0.39098 l 0.33312,-0.0724 v -0.35478 h 0.16656 v 0.56958 l 0.33312,-0.01 v -0.15446 h 0.16656 v 0.20515 l 0.33313,-0.0869 v -0.0772 h 0.16656 v 0.34513 l 1.16593,0.10378 v 0.30168 h 0.16656 v -0.41029 h 0.16656 v -0.16894 h 0.16656 v 0.33788 h 0.16656 v 0.28721 h 0.16657 v -0.42236 h 0.16656 v 0.13274 h 0.16656 v 0.19549 l 0.99937,0.0869 v 0.18584 l 0.99937,0.0434 v 0.15929 h 0.16656 v -0.15446 h 0.16656 v 0.17618 l 0.66624,0.0893 v 0.18101 l 0.33313,-0.007 v -0.17377 l 0.49968,-0.0748 v 0.22928 h 0.16656 v 0.27996 l 0.33313,-0.1086 v -0.17136 h 0.16656 v 0.34271 l 0.49968,0.0217 v 0.10136 l 0.99937,0.041 v 0.16653 h 0.16656 v 0.17136 l 0.66625,-0.10378 v -0.0483 h 0.16656 v 0.24376 l 1.16593,-0.0338 v 0.34996 h 0.16656 v -0.12792 l 0.33312,0.01 v 0.23893 h 0.16656 v -0.14722 l 0.49969,0.0772 v 0.22687 h 0.16656 v -0.14723 l 0.99937,0.0507 v 0.19066 h 0.16656 v -0.13756 h 0.16656 v 0.29927 h 0.16656 v -0.18102 h 0.16656 v 0.23411 h 0.16656 v -0.1617 h 0.16657 v 0.20997 l 0.8328,-0.0627 v 0.21721 l 0.33313,0.002 v 0.12791 h 0.16656 v -0.11584 l 0.49968,0.0652 v 0.099 l 0.66625,0.10137 v 0.1786 l 0.99937,0.10619 v 0.01 h 0.16656 v 0.24376 l 0.8328,-0.1086 v -0.0145 l 0.33313,-0.002 v -0.13032 h 0.16656 v 0.23169 l 0.49968,0.0869 v 0.17136 h 0.16656 v -0.17136 h 0.16657 v 0.34755 h 0.16656 v -0.20274 l 0.49968,0.0507 v 0.0965 l 0.66625,0.002 v 0.12309 l 0.66624,0.0724 v 0.11826 l 0.99937,0.0314 v 0.24135 h 0.16656 v -0.26066 l 0.49969,0.0941 v 0.0772 h 0.16656 v -0.16412 h 0.16656 v 0.34754 h 0.16656 v -0.22687 h 0.16656 v 0.17136 l 0.83281,0.0169 v 0.23652 h 0.16656 v -0.15688 h 0.16656 v 0.15446 l 0.33313,-0.0531 v -0.0652 l 0.66624,0.0772 v 0.0362 l 0.49969,-0.01 v 0.24135 h 0.16656 v -0.29203 h 0.16656 v 0.25341 l 0.49968,-0.10377 v -0.0772 h 0.16656 v 0.20998 h 0.16657 v -0.11344 l 0.66624,-0.0796 v 0.27031 l 0.49969,-0.0627 v -0.11344 h 0.16656 v 0.11585 l 0.99937,0.0579 v 0.15205 h 0.16656 v -0.3403 h 0.16656 v 0.24618 l 0.33312,-0.0169 v 0.16895 h 0.16656 v -0.13516 l 1.16593,-0.0145 v 0.22446 h 0.16656 v -0.17378 h 0.16657 v 0.11344 l 1.49905,0.0483 v 0.15205 h 0.16656 v -0.17136 l 1.16593,-0.0748 v 0.19549 l 0.33312,-0.0169 v -0.12068 h 0.16656 v 0.14723 l 0.33313,-0.0145 v -0.17619 l 0.33312,0.10861 v 0.07 l 0.99937,0.0338 v 0.10861 l 0.33312,-0.1062 v -0.10136 h 0.16656 v 0.23652 h 0.16656 v -0.25342 l 0.33313,0.10137 v 0.13274 l 0.66624,-0.0362 v -0.0845 h 0.16656 v 0.12308 l 1.66562,-0.0241 v 0.16894 l 0.99937,0.029 v -0.24134 l 0.33312,0.0531 v 0.1255 l 0.99937,0.0507 v -0.1955 h 0.16656 v 0.21239 l 4.33059,0.10137 v 0.0652 h 0.16657 v -0.14964 h 0.16656 v 0.11344 l 3.49779,0.007 v 0.16412 l 0.49968,-0.0724 v -0.0627 l 1.33249,0.0145 v 0.13757 l 1.66562,-0.0338 v -0.10137 l 0.33312,0.10861 v 0.0941 l 1.49905,0.041 v -0.23411 l 0.66625,0.0507 v 0.0724 l 0.33312,0.0217 v -0.16412 l 1.16593,-0.0941 v -0.0338 l 0.33312,-0.0821 v -0.0579 l 0.49969,-0.041 v -0.0965 h 0.16656 v -0.16895 h 0.16656 v -0.20514 l 0.66625,-0.0845 v -0.19791 l 0.33312,0.0483 v -0.32099 l 0.49968,0.0796 v -0.26307 h 0.16656 v -0.18825 h 0.16657 v -0.34513 h 0.16656 v -0.12067 h 0.16656 v -0.4296 l 0.33312,-0.0459 v -0.28237 h 0.16656 v -0.26066 h 0.16656 v -0.34995 h 0.16657 v -0.22446 h 0.16656 v -0.57199 h 0.16656 v -0.51407 h 0.16656 v -0.55993 h 0.16656 v -0.36202 h 0.16656 v -0.79163 h 0.16656 v -0.69266 h 0.16657 v -0.65647 h 0.16656 v -1.34431 h 0.16656 v -1.29362 h 0.16656 v -1.56153 h 0.16656 v -1.9694 h 0.16656 v -2.7586 h 0.16656 v -2.41348 h 0.16657 v -2.56312 h 0.16656 v -3.33543 h 0.16656 v -3.54781 h 0.16656 v -3.28475 h 0.16656 v -4.56872 h 0.16656 v -3.69986 h 0.16656 v -5.34828 h 0.16657 v -5.48825 h 0.16656 v -5.04417 h 0.16656 v -7.02081 h 0.16656 v -7.87036 h 0.16656 v -7.97897 h 0.16656 v -8.91298 h 0.16656 v -10.72068 h 0.16657 v -11.40128 h 0.16656 v -11.79468 h 0.16656 v -14.34572 h 0.16656 v -15.10839 h 0.16656 v -13.62892 h 0.16656 V 111.6122 h 0.16657 V 96.646205 h 0.16656 V 84.035772 h 0.16656 V 73.088227 h 0.16656 v -8.623365 h 0.16656 v -6.586387 h 0.16656 V 53.568 h 0.16656 v 0.494763 h 0.16657 v 1.58083 h 0.16656 v 4.566304 h 0.16656 v 10.57587 h 0.16656 v 17.072958 h 0.16656 v 20.842815 h 0.16656 v 28.15807 h 0.16656 v 28.59008 h 0.16657 v 28.80248 h 0.16656 v 25.68666 h 0.16656 v 22.53225 h 0.16656 v 18.04318 h 0.16656 v 11.89122 h 0.16656 v 8.47373 h 0.16656 v 5.92026 h 0.16656 v 3.24613 h 0.16657 v 1.92596 h 0.16656 v 1.50118 h 0.16656 v 0.56958 h 0.16656 v 0.42719 h 0.16656 v 0.251 h 0.16656 v 0.13999 h 0.16656 v 0.19307 l 0.49969,0.0772 v 0.0386 l 1.33249,0.0772 v 0.041 l 20.48705,0.0821 v 0.0314 l 37.22648,-0.01 v 0"
       clip-path="url(#p8184bedd5b)"
       style="fill:none;stroke:#1f77b4;stroke-width:1.5;stroke-linecap:square"
       id="path87" />
  </g>
  <g
     id="legend_1"
     transform="translate(14.25)">
    <g
       id="patch_7">
      <path
         d="m 66,68.68575 h 131.25562 q 2.4,0 2.4,-2.4 V 49.872 q 0,-2.4 -2.4,-2.4 H 66 q -2.4,0 -2.4,2.4 v 16.41375 q 0,2.4 2.4,2.4 z"
         style="opacity:0.8;fill:#ffffff;stroke:#cccccc;stroke-linejoin:miter"
         id="path121" />
    </g>
    <g
       id="line2d_17">
      <path
         d="m 68.4,57.190125 h 6 v 0 h 12 v 0 h 6"
         style="fill:none;stroke:#1f77b4;stroke-width:1.5;stroke-linecap:square"
         id="path122" />
    </g>
    <g
       id="text_19">
      <!-- Calibrated data -->
      <g
         transform="matrix(0.12,0,0,-0.12,102,61.390125)"
         id="g136">
        <use
           xlink:href="#DejaVuSans-43"
           id="use122" />
        <use
           xlink:href="#DejaVuSans-61"
           x="69.824219"
           id="use123" />
        <use
           xlink:href="#DejaVuSans-6c"
           x="131.10352"
           id="use124" />
        <use
           xlink:href="#DejaVuSans-69"
           x="158.88672"
           id="use125" />
        <use
           xlink:href="#DejaVuSans-62"
           x="186.66992"
           id="use126" />
        <use
           xlink:href="#DejaVuSans-72"
           x="250.14648"
           id="use127" />
        <use
           xlink:href="#DejaVuSans-61"
           x="291.25977"
           id="use128" />
        <use
           xlink:href="#DejaVuSans-74"
           x="352.53906"
           id="use129" />
        <use
           xlink:href="#DejaVuSans-65"
           x="391.74805"
           id="use130" />
        <use
           xlink:href="#DejaVuSans-64"
           x="453.27148"
           id="use131" />
        <use
           xlink:href="#DejaVuSans-20"
           x="516.74805"
           id="use132" />
        <use
           xlink:href="#DejaVuSans-64"
           x="548.53516"
           id="use133" />
        <use
           xlink:href="#DejaVuSans-61"
           x="612.01172"
           id="use134" />
        <use
           xlink:href="#DejaVuSans-74"
           x="673.29102"
           id="use135" />
        <use
           xlink:href="#DejaVuSans-61"
           x="712.5"
           id="use136" />
      </g>
    </g>
  </g>
  <g
     id="patch_3"
     transform="translate(14.25)">
    <path
       d="M 57.6,307.584 V 41.472"
       style="fill:none;stroke:#000000;stroke-width:0.8;stroke-linecap:square;stroke-linejoin:miter"
       id="path88" />
  </g>
  <g
     id="patch_6"
     transform="translate(14.25)">
    <path
       d="M 57.6,41.472 H 414.72"
       style="fill:none;stroke:#000000;stroke-width:0.8;stroke-linecap:square;stroke-linejoin:miter"
       id="path91" />
  </g>
  <g
     id="text_18"
     transform="translate(14.25)">
    <!-- Calibrated Cs137, Semiconductor -->
    <g
       transform="matrix(0.12,0,0,-0.12,135.48,35.472)"
       id="g121">
      <defs
         id="defs91">
        <path
           id="DejaVuSans-61"
           d="m 2194,1759 q -697,0 -966,-159 -269,-159 -269,-544 0,-306 202,-486 202,-179 548,-179 479,0 768,339 289,339 289,901 v 128 z m 1147,238 V 0 H 2766 V 531 Q 2569,213 2275,61 1981,-91 1556,-91 q -537,0 -855,302 -317,302 -317,808 0,590 395,890 396,300 1180,300 h 807 v 57 q 0,397 -261,614 -261,217 -733,217 -300,0 -585,-72 -284,-72 -546,-216 v 532 q 315,122 612,182 297,61 578,61 760,0 1135,-394 375,-393 375,-1193 z"
           transform="scale(0.015625)" />
        <path
           id="DejaVuSans-6c"
           d="m 603,4863 h 575 V 0 H 603 Z"
           transform="scale(0.015625)" />
        <path
           id="DejaVuSans-69"
           d="m 603,3500 h 575 V 0 H 603 Z m 0,1363 h 575 V 4134 H 603 Z"
           transform="scale(0.015625)" />
        <path
           id="DejaVuSans-62"
           d="m 3116,1747 q 0,634 -261,995 -261,361 -717,361 -457,0 -718,-361 -261,-361 -261,-995 0,-634 261,-995 261,-361 718,-361 456,0 717,361 261,361 261,995 z M 1159,2969 q 182,312 458,463 277,152 661,152 638,0 1036,-506 399,-506 399,-1331 Q 3713,922 3314,415 2916,-91 2278,-91 1894,-91 1617,61 1341,213 1159,525 V 0 H 581 v 4863 h 578 z"
           transform="scale(0.015625)" />
        <path
           id="DejaVuSans-64"
           d="m 2906,2969 v 1894 h 575 V 0 H 2906 V 525 Q 2725,213 2448,61 2172,-91 1784,-91 1150,-91 751,415 353,922 353,1747 q 0,825 398,1331 399,506 1033,506 388,0 664,-152 277,-151 458,-463 z M 947,1747 q 0,-634 261,-995 261,-361 717,-361 456,0 718,361 263,361 263,995 0,634 -263,995 -262,361 -718,361 -456,0 -717,-361 -261,-361 -261,-995 z"
           transform="scale(0.015625)" />
        <path
           id="DejaVuSans-53"
           d="m 3425,4513 v -616 q -359,172 -678,256 -319,85 -616,85 -515,0 -795,-200 -280,-200 -280,-569 0,-310 186,-468 186,-157 705,-254 l 381,-78 q 706,-135 1042,-474 336,-339 336,-907 0,-679 -455,-1029 -454,-350 -1332,-350 -331,0 -705,75 -373,75 -773,222 v 650 q 384,-215 753,-325 369,-109 725,-109 540,0 834,212 294,213 294,607 0,343 -211,537 -211,194 -692,291 l -385,75 q -706,140 -1022,440 -315,300 -315,835 0,619 436,975 436,356 1201,356 329,0 669,-60 341,-59 697,-177 z"
           transform="scale(0.015625)" />
        <path
           id="DejaVuSans-6d"
           d="m 3328,2828 q 216,388 516,572 300,184 706,184 547,0 844,-383 297,-382 297,-1088 V 0 h -578 v 2094 q 0,503 -179,746 -178,244 -543,244 -447,0 -707,-297 -259,-296 -259,-809 V 0 h -578 v 2094 q 0,506 -178,748 -178,242 -550,242 -441,0 -701,-298 -259,-298 -259,-808 V 0 H 581 v 3500 h 578 v -544 q 197,322 472,475 275,153 653,153 382,0 649,-194 267,-193 395,-562 z"
           transform="scale(0.015625)" />
        <path
           id="DejaVuSans-63"
           d="m 3122,3366 v -538 q -244,135 -489,202 -245,67 -495,67 -560,0 -870,-355 -309,-354 -309,-995 0,-641 309,-996 310,-354 870,-354 250,0 495,67 245,67 489,202 V 134 Q 2881,22 2623,-34 2366,-91 2075,-91 1284,-91 818,406 353,903 353,1747 q 0,856 470,1346 471,491 1290,491 265,0 518,-55 253,-54 491,-163 z"
           transform="scale(0.015625)" />
      </defs>
      <use
         xlink:href="#DejaVuSans-43"
         id="use91" />
      <use
         xlink:href="#DejaVuSans-61"
         x="69.824219"
         id="use92" />
      <use
         xlink:href="#DejaVuSans-6c"
         x="131.10352"
         id="use93" />
      <use
         xlink:href="#DejaVuSans-69"
         x="158.88672"
         id="use94" />
      <use
         xlink:href="#DejaVuSans-62"
         x="186.66992"
         id="use95" />
      <use
         xlink:href="#DejaVuSans-72"
         x="250.14648"
         id="use96" />
      <use
         xlink:href="#DejaVuSans-61"
         x="291.25977"
         id="use97" />
      <use
         xlink:href="#DejaVuSans-74"
         x="352.53906"
         id="use98" />
      <use
         xlink:href="#DejaVuSans-65"
         x="391.74805"
         id="use99" />
      <use
         xlink:href="#DejaVuSans-64"
         x="453.27148"
         id="use100" />
      <use
         xlink:href="#DejaVuSans-20"
         x="516.74805"
         id="use101" />
      <use
         xlink:href="#DejaVuSans-43"
         x="548.53516"
         id="use102" />
      <use
         xlink:href="#DejaVuSans-73"
         x="618.35938"
         id="use103" />
      <use
         xlink:href="#DejaVuSans-31"
         x="670.45898"
         id="use104" />
      <use
         xlink:href="#DejaVuSans-33"
         x="734.08203"
         id="use105" />
      <use
         xlink:href="#DejaVuSans-37"
         x="797.70508"
         id="use106" />
      <use
         xlink:href="#DejaVuSans-2c"
         x="861.32812"
         id="use107" />
      <use
         xlink:href="#DejaVuSans-20"
         x="893.11523"
         id="use108" />
      <use
         xlink:href="#DejaVuSans-53"
         x="924.90234"
         id="use109" />
      <use
         xlink:href="#DejaVuSans-65"
         x="988.37891"
         id="use110" />
      <use
         xlink:href="#DejaVuSans-6d"
         x="1049.9023"
         id="use111" />
      <use
         xlink:href="#DejaVuSans-69"
         x="1147.3145"
         id="use112" />
      <use
         xlink:href="#DejaVuSans-63"
         x="1175.0977"
         id="use113" />
      <use
         xlink:href="#DejaVuSans-6f"
         x="1230.0781"
         id="use114" />
      <use
         xlink:href="#DejaVuSans-6e"
         x="1291.2598"
         id="use115" />
      <use
         xlink:href="#DejaVuSans-64"
         x="1354.6387"
         id="use116" />
      <use
         xlink:href="#DejaVuSans-75"
         x="1418.1152"
         id="use117" />
      <use
         xlink:href="#DejaVuSans-63"
         x="1481.4941"
         id="use118" />
      <use
         xlink:href="#DejaVuSans-74"
         x="1536.4746"
         id="use119" />
      <use
         xlink:href="#DejaVuSans-6f"
         x="1575.6836"
         id="use120" />
      <use
         xlink:href="#DejaVuSans-72"
         x="1636.8652"
         id="use121" />
    </g>
  </g>
  <g
     id="patch_4"
     transform="translate(14.25)">
    <path
       d="M 414.72,307.584 V 41.472"
       style="fill:none;stroke:#000000;stroke-width:0.8;stroke-linecap:square;stroke-linejoin:miter"
       id="path89" />
  </g>
  <g
     id="patch_5"
     transform="translate(14.25)">
    <path
       d="M 57.6,307.584 H 414.72"
       style="fill:none;stroke:#000000;stroke-width:0.8;stroke-linecap:square;stroke-linejoin:miter"
       id="path90" />
  </g>
  <path
     style="fill:#fd0000;fill-opacity:0.732955;stroke:#000000;stroke-width:1;stroke-linejoin:bevel;stroke-dasharray:none;marker-end:url(#ArrowWideRounded);paint-order:stroke fill markers"
     d="m 284.29444,204.04639 -4.03481,62.25144"
     id="path136" />
  <text
     xml:space="preserve"
     style="font-size:12px;font-family:'Arial Black';-inkscape-font-specification:'Arial Black, ';fill:#000000;fill-opacity:0.73295498;stroke:#000000;stroke-width:0.999997;stroke-linejoin:bevel;stroke-dasharray:none;paint-order:stroke fill markers"
     x="256.21078"
     y="198.57059"
     id="text138"><tspan
       sodipodi:role="line"
       id="tspan138"
       style="stroke-width:1;fill:#000000;fill-opacity:0.73295498"
       x="256.21078"
       y="198.57059" /></text>
  <text
     xml:space="preserve"
     style="font-size:12px;font-family:'Arial Black';-inkscape-font-specification:'Arial Black, ';fill:#000000;fill-opacity:1;stroke:#000000;stroke-width:0.999997;stroke-linejoin:bevel;stroke-dasharray:none;paint-order:stroke fill markers"
     x="256.7872"
     y="191.65373"
     id="text139"><tspan
       sodipodi:role="line"
       id="tspan139"
       style="stroke-width:1;fill:#000000;fill-opacity:1"
       x="256.7872"
       y="191.65373" /></text>
  <text
     xml:space="preserve"
     style="font-size:10px;font-family:'Arial Black';-inkscape-font-specification:'Arial Black, ';fill:#000000;fill-opacity:1;stroke:none;stroke-width:0.999997;stroke-linejoin:bevel;stroke-dasharray:none;paint-order:stroke fill markers"
     x="254.58163"
     y="201.16776"
     id="text140"><tspan
       sodipodi:role="line"
       id="tspan140"
       style="font-style:normal;font-variant:normal;font-weight:normal;font-stretch:normal;font-size:10px;font-family:Arial;-inkscape-font-specification:Arial;stroke:none;stroke-width:1"
       x="254.58163"
       y="201.16776">Compton Edge</tspan></text>
  <path
     style="fill:#000000;fill-opacity:1;stroke:none;stroke-width:0.999997;stroke-linejoin:bevel;stroke-dasharray:none;paint-order:stroke fill markers"
     d="m 259.66922,195.97675 14.60157,-4.292"
     id="path140"
     inkscape:path-effect="#path-effect140"
     inkscape:original-d="m 259.66922,195.97675 14.60157,-4.292"
     transform="translate(14.25)" />
  <path
     style="fill:#000000;fill-opacity:1;stroke:none;stroke-width:0.999997;stroke-linejoin:bevel;stroke-dasharray:none;paint-order:stroke fill markers"
     d="m 281.28429,191.68475 h 0.2882"
     id="path141"
     inkscape:path-effect="#path-effect141"
     inkscape:original-d="m 281.28429,191.68475 h 0.2882"
     transform="translate(14.25)" />
  <text
     xml:space="preserve"
     style="font-size:12px;font-family:'Arial Black';-inkscape-font-specification:'Arial Black, ';fill:#000000;fill-opacity:1;stroke:none;stroke-width:0.999997;stroke-linejoin:bevel;stroke-dasharray:none;paint-order:stroke fill markers"
     x="289.93033"
     y="219.32104"
     id="text141"><tspan
       sodipodi:role="line"
       id="tspan141"
       style="stroke-width:1"
       x="289.93033"
       y="219.32104" /></text>
  <path
     style="fill:#000000;fill-opacity:1;stroke:#000000;stroke-width:1;stroke-linejoin:bevel;stroke-dasharray:none;stroke-opacity:1;marker-end:url(#ArrowWideRounded);paint-order:stroke fill markers"
     d="m 160.39144,235.26271 -7.16969,37.67625"
     id="path142"
     sodipodi:nodetypes="cc" />
  <ellipse
     style="fill:none;fill-opacity:1;stroke:#000000;stroke-width:0.999997;stroke-linejoin:bevel;stroke-dasharray:none;stroke-opacity:1;paint-order:stroke fill markers"
     id="path143"
     cx="215.58255"
     cy="280.1842"
     rx="56.567757"
     ry="11.049973" />
  <path
     style="fill:none;fill-opacity:1;stroke:#000000;stroke-width:1;stroke-linejoin:bevel;stroke-dasharray:none;stroke-opacity:1;marker-end:url(#ArrowWideRounded);paint-order:stroke fill markers"
     d="M 116.34688,164.77661 89.207202,172.5308"
     id="path144" />
  <path
     style="fill:none;fill-opacity:1;stroke:#000000;stroke-width:0.999997;stroke-linejoin:bevel;stroke-dasharray:none;stroke-opacity:1;marker-end:url(#ArrowWideRounded);paint-order:stroke fill markers"
     d="m 119.94718,212.94875 -11.99085,45.29879"
     id="path145" />
  <text
     xml:space="preserve"
     style="font-style:normal;font-variant:normal;font-weight:normal;font-stretch:normal;font-size:9.99998px;font-family:Arial;-inkscape-font-specification:Arial;fill:none;fill-opacity:1;stroke:none;stroke-width:0.999997;stroke-linejoin:bevel;stroke-dasharray:none;stroke-opacity:1;paint-order:stroke fill markers"
     x="180.0849"
     y="258.69165"
     id="text145"><tspan
       sodipodi:role="line"
       id="tspan145"
       style="stroke-width:1;stroke:none"
       x="180.0849"
       y="258.69165" /></text>
  <text
     xml:space="preserve"
     style="font-style:normal;font-variant:normal;font-weight:normal;font-stretch:normal;font-size:9.99998px;font-family:Arial;-inkscape-font-specification:Arial;fill:#000000;fill-opacity:1;stroke:none;stroke-width:0.999997;stroke-linejoin:bevel;stroke-dasharray:none;stroke-opacity:1;paint-order:stroke fill markers"
     x="182.5275"
     y="257.80344"
     id="text146"><tspan
       sodipodi:role="line"
       id="tspan146"
       style="stroke-width:1;fill:#000000;fill-opacity:1"
       x="182.5275"
       y="257.80344" /></text>
  <text
     xml:space="preserve"
     style="font-style:normal;font-variant:normal;font-weight:normal;font-stretch:normal;font-size:9.99998px;font-family:Arial;-inkscape-font-specification:Arial;fill:#000000;fill-opacity:1;stroke:none;stroke-width:0.999997;stroke-linejoin:bevel;stroke-dasharray:none;stroke-opacity:1;paint-order:stroke fill markers"
     x="172.79578"
     y="265.13116"
     id="text147"><tspan
       sodipodi:role="line"
       id="tspan147"
       style="stroke-width:1"
       x="172.79578"
       y="265.13116">Compton Continiuum</tspan></text>
  <text
     xml:space="preserve"
     style="font-style:normal;font-variant:normal;font-weight:normal;font-stretch:normal;font-size:9.99998px;font-family:Arial;-inkscape-font-specification:Arial;fill:#000000;fill-opacity:1;stroke:none;stroke-width:0.999997;stroke-linejoin:bevel;stroke-dasharray:none;stroke-opacity:1;paint-order:stroke fill markers"
     x="142.81862"
     y="232.4894"
     id="text148"><tspan
       sodipodi:role="line"
       id="tspan148"
       style="stroke-width:1"
       x="142.81862"
       y="232.4894">Backscattering</tspan></text>
  <text
     xml:space="preserve"
     style="font-style:normal;font-variant:normal;font-weight:normal;font-stretch:normal;font-size:9.99998px;font-family:Arial;-inkscape-font-specification:Arial;fill:#000000;fill-opacity:1;stroke:none;stroke-width:0.999997;stroke-linejoin:bevel;stroke-dasharray:none;stroke-opacity:1;paint-order:stroke fill markers"
     x="100.40652"
     y="208.95178"
     id="text149"><tspan
       sodipodi:role="line"
       id="tspan149"
       style="stroke-width:1"
       x="100.40652"
       y="208.95178">Lead X-ray</tspan></text>
  <text
     xml:space="preserve"
     style="font-style:normal;font-variant:normal;font-weight:normal;font-stretch:normal;font-size:9.99998px;font-family:Arial;-inkscape-font-specification:Arial;fill:#000000;fill-opacity:1;stroke:none;stroke-width:0.999997;stroke-linejoin:bevel;stroke-dasharray:none;stroke-opacity:1;paint-order:stroke fill markers"
     x="121.94566"
     y="161.65451"
     id="text150"><tspan
       sodipodi:role="line"
       id="tspan150"
       style="stroke-width:1"
       x="121.94566"
       y="161.65451">X-ray Photopeak</tspan></text>
  <path
     style="fill:none;fill-opacity:1;stroke:#000000;stroke-width:1;stroke-linejoin:bevel;stroke-dasharray:none;stroke-opacity:1;marker-end:url(#ArrowWideRounded);paint-order:stroke fill markers"
     d="M 309.07829,79.259602 357.85343,59.226953"
     id="path150" />
  <text
     xml:space="preserve"
     style="font-style:normal;font-variant:normal;font-weight:normal;font-stretch:normal;font-size:9.99998px;font-family:Arial;-inkscape-font-specification:Arial;fill:#000000;fill-opacity:1;stroke:none;stroke-width:0.999997;stroke-linejoin:bevel;stroke-dasharray:none;stroke-opacity:1;paint-order:stroke fill markers"
     x="246.70639"
     y="85.356499"
     id="text151"><tspan
       sodipodi:role="line"
       id="tspan151"
       style="stroke-width:1;stroke:none;fill:#000000;fill-opacity:1"
       x="246.70639"
       y="85.356499" /></text>
  <text
     xml:space="preserve"
     style="font-style:normal;font-variant:normal;font-weight:normal;font-stretch:normal;font-size:9.99998px;font-family:Arial;-inkscape-font-specification:Arial;fill:#000000;fill-opacity:1;stroke:none;stroke-width:0.999997;stroke-linejoin:bevel;stroke-dasharray:none;stroke-opacity:1;paint-order:stroke fill markers"
     x="259.21442"
     y="89.493668"
     id="text152"><tspan
       sodipodi:role="line"
       id="tspan152"
       style="stroke-width:1"
       x="259.21442"
       y="89.493668">Photopeak</tspan></text>
</svg>
