<?xml version="1.0" encoding="UTF-8" standalone="no"?>
<svg
   width="460.8pt"
   height="345.6pt"
   viewBox="0 0 460.8 345.6"
   version="1.1"
   id="svg136"
   sodipodi:docname="Na22.svg"
   inkscape:export-filename="Na22.pdf"
   inkscape:export-xdpi="96"
   inkscape:export-ydpi="96"
   inkscape:version="1.3.1 (91b66b0, 2023-11-16)"
   xmlns:inkscape="http://www.inkscape.org/namespaces/inkscape"
   xmlns:sodipodi="http://sodipodi.sourceforge.net/DTD/sodipodi-0.dtd"
   xmlns:xlink="http://www.w3.org/1999/xlink"
   xmlns="http://www.w3.org/2000/svg"
   xmlns:svg="http://www.w3.org/2000/svg"
   xmlns:rdf="http://www.w3.org/1999/02/22-rdf-syntax-ns#"
   xmlns:cc="http://creativecommons.org/ns#"
   xmlns:dc="http://purl.org/dc/elements/1.1/">
  <sodipodi:namedview
     id="namedview136"
     pagecolor="#ffffff"
     bordercolor="#000000"
     borderopacity="0.25"
     inkscape:showpageshadow="2"
     inkscape:pageopacity="0.0"
     inkscape:pagecheckerboard="0"
     inkscape:deskcolor="#d1d1d1"
     inkscape:document-units="pt"
     inkscape:zoom="1.5339865"
     inkscape:cx="280.96727"
     inkscape:cy="312.58424"
     inkscape:window-width="1440"
     inkscape:window-height="786"
     inkscape:window-x="0"
     inkscape:window-y="25"
     inkscape:window-maximized="0"
     inkscape:current-layer="svg136" />
  <metadata
     id="metadata1">
    <rdf:RDF>
      <cc:Work>
        <dc:type
           rdf:resource="http://purl.org/dc/dcmitype/StillImage" />
        <dc:date>2024-05-17T17:36:11.322696</dc:date>
        <dc:format>image/svg+xml</dc:format>
        <dc:creator>
          <cc:Agent>
            <dc:title>Matplotlib v3.7.2, https://matplotlib.org/</dc:title>
          </cc:Agent>
        </dc:creator>
      </cc:Work>
    </rdf:RDF>
  </metadata>
  <defs
     id="defs1">
    <marker
       style="overflow:visible"
       id="ArrowWideRounded"
       refX="0"
       refY="0"
       orient="auto-start-reverse"
       inkscape:stockid="Wide, rounded arrow"
       markerWidth="1"
       markerHeight="1"
       viewBox="0 0 1 1"
       inkscape:isstock="true"
       inkscape:collect="always"
       preserveAspectRatio="xMidYMid">
      <path
         style="fill:none;stroke:context-stroke;stroke-width:1;stroke-linecap:round"
         d="M 3,-3 0,0 3,3"
         transform="rotate(180,0.125,0)"
         sodipodi:nodetypes="ccc"
         id="path137" />
    </marker>
    <style
       type="text/css"
       id="style1">*{stroke-linejoin: round; stroke-linecap: butt}</style>
    <marker
       style="overflow:visible"
       id="ArrowWideRounded-0"
       refX="0"
       refY="0"
       orient="auto-start-reverse"
       inkscape:stockid="Wide, rounded arrow"
       markerWidth="1"
       markerHeight="1"
       viewBox="0 0 1 1"
       inkscape:isstock="true"
       inkscape:collect="always"
       preserveAspectRatio="xMidYMid">
      <path
         style="fill:none;stroke:context-stroke;stroke-width:1;stroke-linecap:round"
         d="M 3,-3 0,0 3,3"
         transform="rotate(180,0.125,0)"
         sodipodi:nodetypes="ccc"
         id="path137-2" />
    </marker>
  </defs>
  <g
     id="axes_1"
     inkscape:export-filename="Na22.pdf"
     inkscape:export-xdpi="96"
     inkscape:export-ydpi="96"
     transform="translate(6.75)">
    <g
       id="patch_2">
      <path
         d="M 57.6,307.584 H 414.72 V 41.472 H 57.6 Z"
         style="fill:#ffffff"
         id="path2" />
    </g>
    <g
       id="matplotlib.axis_1">
      <g
         id="xtick_1">
        <g
           id="line2d_1">
          <defs
             id="defs2">
            <path
               id="m3df75267ba"
               d="M 0,0 V 3.5"
               style="stroke:#000000;stroke-width:0.8" />
          </defs>
          <g
             id="g2">
            <use
               xlink:href="#m3df75267ba"
               x="57.599998"
               y="307.58401"
               style="stroke:#000000;stroke-width:0.8"
               id="use2" />
          </g>
        </g>
        <g
           id="text_1">
          <!-- 0.0 -->
          <g
             transform="matrix(0.12,0,0,-0.12,48.058125,323.70213)"
             id="g5">
            <defs
               id="defs3">
              <path
                 id="DejaVuSans-30"
                 d="m 2034,4250 q -487,0 -733,-480 -245,-479 -245,-1442 0,-959 245,-1439 246,-480 733,-480 491,0 736,480 246,480 246,1439 0,963 -246,1442 -245,480 -736,480 z m 0,500 q 785,0 1199,-621 414,-620 414,-1801 0,-1178 -414,-1799 -414,-620 -1199,-620 -784,0 -1198,620 -414,621 -414,1799 0,1181 414,1801 414,621 1198,621 z"
                 transform="scale(0.015625)" />
              <path
                 id="DejaVuSans-2e"
                 d="m 684,794 h 660 V 0 H 684 Z"
                 transform="scale(0.015625)" />
            </defs>
            <use
               xlink:href="#DejaVuSans-30"
               id="use3" />
            <use
               xlink:href="#DejaVuSans-2e"
               x="63.623047"
               id="use4" />
            <use
               xlink:href="#DejaVuSans-30"
               x="95.410156"
               id="use5" />
          </g>
        </g>
      </g>
      <g
         id="xtick_2">
        <g
           id="line2d_2">
          <g
             id="g6">
            <use
               xlink:href="#m3df75267ba"
               x="105.216"
               y="307.58401"
               style="stroke:#000000;stroke-width:0.8"
               id="use6" />
          </g>
        </g>
        <g
           id="text_2">
          <!-- 0.2 -->
          <g
             transform="matrix(0.12,0,0,-0.12,95.674125,323.70213)"
             id="g9">
            <defs
               id="defs6">
              <path
                 id="DejaVuSans-32"
                 d="M 1228,531 H 3431 V 0 H 469 v 531 q 359,372 979,998 621,627 780,809 303,340 423,576 121,236 121,464 0,372 -261,606 -261,235 -680,235 -297,0 -627,-103 -329,-103 -704,-313 v 638 q 381,153 712,231 332,78 607,78 725,0 1156,-363 431,-362 431,-968 0,-288 -108,-546 -107,-257 -392,-607 -78,-91 -497,-524 Q 1991,1309 1228,531 Z"
                 transform="scale(0.015625)" />
            </defs>
            <use
               xlink:href="#DejaVuSans-30"
               id="use7" />
            <use
               xlink:href="#DejaVuSans-2e"
               x="63.623047"
               id="use8" />
            <use
               xlink:href="#DejaVuSans-32"
               x="95.410156"
               id="use9" />
          </g>
        </g>
      </g>
      <g
         id="xtick_3">
        <g
           id="line2d_3">
          <g
             id="g10">
            <use
               xlink:href="#m3df75267ba"
               x="152.832"
               y="307.58401"
               style="stroke:#000000;stroke-width:0.8"
               id="use10" />
          </g>
        </g>
        <g
           id="text_3">
          <!-- 0.4 -->
          <g
             transform="matrix(0.12,0,0,-0.12,143.29012,323.70213)"
             id="g13">
            <defs
               id="defs10">
              <path
                 id="DejaVuSans-34"
                 d="M 2419,4116 825,1625 h 1594 z m -166,550 h 794 V 1625 h 666 V 1100 H 3047 V 0 H 2419 V 1100 H 313 v 609 z"
                 transform="scale(0.015625)" />
            </defs>
            <use
               xlink:href="#DejaVuSans-30"
               id="use11" />
            <use
               xlink:href="#DejaVuSans-2e"
               x="63.623047"
               id="use12" />
            <use
               xlink:href="#DejaVuSans-34"
               x="95.410156"
               id="use13" />
          </g>
        </g>
      </g>
      <g
         id="xtick_4">
        <g
           id="line2d_4">
          <g
             id="g14">
            <use
               xlink:href="#m3df75267ba"
               x="200.448"
               y="307.58401"
               style="stroke:#000000;stroke-width:0.8"
               id="use14" />
          </g>
        </g>
        <g
           id="text_4">
          <!-- 0.6 -->
          <g
             transform="matrix(0.12,0,0,-0.12,190.90612,323.70213)"
             id="g17">
            <defs
               id="defs14">
              <path
                 id="DejaVuSans-36"
                 d="m 2113,2584 q -425,0 -674,-291 -248,-290 -248,-796 0,-503 248,-796 249,-292 674,-292 425,0 673,292 248,293 248,796 0,506 -248,796 -248,291 -673,291 z m 1253,1979 v -575 q -238,112 -480,171 -242,60 -480,60 -625,0 -955,-422 -329,-422 -376,-1275 184,272 462,417 279,145 613,145 703,0 1111,-427 408,-426 408,-1160 0,-719 -425,-1154 -425,-434 -1131,-434 -810,0 -1238,620 -428,621 -428,1799 0,1106 525,1764 525,658 1409,658 238,0 480,-47 242,-47 505,-140 z"
                 transform="scale(0.015625)" />
            </defs>
            <use
               xlink:href="#DejaVuSans-30"
               id="use15" />
            <use
               xlink:href="#DejaVuSans-2e"
               x="63.623047"
               id="use16" />
            <use
               xlink:href="#DejaVuSans-36"
               x="95.410156"
               id="use17" />
          </g>
        </g>
      </g>
      <g
         id="xtick_5">
        <g
           id="line2d_5">
          <g
             id="g18">
            <use
               xlink:href="#m3df75267ba"
               x="248.064"
               y="307.58401"
               style="stroke:#000000;stroke-width:0.8"
               id="use18" />
          </g>
        </g>
        <g
           id="text_5">
          <!-- 0.8 -->
          <g
             transform="matrix(0.12,0,0,-0.12,238.52212,323.70213)"
             id="g21">
            <defs
               id="defs18">
              <path
                 id="DejaVuSans-38"
                 d="m 2034,2216 q -450,0 -708,-241 -257,-241 -257,-662 0,-422 257,-663 258,-241 708,-241 450,0 709,242 260,243 260,662 0,421 -258,662 -257,241 -711,241 z m -631,268 q -406,100 -633,378 -226,279 -226,679 0,559 398,884 399,325 1092,325 697,0 1094,-325 397,-325 397,-884 0,-400 -227,-679 -226,-278 -629,-378 456,-106 710,-416 255,-309 255,-755 Q 3634,634 3220,271 2806,-91 2034,-91 1263,-91 848,271 434,634 434,1313 q 0,446 256,755 257,310 713,416 z m -231,997 q 0,-362 226,-565 227,-203 636,-203 407,0 636,203 230,203 230,565 0,363 -230,566 -229,203 -636,203 -409,0 -636,-203 -226,-203 -226,-566 z"
                 transform="scale(0.015625)" />
            </defs>
            <use
               xlink:href="#DejaVuSans-30"
               id="use19" />
            <use
               xlink:href="#DejaVuSans-2e"
               x="63.623047"
               id="use20" />
            <use
               xlink:href="#DejaVuSans-38"
               x="95.410156"
               id="use21" />
          </g>
        </g>
      </g>
      <g
         id="xtick_6">
        <g
           id="line2d_6">
          <g
             id="g22">
            <use
               xlink:href="#m3df75267ba"
               x="295.67999"
               y="307.58401"
               style="stroke:#000000;stroke-width:0.8"
               id="use22" />
          </g>
        </g>
        <g
           id="text_6">
          <!-- 1.0 -->
          <g
             transform="matrix(0.12,0,0,-0.12,286.13812,323.70213)"
             id="g25">
            <defs
               id="defs22">
              <path
                 id="DejaVuSans-31"
                 d="M 794,531 H 1825 V 4091 L 703,3866 v 575 l 1116,225 h 631 V 531 H 3481 V 0 H 794 Z"
                 transform="scale(0.015625)" />
            </defs>
            <use
               xlink:href="#DejaVuSans-31"
               id="use23" />
            <use
               xlink:href="#DejaVuSans-2e"
               x="63.623047"
               id="use24" />
            <use
               xlink:href="#DejaVuSans-30"
               x="95.410156"
               id="use25" />
          </g>
        </g>
      </g>
      <g
         id="xtick_7">
        <g
           id="line2d_7">
          <g
             id="g26">
            <use
               xlink:href="#m3df75267ba"
               x="343.29599"
               y="307.58401"
               style="stroke:#000000;stroke-width:0.8"
               id="use26" />
          </g>
        </g>
        <g
           id="text_7">
          <!-- 1.2 -->
          <g
             transform="matrix(0.12,0,0,-0.12,333.75412,323.70213)"
             id="g29">
            <use
               xlink:href="#DejaVuSans-31"
               id="use27" />
            <use
               xlink:href="#DejaVuSans-2e"
               x="63.623047"
               id="use28" />
            <use
               xlink:href="#DejaVuSans-32"
               x="95.410156"
               id="use29" />
          </g>
        </g>
      </g>
      <g
         id="xtick_8">
        <g
           id="line2d_8">
          <g
             id="g30">
            <use
               xlink:href="#m3df75267ba"
               x="390.91199"
               y="307.58401"
               style="stroke:#000000;stroke-width:0.8"
               id="use30" />
          </g>
        </g>
        <g
           id="text_8">
          <!-- 1.4 -->
          <g
             transform="matrix(0.12,0,0,-0.12,381.37012,323.70213)"
             id="g33">
            <use
               xlink:href="#DejaVuSans-31"
               id="use31" />
            <use
               xlink:href="#DejaVuSans-2e"
               x="63.623047"
               id="use32" />
            <use
               xlink:href="#DejaVuSans-34"
               x="95.410156"
               id="use33" />
          </g>
        </g>
      </g>
      <g
         id="text_9">
        <!-- Energy, MeV -->
        <g
           transform="matrix(0.12,0,0,-0.12,198.36562,339.31587)"
           id="g44">
          <defs
             id="defs33">
            <path
               id="DejaVuSans-45"
               d="M 628,4666 H 3578 V 4134 H 1259 V 2753 H 3481 V 2222 H 1259 V 531 H 3634 V 0 H 628 Z"
               transform="scale(0.015625)" />
            <path
               id="DejaVuSans-6e"
               d="M 3513,2113 V 0 h -575 v 2094 q 0,497 -194,743 -194,247 -581,247 -466,0 -735,-297 -269,-296 -269,-809 V 0 H 581 v 3500 h 578 v -544 q 207,316 486,472 280,156 646,156 603,0 912,-373 310,-373 310,-1098 z"
               transform="scale(0.015625)" />
            <path
               id="DejaVuSans-65"
               d="M 3597,1894 V 1613 H 953 q 38,-594 358,-905 320,-311 892,-311 331,0 642,81 311,81 618,244 V 178 Q 3153,47 2828,-22 2503,-91 2169,-91 1331,-91 842,396 353,884 353,1716 q 0,859 464,1363 464,505 1252,505 706,0 1117,-455 411,-454 411,-1235 z m -575,169 q -6,471 -264,752 -258,282 -683,282 -481,0 -770,-272 -289,-272 -333,-766 z"
               transform="scale(0.015625)" />
            <path
               id="DejaVuSans-72"
               d="m 2631,2963 q -97,56 -211,82 -114,27 -251,27 -488,0 -749,-317 -261,-317 -261,-911 V 0 H 581 v 3500 h 578 v -544 q 182,319 472,473 291,155 707,155 59,0 131,-8 72,-7 159,-23 z"
               transform="scale(0.015625)" />
            <path
               id="DejaVuSans-67"
               d="m 2906,1791 q 0,625 -258,968 -257,344 -723,344 -462,0 -720,-344 -258,-343 -258,-968 0,-622 258,-966 258,-344 720,-344 466,0 723,344 258,344 258,966 z M 3481,434 q 0,-893 -397,-1329 -396,-436 -1215,-436 -303,0 -572,45 -269,45 -522,139 v 559 q 253,-137 500,-202 247,-66 503,-66 566,0 847,295 281,295 281,892 V 616 Q 2728,306 2450,153 2172,0 1784,0 1141,0 747,490 353,981 353,1791 q 0,812 394,1302 394,491 1037,491 388,0 666,-153 278,-153 456,-462 v 531 h 575 z"
               transform="scale(0.015625)" />
            <path
               id="DejaVuSans-79"
               d="m 2059,-325 q -243,-625 -475,-815 -231,-191 -618,-191 H 506 v 481 h 338 q 237,0 368,113 132,112 291,531 L 1606,56 191,3500 H 800 L 1894,763 2988,3500 h 609 z"
               transform="scale(0.015625)" />
            <path
               id="DejaVuSans-2c"
               d="m 750,794 h 659 V 256 L 897,-744 H 494 L 750,256 Z"
               transform="scale(0.015625)" />
            <path
               id="DejaVuSans-20"
               transform="scale(0.015625)"
               d="" />
            <path
               id="DejaVuSans-4d"
               d="m 628,4666 h 941 L 2759,1491 3956,4666 h 941 V 0 H 4281 V 4097 L 3078,897 H 2444 L 1241,4097 V 0 H 628 Z"
               transform="scale(0.015625)" />
            <path
               id="DejaVuSans-56"
               d="M 1831,0 50,4666 H 709 L 2188,738 3669,4666 h 656 L 2547,0 Z"
               transform="scale(0.015625)" />
          </defs>
          <use
             xlink:href="#DejaVuSans-45"
             id="use34" />
          <use
             xlink:href="#DejaVuSans-6e"
             x="63.183594"
             id="use35" />
          <use
             xlink:href="#DejaVuSans-65"
             x="126.5625"
             id="use36" />
          <use
             xlink:href="#DejaVuSans-72"
             x="188.08594"
             id="use37" />
          <use
             xlink:href="#DejaVuSans-67"
             x="227.44922"
             id="use38" />
          <use
             xlink:href="#DejaVuSans-79"
             x="290.92578"
             id="use39" />
          <use
             xlink:href="#DejaVuSans-2c"
             x="350.10547"
             id="use40" />
          <use
             xlink:href="#DejaVuSans-20"
             x="381.89258"
             id="use41" />
          <use
             xlink:href="#DejaVuSans-4d"
             x="413.67969"
             id="use42" />
          <use
             xlink:href="#DejaVuSans-65"
             x="499.95898"
             id="use43" />
          <use
             xlink:href="#DejaVuSans-56"
             x="561.48242"
             id="use44" />
        </g>
      </g>
    </g>
    <g
       id="matplotlib.axis_2">
      <g
         id="ytick_1">
        <g
           id="line2d_9">
          <defs
             id="defs44">
            <path
               id="md54717535a"
               d="M 0,0 H -3.5"
               style="stroke:#000000;stroke-width:0.8" />
          </defs>
          <g
             id="g45">
            <use
               xlink:href="#md54717535a"
               x="57.599998"
               y="295.48801"
               style="stroke:#000000;stroke-width:0.8"
               id="use45" />
          </g>
        </g>
        <g
           id="text_10">
          <!-- 0 -->
          <g
             transform="matrix(0.12,0,0,-0.12,42.965,300.04706)"
             id="g46">
            <use
               xlink:href="#DejaVuSans-30"
               id="use46" />
          </g>
        </g>
      </g>
      <g
         id="ytick_2">
        <g
           id="line2d_10">
          <g
             id="g47">
            <use
               xlink:href="#md54717535a"
               x="57.599998"
               y="253.39885"
               style="stroke:#000000;stroke-width:0.8"
               id="use47" />
          </g>
        </g>
        <g
           id="text_11">
          <!-- 10000 -->
          <g
             transform="matrix(0.12,0,0,-0.12,12.425,257.95792)"
             id="g52">
            <use
               xlink:href="#DejaVuSans-31"
               id="use48" />
            <use
               xlink:href="#DejaVuSans-30"
               x="63.623047"
               id="use49" />
            <use
               xlink:href="#DejaVuSans-30"
               x="127.24609"
               id="use50" />
            <use
               xlink:href="#DejaVuSans-30"
               x="190.86914"
               id="use51" />
            <use
               xlink:href="#DejaVuSans-30"
               x="254.49219"
               id="use52" />
          </g>
        </g>
      </g>
      <g
         id="ytick_3">
        <g
           id="line2d_11">
          <g
             id="g53">
            <use
               xlink:href="#md54717535a"
               x="57.599998"
               y="211.30971"
               style="stroke:#000000;stroke-width:0.8"
               id="use53" />
          </g>
        </g>
        <g
           id="text_12">
          <!-- 20000 -->
          <g
             transform="matrix(0.12,0,0,-0.12,12.425,215.86877)"
             id="g58">
            <use
               xlink:href="#DejaVuSans-32"
               id="use54" />
            <use
               xlink:href="#DejaVuSans-30"
               x="63.623047"
               id="use55" />
            <use
               xlink:href="#DejaVuSans-30"
               x="127.24609"
               id="use56" />
            <use
               xlink:href="#DejaVuSans-30"
               x="190.86914"
               id="use57" />
            <use
               xlink:href="#DejaVuSans-30"
               x="254.49219"
               id="use58" />
          </g>
        </g>
      </g>
      <g
         id="ytick_4">
        <g
           id="line2d_12">
          <g
             id="g59">
            <use
               xlink:href="#md54717535a"
               x="57.599998"
               y="169.22057"
               style="stroke:#000000;stroke-width:0.8"
               id="use59" />
          </g>
        </g>
        <g
           id="text_13">
          <!-- 30000 -->
          <g
             transform="matrix(0.12,0,0,-0.12,12.425,173.77962)"
             id="g64">
            <defs
               id="defs59">
              <path
                 id="DejaVuSans-33"
                 d="m 2597,2516 q 453,-97 707,-404 255,-306 255,-756 0,-690 -475,-1069 -475,-378 -1350,-378 -293,0 -604,58 -311,58 -642,174 v 609 q 262,-153 574,-231 313,-78 654,-78 593,0 904,234 311,234 311,681 0,413 -289,645 -289,233 -804,233 h -544 v 519 h 569 q 465,0 712,186 247,186 247,536 0,359 -255,551 -254,193 -729,193 -260,0 -557,-57 -297,-56 -653,-174 v 562 q 360,100 674,150 314,50 592,50 719,0 1137,-327 419,-326 419,-882 0,-388 -222,-655 -222,-267 -631,-370 z"
                 transform="scale(0.015625)" />
            </defs>
            <use
               xlink:href="#DejaVuSans-33"
               id="use60" />
            <use
               xlink:href="#DejaVuSans-30"
               x="63.623047"
               id="use61" />
            <use
               xlink:href="#DejaVuSans-30"
               x="127.24609"
               id="use62" />
            <use
               xlink:href="#DejaVuSans-30"
               x="190.86914"
               id="use63" />
            <use
               xlink:href="#DejaVuSans-30"
               x="254.49219"
               id="use64" />
          </g>
        </g>
      </g>
      <g
         id="ytick_5">
        <g
           id="line2d_13">
          <g
             id="g65">
            <use
               xlink:href="#md54717535a"
               x="57.599998"
               y="127.13141"
               style="stroke:#000000;stroke-width:0.8"
               id="use65" />
          </g>
        </g>
        <g
           id="text_14">
          <!-- 40000 -->
          <g
             transform="matrix(0.12,0,0,-0.12,12.425,131.69047)"
             id="g70">
            <use
               xlink:href="#DejaVuSans-34"
               id="use66" />
            <use
               xlink:href="#DejaVuSans-30"
               x="63.623047"
               id="use67" />
            <use
               xlink:href="#DejaVuSans-30"
               x="127.24609"
               id="use68" />
            <use
               xlink:href="#DejaVuSans-30"
               x="190.86914"
               id="use69" />
            <use
               xlink:href="#DejaVuSans-30"
               x="254.49219"
               id="use70" />
          </g>
        </g>
      </g>
      <g
         id="ytick_6">
        <g
           id="line2d_14">
          <g
             id="g71">
            <use
               xlink:href="#md54717535a"
               x="57.599998"
               y="85.042267"
               style="stroke:#000000;stroke-width:0.8"
               id="use71" />
          </g>
        </g>
        <g
           id="text_15">
          <!-- 50000 -->
          <g
             transform="matrix(0.12,0,0,-0.12,12.425,89.601327)"
             id="g76">
            <defs
               id="defs71">
              <path
                 id="DejaVuSans-35"
                 d="M 691,4666 H 3169 V 4134 H 1269 V 2991 q 137,47 274,70 138,23 276,23 781,0 1237,-428 457,-428 457,-1159 Q 3513,744 3044,326 2575,-91 1722,-91 1428,-91 1123,-41 819,9 494,109 v 635 q 281,-153 581,-228 300,-75 634,-75 541,0 856,284 316,284 316,772 0,487 -316,771 -315,285 -856,285 -253,0 -505,-56 -251,-56 -513,-175 z"
                 transform="scale(0.015625)" />
            </defs>
            <use
               xlink:href="#DejaVuSans-35"
               id="use72" />
            <use
               xlink:href="#DejaVuSans-30"
               x="63.623047"
               id="use73" />
            <use
               xlink:href="#DejaVuSans-30"
               x="127.24609"
               id="use74" />
            <use
               xlink:href="#DejaVuSans-30"
               x="190.86914"
               id="use75" />
            <use
               xlink:href="#DejaVuSans-30"
               x="254.49219"
               id="use76" />
          </g>
        </g>
      </g>
      <g
         id="ytick_7">
        <g
           id="line2d_15">
          <g
             id="g77">
            <use
               xlink:href="#md54717535a"
               x="57.599998"
               y="42.953117"
               style="stroke:#000000;stroke-width:0.8"
               id="use77" />
          </g>
        </g>
        <g
           id="text_16">
          <!-- 60000 -->
          <g
             transform="matrix(0.12,0,0,-0.12,12.425,47.51218)"
             id="g82">
            <use
               xlink:href="#DejaVuSans-36"
               id="use78" />
            <use
               xlink:href="#DejaVuSans-30"
               x="63.623047"
               id="use79" />
            <use
               xlink:href="#DejaVuSans-30"
               x="127.24609"
               id="use80" />
            <use
               xlink:href="#DejaVuSans-30"
               x="190.86914"
               id="use81" />
            <use
               xlink:href="#DejaVuSans-30"
               x="254.49219"
               id="use82" />
          </g>
        </g>
      </g>
      <g
         id="text_17">
        <!-- Counts -->
        <g
           transform="matrix(0,-0.12,-0.12,0,5.929375,195.47175)"
           id="g88">
          <defs
             id="defs82">
            <path
               id="DejaVuSans-43"
               d="m 4122,4306 v -665 q -319,297 -680,443 -361,147 -767,147 -800,0 -1225,-489 -425,-489 -425,-1414 0,-922 425,-1411 425,-489 1225,-489 406,0 767,147 361,147 680,444 V 359 Q 3791,134 3420,21 3050,-91 2638,-91 1578,-91 968,557 359,1206 359,2328 q 0,1125 609,1773 610,649 1670,649 418,0 788,-111 371,-111 696,-333 z"
               transform="scale(0.015625)" />
            <path
               id="DejaVuSans-6f"
               d="m 1959,3097 q -462,0 -731,-361 -269,-361 -269,-989 0,-628 267,-989 268,-361 733,-361 460,0 728,362 269,363 269,988 0,622 -269,986 -268,364 -728,364 z m 0,487 q 750,0 1178,-488 429,-487 429,-1349 Q 3566,888 3137,398 2709,-91 1959,-91 1206,-91 779,398 353,888 353,1747 q 0,862 426,1349 427,488 1180,488 z"
               transform="scale(0.015625)" />
            <path
               id="DejaVuSans-75"
               d="m 544,1381 v 2119 h 575 V 1403 q 0,-497 193,-746 194,-248 582,-248 465,0 735,297 271,297 271,810 v 1984 h 575 V 0 H 2900 V 538 Q 2691,219 2414,64 2138,-91 1772,-91 1169,-91 856,284 544,659 544,1381 Z m 1447,2203 z"
               transform="scale(0.015625)" />
            <path
               id="DejaVuSans-74"
               d="M 1172,4494 V 3500 H 2356 V 3053 H 1172 V 1153 q 0,-428 117,-550 117,-122 477,-122 h 590 V 0 H 1766 Q 1100,0 847,248 594,497 594,1153 V 3053 H 172 v 447 h 422 v 994 z"
               transform="scale(0.015625)" />
            <path
               id="DejaVuSans-73"
               d="m 2834,3397 v -544 q -243,125 -506,187 -262,63 -544,63 -428,0 -642,-131 -214,-131 -214,-394 0,-200 153,-314 153,-114 616,-217 l 197,-44 q 612,-131 870,-370 258,-239 258,-667 0,-488 -386,-773 Q 2250,-91 1575,-91 1294,-91 989,-36 684,19 347,128 v 594 q 319,-166 628,-249 309,-82 613,-82 406,0 624,139 219,139 219,392 0,234 -158,359 -157,125 -692,241 l -200,47 q -534,112 -772,345 -237,233 -237,639 0,494 350,762 350,269 994,269 318,0 599,-47 282,-46 519,-140 z"
               transform="scale(0.015625)" />
          </defs>
          <use
             xlink:href="#DejaVuSans-43"
             id="use83" />
          <use
             xlink:href="#DejaVuSans-6f"
             x="69.824219"
             id="use84" />
          <use
             xlink:href="#DejaVuSans-75"
             x="131.00586"
             id="use85" />
          <use
             xlink:href="#DejaVuSans-6e"
             x="194.38477"
             id="use86" />
          <use
             xlink:href="#DejaVuSans-74"
             x="257.76367"
             id="use87" />
          <use
             xlink:href="#DejaVuSans-73"
             x="296.97266"
             id="use88" />
        </g>
      </g>
    </g>
    <g
       id="line2d_16">
      <path
         d="m 57.562483,295.488 2.798232,-0.0589 0.08883,-0.16835 h 0.08883 l 0.08883,-7.52975 h 0.08883 v -4.22154 l 0.08883,0.2357 h 0.08883 v -1.0859 l 0.08883,0.32408 0.177666,0.008 v -0.8039 l 0.08883,0.26937 0.177665,0.0884 v 0.10101 l 0.08883,-0.41668 0.177665,-0.0126 v 0.34092 l 0.08883,-0.0884 h 0.08883 l 0.08883,-0.55558 h 0.08883 v 0.58504 l 0.08883,-0.28621 h 0.08883 v 0.34934 l 0.08883,-0.29462 h 0.08883 v 0.17677 l 0.08883,-0.28199 h 0.08883 v 0.31146 l 0.08883,-0.282 h 0.08883 v -0.26516 l 0.08883,0.39563 h 0.08883 v 0.19361 l 0.08883,-0.08 h 0.08883 v -0.15572 l 0.08883,0.16835 h 0.08883 v -0.24832 l 0.08883,0.17256 h 0.08883 v -0.36617 l 0.08883,0.46719 h 0.08883 l 0.08883,-0.17257 h 0.08883 v 0.50086 l 0.08883,-0.18098 h 0.08883 v -0.1389 l 0.08883,0.1894 h 0.08883 l 0.08883,-0.43351 v 0.2862 h 0.08883 v -0.11364 l 0.08883,0.1894 h 0.08883 v 0.23991 l 0.08883,-0.2862 h 0.08883 v 0.12626 l 0.08883,-0.15152 h 0.08883 v -0.61029 l 0.08883,0.97226 h 0.08883 v -0.35776 l 0.08883,0.14731 h 0.08883 v -0.34934 l 0.08883,0.12627 0.177666,-0.0631 v -0.10523 l 0.08883,0.41248 h 0.08883 v -0.45878 l 0.08883,0.56821 0.177666,0.0505 v -0.37881 l 0.08883,0.008 h 0.08883 v -0.16415 l 0.08883,0.39564 0.355331,-0.10522 v 0.49665 l 0.08883,-0.82074 0.177665,0.0926 0.08883,0.41668 v -0.21045 h 0.08883 v 0.25254 l 0.08883,-0.3283 h 0.08883 l 0.08883,0.29884 h 0.08883 l 0.08883,-0.59767 h 0.08883 l 0.08883,0.61029 h 0.08883 v -0.39563 l 0.08883,0.44614 h 0.08883 v -0.42931 l 0.08883,0.15152 h 0.08883 l 0.08883,0.27779 h 0.08883 v -0.55137 l 0.08883,0.39143 0.177665,0.0758 0.08883,-0.33671 h 0.08883 l 0.08883,0.22307 h 0.08883 v 0.12206 l 0.08883,-0.008 0.177666,-0.0842 v -0.35355 l 0.08883,0.0252 h 0.08883 v 0.12627 l 0.08883,-0.61871 h 0.08883 v 0.61871 l 0.08883,-0.65659 h 0.08883 l 0.08883,0.87545 h 0.08883 v -0.44614 l 0.08883,0.0168 h 0.08883 l 0.08883,0.18519 h 0.08883 l 0.08883,-0.46719 h 0.08883 v -0.34934 l 0.08883,0.77865 h 0.08883 v -0.61871 l 0.08883,0.18099 0.177665,0.0168 v -0.44614 l 0.08883,0.45456 h 0.08883 v 0.5682 l 0.08883,-0.49665 0.177666,-0.0168 v -0.55979 l 0.08883,0.57662 h 0.08883 v -0.12206 l 0.08883,0.0926 0.444164,0.0421 v -0.55137 l 0.08883,0.58925 h 0.08883 v 0.12206 l 0.08883,-0.43773 h 0.08883 v 0.26937 l 0.08883,-0.42931 0.177665,-0.10943 0.08883,-1.21638 H 72.797 l 0.08883,-1.80562 h 0.08883 l 0.08883,-3.41343 h 0.08883 l 0.08883,-3.35451 h 0.08883 l 0.08883,-2.96728 h 0.08883 l 0.08883,-1.25005 h 0.08883 v -0.98909 l 0.08883,0.94279 h 0.08883 l 0.08883,3.85116 h 0.08883 l 0.08883,5.16013 h 0.08883 l 0.08883,3.5439 h 0.08883 l 0.08883,1.84772 h 0.08883 v -0.29463 l 0.08883,0.49666 h 0.08883 l 0.08883,0.55557 h 0.08883 v -0.3788 l 0.08883,0.24412 0.177666,-0.0379 v -0.18519 l 0.08883,0.0631 h 0.08883 l 0.08883,-0.55137 h 0.08883 l 0.08883,-1.2753 h 0.08883 l 0.08883,-1.87718 h 0.08883 l 0.08883,-2.1255 h 0.08883 v -0.31988 l 0.08883,0.08 h 0.08883 l 0.08883,1.12799 h 0.08883 l 0.08883,1.90243 h 0.08883 l 0.08883,0.87546 0.177665,0.0968 0.08883,1.1785 h 0.08883 v -0.27779 l 0.08883,1.03539 h 0.08883 v 0.34934 l 0.08883,-0.0926 0.177666,-0.0631 0.08883,0.3283 h 0.08883 v -0.36618 l 0.08883,0.69026 h 0.08883 l 0.08883,-0.45456 v 0.38301 h 0.08883 v -0.17677 l 0.08883,0.15152 h 0.08883 v -0.29041 l 0.08883,0.40826 0.177666,0.0716 v -0.42931 l 0.08883,0.29042 0.177665,-0.10523 v -0.45877 l 0.08883,0.24412 0.266498,0.0253 0.08883,0.35355 0.177665,-0.0126 v -0.31145 l 0.08883,0.48823 h 0.08883 v -0.44194 l 0.08883,0.31988 h 0.08883 L 79.814611,282.6 h 0.08883 v 0.11364 l 0.08883,-0.32829 h 0.08883 v 0.65659 l 0.08883,-0.0968 h 0.08883 v -0.58083 l 0.08883,0.0379 h 0.08883 v 0.28621 l 0.08883,-0.0337 0.177666,0.0884 v 0.10943 l 0.08883,-0.29463 h 0.08883 v 0.30725 l 0.08883,-0.4756 h 0.08883 v 0.44614 l 0.08883,-0.10522 h 0.08883 v -0.1431 l 0.08883,0.26516 0.177666,-0.0631 v -0.44193 l 0.08883,0.14731 0.355331,0.0337 0.08883,-0.22728 v 0.70289 l 0.177666,-0.0379 v -0.39985 l 0.08883,0.10522 h 0.08883 v 0.11785 l 0.08883,-0.39143 h 0.08883 v 0.21887 l 0.08883,-0.0295 h 0.08883 v 0.38722 l 0.08883,-0.12627 h 0.08883 l 0.08883,-0.20624 h 0.08883 l 0.08883,0.41248 v -0.1389 h 0.08883 v -0.48402 l 0.08883,0.20623 h 0.08883 v -0.20203 l 0.08883,0.6103 h 0.08883 v -0.87125 l 0.08883,0.85441 h 0.08883 l 0.08883,-0.59766 h 0.08883 v -0.23149 l 0.08883,0.26095 0.177666,-0.0253 v -0.21465 l 0.08883,0.21886 h 0.08883 v -0.14731 l 0.08883,0.282 h 0.08883 v -0.13469 l 0.08883,0.24412 0.177665,-0.008 0.08883,-0.41668 v 0.0631 h 0.08883 v 0.26096 l 0.08883,-0.65659 h 0.08883 l 0.08883,0.44193 0.177666,-0.0884 v 0.34092 l 0.08883,-0.40827 h 0.08883 v 0.43352 l 0.08883,-0.69447 h 0.08883 l 0.08883,0.37038 h 0.08883 v -0.18519 l 0.08883,0.12627 0.177665,0.0589 0.08883,-0.52611 h 0.08883 v 0.69447 l 0.08883,-0.18098 0.266498,-0.0926 v 0.26937 l 0.08883,-0.45456 h 0.08883 v 0.42089 l 0.08883,-0.3325 h 0.08883 v 0.21465 l 0.08883,-0.40405 h 0.08883 v 0.69026 l 0.08883,-0.33672 0.355331,-0.10101 v -0.0168 l 0.08883,0.0842 h 0.08883 v 0.11785 l 0.08883,-0.20623 0.177666,0.0631 v -0.3788 l 0.08883,0.32408 h 0.08883 v -0.19361 l 0.08883,0.34934 h 0.08883 v -0.2399 l 0.08883,0.10101 0.177665,-0.0337 v 0.2862 l 0.08883,-0.0421 h 0.08883 v -0.44614 l 0.08883,0.22728 0.266499,-0.0842 0.08883,0.24833 h 0.08883 l 0.08883,-0.28621 h 0.08883 l 0.08883,-0.12626 h 0.08883 v 0.19361 l 0.08883,-0.0379 0.177665,-0.0716 0.08883,-0.32829 0.177666,0.0589 0.08883,0.28621 0.355331,-0.0631 v 0.32408 l 0.08883,-0.0631 h 0.08883 v -0.50928 l 0.08883,0.60608 h 0.08883 v -0.34934 l 0.08883,0.0968 h 0.08883 v 0.37038 l 0.08883,-0.51769 h 0.08883 v 0.34513 l 0.08883,-0.564 h 0.08883 v 0.49245 l 0.08883,-0.45877 h 0.08883 v -0.34514 l 0.08883,0.75761 h 0.08883 v -0.51349 l 0.08883,0.59767 h 0.08883 v -0.46719 l 0.08883,0.31146 h 0.08883 l 0.08883,-0.42089 h 0.08883 v 0.28199 l 0.08883,-0.10522 0.266499,-0.0126 v -0.36196 l 0.08883,0.0168 h 0.08883 v 0.46719 l 0.08883,-0.32829 0.177665,-0.0716 v 0.27779 l 0.08883,-0.15152 h 0.08883 v 0.18519 l 0.08883,-0.22728 h 0.08883 v 0.11364 l 0.08883,-0.10522 h 0.08883 v 0.33251 l 0.08883,-0.58504 h 0.08883 v 0.46298 l 0.08883,-0.10102 h 0.08883 v -0.42931 l 0.08883,0.27779 h 0.08883 v 0.31146 l 0.08883,-0.16835 h 0.08883 v -0.37039 l 0.08883,0.0716 h 0.08883 l 0.08883,0.17257 h 0.08883 l 0.08883,-0.39143 h 0.08883 v 0.49665 l 0.08883,-0.25254 0.177666,0.10944 v 0.14731 l 0.08883,-0.30725 0.177665,-0.0253 v 0.38302 l 0.08883,-0.8502 0.177665,-0.08 v 0.37459 l 0.08883,-0.1431 h 0.08883 v -0.29463 l 0.08883,0.28621 h 0.08883 v -1.01856 l 0.08883,0.71131 0.177666,-0.0505 v -0.39143 l 0.08883,0.23991 h 0.08883 l 0.08883,-1.10694 h 0.08883 v 0.35354 l 0.08883,-0.2357 h 0.08883 v 0.26096 l 0.08883,-0.22728 h 0.08883 v 0.11784 l 0.08883,-0.26516 h 0.08883 l 0.08883,0.38301 h 0.08883 v -0.64396 l 0.08883,0.36618 0.266499,-0.0716 v -0.34934 l 0.08883,0.24412 h 0.08883 v 0.18519 l 0.08883,-0.50507 h 0.08883 v 0.45036 l 0.08883,-0.0337 h 0.08883 l 0.08883,0.44193 h 0.08883 v -0.26937 l 0.08883,0.29042 h 0.08883 v -0.50928 l 0.08883,0.34934 h 0.08883 v -0.35355 l 0.08883,0.42931 h 0.08883 v 0.29883 l 0.08883,-0.29041 h 0.08883 v 0.13468 l 0.08883,-0.21886 h 0.08883 v 0.15573 l 0.08883,-0.18519 h 0.08883 l 0.08883,0.56399 h 0.08884 v -0.23991 l 0.0888,0.36197 h 0.0888 v -0.58925 l 0.0888,0.27358 0.17767,-0.0884 v -0.0295 l 0.0888,0.29883 0.17767,-0.0505 v -0.20203 l 0.0888,0.25674 h 0.0888 v -0.24411 l 0.0888,0.6145 0.17766,-0.10943 v -0.68606 l 0.0888,0.70289 0.17767,-0.0421 0.0888,-0.40405 v 0.51769 h 0.0888 v -0.39984 l 0.0888,0.25674 0.17766,0.0673 v 0.0589 l 0.0888,-0.08 0.17766,0.0716 v -0.32409 l 0.0888,0.13469 h 0.0888 v 0.37038 l 0.0888,-0.63554 h 0.0888 v 0.53453 l 0.0888,-1.10695 h 0.0888 v 0.97647 l 0.0888,-0.2399 h 0.0888 v 0.6187 l 0.0888,-0.53453 0.17766,0.0631 v 0.0884 l 0.0888,-0.16414 h 0.0888 v 0.54295 l 0.0888,-0.0884 h 0.0888 l 0.0888,-0.1431 h 0.0888 v 0.32408 l 0.0888,-0.30725 h 0.0888 v -0.29462 l 0.0888,0.39564 h 0.0888 v 0.18519 l 0.0888,-0.63134 h 0.0888 l 0.0888,0.63976 h 0.0888 v -0.1852 l 0.0888,0.45877 h 0.0888 l 0.0888,-0.87966 h 0.0888 v 0.60188 l 0.0888,-0.24833 h 0.0888 v 0.17257 l 0.0888,-0.1389 h 0.0888 v 0.47982 l 0.0888,-0.84178 0.17766,0.0126 v 0.77023 l 0.0888,-0.71551 h 0.0888 v 0.38722 l 0.0888,-0.15573 h 0.0888 v 0.2862 l 0.0888,-0.39563 0.17766,0.021 0.0888,0.20203 h 0.0888 v 0.1431 l 0.0888,-0.58083 h 0.0888 l 0.0888,0.42089 h 0.0888 v 0.24833 l 0.0888,-0.26516 0.17767,0.0716 v -0.4714 l 0.0888,0.12206 h 0.0888 v -0.12627 l 0.0888,0.2357 h 0.0888 l 0.0888,-0.54295 h 0.0888 l 0.0888,0.63555 h 0.0888 v -0.69868 l 0.0888,0.38722 h 0.0888 v -0.38722 l 0.0888,0.26516 0.17766,0.0589 V 280.096 l 0.0888,0.21465 h 0.0888 v -0.4756 l 0.0888,0.48823 h 0.0888 v -0.23149 l 0.0888,0.24833 h 0.0888 l 0.0888,0.27357 h 0.0888 l 0.0888,-0.54295 h 0.0888 v 0.56821 l 0.0888,-0.17257 0.17767,-0.0168 v 0.45877 l 0.0888,-0.46719 0.17766,-0.10943 v 0.42931 l 0.0888,-0.64817 h 0.0888 v 0.47981 l 0.0888,-0.55978 h 0.0888 l 0.0888,0.8039 v -0.49244 h 0.0888 v 0.34513 l 0.0888,-0.18099 h 0.0888 v 0.38722 l 0.0888,-0.0126 h 0.0888 l 0.0888,-0.61871 h 0.0888 v 0.665 l 0.0888,-0.45877 0.2665,0.10102 v 0.16414 l 0.0888,-0.43351 h 0.0888 v 0.2399 l 0.0888,-0.56399 h 0.0888 v 1.01856 l 0.0888,-0.31567 h 0.0888 v -0.25675 l 0.0888,0.1894 h 0.0888 v -0.1431 l 0.0888,0.282 0.44417,0.0926 0.0888,-0.41248 0.17767,0.0463 v 0.19782 l 0.0888,-0.3325 h 0.0888 v 0.14731 l 0.0888,-0.0505 h 0.0888 v 0.44194 l 0.0888,-0.71131 h 0.0888 v 0.55558 l 0.0888,-0.0968 0.17766,0.0547 v 0.28199 l 0.0888,-0.44614 h 0.0888 l 0.0888,0.20624 v -0.43352 h 0.0888 l 0.0888,0.67342 h 0.0888 l 0.0888,-0.31146 h 0.0888 v 0.34934 l 0.0888,-0.0168 h 0.0888 l 0.0888,-0.29042 h 0.0888 l 0.0888,-0.43772 h 0.0888 v -0.15152 l 0.0888,0.5219 0.17767,0.0126 v 0.17677 l 0.0888,-0.11364 0.35533,0.0716 v -0.31987 l 0.0888,0.23149 h 0.0888 v 0.31146 l 0.0888,-0.55558 h 0.0888 v 0.4714 l 0.0888,-0.63134 h 0.0888 l 0.0888,0.79549 v -0.85442 h 0.0888 l 0.0888,0.60188 h 0.0888 l 0.0888,-0.74919 h 0.0888 l 0.0888,0.76603 h 0.0888 l 0.0888,-0.48403 h 0.0888 v -0.32409 l 0.0888,0.55558 h 0.0888 l 0.0888,-0.38301 h 0.0888 v 0.63976 l 0.0888,-0.28621 h 0.0888 v 0.50086 l 0.0888,-0.54295 h 0.0888 v 0.12627 l 0.0888,-0.0168 h 0.0888 v 0.20203 l 0.0888,-0.50928 h 0.0888 l 0.0888,0.31146 h 0.0888 v 0.49244 l 0.0888,-0.77865 h 0.0888 v 0.4714 l 0.0888,-0.34513 h 0.0888 v -0.12627 l 0.0888,0.12206 0.2665,0.0168 v 0.10101 l 0.0888,-0.18098 h 0.0888 v -0.12627 l 0.0888,0.13889 h 0.0888 v 0.33251 l 0.0888,-0.12627 0.17767,-0.0842 0.0888,0.51349 h 0.0888 l 0.0888,-0.41247 0.2665,0.0337 v 0.10522 l 0.0888,-0.29462 h 0.0888 l 0.0888,0.32408 h 0.0888 l 0.0888,-0.34934 h 0.0888 l 0.0888,-0.16835 v 0.59345 h 0.0888 v -0.19361 l 0.0888,0.39564 h 0.0888 v -1.08169 l 0.0888,0.58083 h 0.0888 v -0.19782 l 0.0888,0.49245 h 0.0888 v -0.54295 l 0.0888,0.25674 h 0.0888 v -0.72814 l 0.0888,0.98909 h 0.0888 v -0.5219 l 0.0888,0.49244 h 0.0888 l 0.0888,-0.87124 0.17767,-0.0589 v 0.5177 l 0.0888,-0.16836 h 0.0888 v 0.19782 l 0.0888,-0.4251 0.17767,0.10522 v 0.10943 l 0.0888,-0.13468 h 0.0888 v -0.17257 l 0.0888,0.0211 0.17766,0.0463 v 0.3283 l 0.0888,-0.50086 h 0.0888 v 0.38301 l 0.0888,-0.21045 h 0.0888 l 0.0888,0.48403 h 0.0888 v -0.14731 l 0.0888,0.21886 h 0.0888 v -0.88387 l 0.0888,0.20203 h 0.0888 v 0.15152 l 0.0888,-0.0758 h 0.0888 v -0.59346 l 0.0888,0.66922 h 0.0888 v -0.25254 l 0.0888,0.34934 h 0.0888 v -0.42931 l 0.0888,0.0716 h 0.0888 v 0.3788 l 0.0888,-0.46298 0.17766,-0.0758 v -0.10523 l 0.0888,0.50928 h 0.0888 v -0.26095 l 0.0888,0.0758 h 0.0888 l 0.0888,-0.48823 h 0.0888 v 0.48402 l 0.0888,-0.021 h 0.0888 v -0.54295 l 0.0888,0.22307 h 0.0888 v -0.31146 l 0.0888,0.13469 h 0.0888 v 0.18519 l 0.0888,-0.19361 0.35533,-0.0631 v 0.26096 l 0.0888,-0.37881 h 0.0888 l 0.0888,0.41248 v -0.26937 h 0.0888 v -0.42089 l 0.0888,0.26095 h 0.0888 v -0.34934 l 0.0888,0.65659 h 0.0888 l 0.0888,-0.50507 h 0.0888 l 0.0888,0.27779 h 0.0888 v 0.15994 l 0.0888,-0.0337 h 0.0888 l 0.0888,-0.64397 h 0.0888 v 0.21886 l 0.0888,-0.11364 0.35533,0.0337 0.0888,-0.72814 h 0.0888 v 0.53874 l 0.0888,-0.26937 0.17767,-0.0673 v 0.60188 l 0.0888,-0.70289 h 0.0888 l 0.0888,0.43772 v -0.21465 l 0.17766,-0.0547 v -0.21886 l 0.0888,0.0463 0.26649,0.0968 v -0.35355 l 0.0888,0.3283 h 0.0888 l 0.0888,0.45035 v -0.98488 h 0.0888 v 0.4714 l 0.0888,-0.26096 0.17766,0.0337 v 0.50507 l 0.0888,-0.63554 h 0.0888 v -0.1894 l 0.0888,0.69026 h 0.0888 v -0.26095 h 0.0888 l 0.26649,-0.0758 0.0888,-0.30305 h 0.0888 l 0.0888,0.20624 v -0.55558 h 0.0888 v 0.60609 l 0.0888,-0.17257 h 0.0888 v -0.57662 l 0.0888,0.51349 h 0.0888 l 0.0888,-0.52191 h 0.0888 v 0.5177 l 0.0888,-0.1431 h 0.0888 v -0.49245 l 0.0888,0.20203 0.2665,0.0505 v -0.26095 l 0.0888,0.25674 h 0.0888 v 0.32409 l 0.0888,-0.55137 h 0.0888 l 0.0888,-0.40406 v 0.7071 h 0.0888 v -0.32409 l 0.0888,0.38722 h 0.0888 l 0.0888,-1.02276 h 0.0888 v 0.12206 l 0.0888,-0.004 h 0.0888 v 0.24411 l 0.0888,-0.49665 h 0.0888 v 0.63555 l 0.0888,-0.44615 h 0.0888 l 0.0888,0.50086 h 0.0888 v -0.39563 l 0.0888,0.0842 h 0.0888 l 0.0888,-0.22307 h 0.0888 v -0.32829 l 0.0888,0.1894 0.17767,-0.0505 V 276.51 l 0.0888,-0.18519 0.17767,-0.10101 0.0888,-0.1894 h 0.0888 v 0.44614 l 0.0888,-0.27358 0.17767,0.0758 v 0.31988 l 0.0888,-0.28621 h 0.0888 l 0.0888,-0.2862 h 0.0888 l 0.0888,0.45456 v -0.0211 h 0.0888 v -0.35354 l 0.0888,0.58504 h 0.0888 v -0.32409 l 0.0888,0.28621 h 0.0888 v 0.53874 l 0.0888,-0.66501 0.17767,-0.0463 v -0.3283 l 0.0888,0.30725 h 0.0888 l 0.0888,1.00173 h 0.0888 v -0.27779 l 0.0888,0.282 h 0.0888 l 0.0888,0.39984 0.17766,-0.0758 v -0.0716 l 0.0888,0.282 h 0.0888 l 0.0888,0.82074 0.17766,0.0337 0.0888,0.87966 h 0.0888 l 0.0888,0.42089 h 0.0888 l 0.0888,0.94701 h 0.0888 l 0.0888,0.16835 v -0.11784 h 0.0888 v 0.35354 l 0.0888,-0.22728 h 0.0888 l 0.0888,1.06065 h 0.0888 l 0.0888,0.45877 h 0.0888 v -0.14731 l 0.0888,0.63134 h 0.0888 v 0.30304 l 0.0888,-0.40827 0.17767,-0.0126 0.0888,0.57662 h 0.0888 l 0.0888,-0.2357 h 0.0888 v 0.54716 l 0.0888,-0.0547 h 0.0888 v 0.50507 l 0.0888,-0.7071 h 0.0888 v 0.6608 l 0.0888,-0.0842 h 0.0888 v 0.22308 l 0.0888,-0.30304 h 0.0888 v 0.96805 l 0.0888,-0.48824 0.17767,-0.0547 0.0888,0.68184 h 0.0888 l 0.0888,-0.42089 0.17766,-0.0673 0.0888,0.54295 0.17767,0.0758 v -0.20203 l 0.0888,0.0716 h 0.0888 l 0.0888,0.22728 v -0.15994 h 0.0888 l 0.0888,0.42931 h 0.0888 l 0.0888,-0.43773 v 0.29463 h 0.0888 v 0.4251 l 0.0888,-0.24833 0.17767,-0.08 0.0888,-0.22728 v 0.0253 h 0.0888 v 0.4756 l 0.0888,-0.19361 0.2665,-0.0547 v 0.50507 l 0.0888,-0.004 0.17767,-0.0673 v -0.15994 l 0.0888,0.0547 h 0.0888 v 0.25675 l 0.0888,-0.0842 0.17767,0.0421 0.0888,-0.22728 v 0.31987 h 0.0888 v 0.21466 l 0.0888,-0.44194 h 0.0888 v 0.14731 l 0.0888,-0.021 h 0.0888 v 0.46719 l 0.0888,-0.004 0.17766,-0.0126 v -0.15573 l 0.0888,0.0716 h 0.0888 v 0.16414 l 0.0888,-0.17677 h 0.0888 v 0.16415 l 0.0888,-0.08 h 0.0888 l 0.0888,0.33671 v -0.42089 h 0.0888 v 0.31146 l 0.0888,-0.0716 h 0.0888 l 0.0888,0.29041 h 0.0888 v 0.47561 l 0.0888,-0.83337 h 0.0888 v 0.50087 l 0.0888,-0.16415 h 0.0888 v -0.12206 l 0.0888,0.17677 0.17767,0.008 v 0.21466 l 0.0888,-0.16836 0.17766,0.0379 v 0.34092 l 0.0888,-0.16415 0.53299,0.0337 v -0.39984 l 0.0888,0.34092 h 0.0888 l 0.0888,0.31146 0.17767,-0.004 0.0888,0.15994 h 0.17767 l 0.0888,0.29042 h 0.0888 l 0.0888,-0.32409 h 0.0888 v 0.29883 l 0.0888,-0.28621 h 0.0888 v 0.39985 l 0.0888,-0.0379 0.17767,0.0968 v 0.0758 l 0.0888,-0.39143 0.17767,0.08 0.0888,0.31988 0.17767,-0.0463 v -0.0884 l 0.0888,0.13048 0.17767,-0.008 v -0.31567 l 0.0888,0.46719 h 0.0888 v -0.16415 l 0.0888,0.38722 h 0.0888 v 0.18519 l 0.0888,-0.63554 h 0.0888 l 0.0888,0.49665 h 0.0888 v -0.12627 l 0.0888,0.25254 h 0.0888 v -0.58083 l 0.0888,0.29462 0.26649,-0.0295 v 0.36197 l 0.0888,-0.10523 h 0.0888 v 0.13469 l 0.0888,-0.23149 h 0.0888 v 0.23149 l 0.0888,-0.1894 0.2665,0.0716 0.0888,0.41247 v -0.15573 l 0.17766,0.0463 v 0.0758 l 0.0888,-0.0547 h 0.0888 v -0.19361 l 0.0888,0.22308 0.17767,-0.10943 v 0.38722 l 0.0888,-0.29042 h 0.0888 v -0.19782 l 0.0888,0.23991 h 0.0888 v 0.29462 l 0.0888,-0.19782 0.17767,0.10523 v 0.17256 l 0.0888,-0.14731 0.44416,0.0631 v 0.1389 l 0.0888,-0.29463 h 0.0888 v 0.4251 l 0.0888,-0.20202 0.44417,0.10101 0.0888,0.0421 v -0.1894 h 0.0888 l 0.0888,0.19782 h 0.0888 v 0.26937 l 0.0888,-0.11785 0.533,0.0758 v 0.13468 l 0.0888,-0.0968 h 0.0888 v 0.11785 l 0.0888,-0.0716 h 0.0888 v -0.15152 l 0.0888,0.12626 h 0.0888 v -0.17256 l 0.0888,0.12627 h 0.0888 v 0.19781 l 0.0888,-0.22728 h 0.0888 v 0.38301 l 0.0888,-0.08 0.26649,0.0589 0.0888,-0.27358 h 0.0888 v 0.23149 l 0.0888,-0.11785 0.17767,-0.0926 v 0.34513 l 0.0888,-0.0842 0.62183,-0.08 v -0.0673 l 0.0888,0.34934 0.17767,-0.0758 v -0.21887 l 0.0888,0.19782 h 0.0888 l 0.0888,-0.17677 0.17766,0.10943 v 0.24412 l 0.0888,-0.42511 0.17766,-0.0842 v 0.50928 l 0.0888,-0.21466 0.35533,-0.021 v 0.3788 l 0.0888,-0.17678 0.17766,-0.0926 v 0.27779 l 0.0888,-0.0168 h 0.0888 l 0.0888,-0.42089 h 0.0888 l 0.0888,0.63134 h 0.0888 l 0.0888,-0.39985 h 0.0888 v -0.15573 l 0.0888,0.10101 h 0.0888 v 0.13048 l 0.0888,-0.0968 h 0.0888 l 0.0888,0.29463 h 0.0888 v -0.31146 l 0.0888,0.0884 0.2665,-0.0758 v 0.1894 l 0.0888,-0.0505 0.2665,-0.0758 v 0.25253 l 0.0888,-0.2399 0.17766,0.008 v 0.19782 l 0.0888,-0.50086 h 0.0888 v 0.42089 l 0.0888,-0.008 h 0.0888 v -0.1852 l 0.0888,0.0337 0.26649,-0.0337 v 0.23991 l 0.0888,-0.10101 0.17766,-0.0968 v -0.0631 l 0.0888,0.11364 h 0.0888 v -0.18098 l 0.0888,0.2399 h 0.0888 l 0.0888,0.36197 h 0.0888 l 0.0888,-0.36617 0.44416,-0.0379 v 0.27778 l 0.0888,-0.18519 h 0.0888 v -0.18519 l 0.0888,0.61871 h 0.0888 v -0.46298 l 0.0888,0.1894 0.35533,0.0673 v -0.24411 l 0.0888,0.0379 h 0.0888 v 0.27358 l 0.0888,-0.14311 0.2665,0.0126 v 0.21045 l 0.0888,-0.14732 h 0.0888 v -0.25253 l 0.0888,0.0252 h 0.0888 v 0.27779 l 0.0888,-0.0926 0.17767,-0.0926 v 0.20623 l 0.0888,-0.12205 0.35533,0.004 v 0.26517 l 0.0888,-0.11364 h 0.0888 v -0.13469 l 0.0888,0.008 h 0.0888 v -0.30725 l 0.0888,0.28199 0.35533,-0.0421 0.0888,0.2862 h 0.0888 v -0.1431 l 0.0888,0.004 h 0.0888 l 0.0888,0.16835 v -0.27358 l 0.17766,0.004 0.0888,0.25254 h 0.0888 v -0.25675 l 0.0888,0.25675 h 0.0888 v -0.13469 l 0.0888,0.0505 0.44416,-0.0673 0.0888,0.25674 h 0.0888 v -0.35355 l 0.0888,0.43352 h 0.0888 v -0.29883 l 0.0888,0.18519 h 0.0888 v -0.26516 l 0.0888,0.13048 h 0.0888 v 0.11364 l 0.0888,-0.2357 h 0.0888 v 0.2862 l 0.0888,-0.26516 h 0.0888 l 0.0888,0.41247 v -0.38722 h 0.0888 v 0.17678 l 0.0888,-0.0253 0.35533,0.0547 v 0.0968 l 0.0888,-0.10523 h 0.0888 v 0.1894 l 0.0888,-0.3325 h 0.0888 l 0.0888,0.18519 0.35533,0.0968 v 0.0337 l 0.0888,-0.0252 h 0.0888 v -0.44615 l 0.0888,0.38722 0.35533,0.0295 v 0.14311 l 0.0888,-0.26096 h 0.0888 l 0.0888,0.31146 0.35533,-0.0337 v -0.21886 l 0.0888,0.2862 0.17766,-0.10101 v -0.17677 l 0.0888,0.021 h 0.0888 l 0.0888,0.27358 0.17767,-0.0716 v -0.26937 l 0.0888,0.0589 h 0.0888 l 0.0888,0.24412 h 0.0888 v -0.17256 l 0.0888,0.1431 0.17767,0.0968 v -0.2357 l 0.0888,0.0253 0.17767,0.0126 v 0.16415 l 0.0888,-0.0168 h 0.0888 l 0.0888,-0.39985 h 0.0888 l 0.0888,0.44194 h 0.0888 v -0.564 l 0.0888,0.30725 h 0.0888 l 0.0888,-0.282 h 0.0888 v 0.32409 l 0.0888,-0.31988 0.26649,-0.0168 v -0.22308 l 0.0888,0.26517 0.2665,-0.0926 0.0888,-0.26095 h 0.0888 l 0.0888,-0.34934 0.17767,-0.0505 0.0888,-0.49244 h 0.0888 v -0.19782 l 0.0888,0.021 h 0.0888 l 0.0888,-0.77865 h 0.0888 l 0.0888,-1.00172 h 0.0888 l 0.0888,-0.55557 h 0.0888 l 0.0888,-1.66673 h 0.0888 l 0.0888,-1.50259 h 0.0888 l 0.0888,-2.63899 h 0.0888 l 0.0888,-4.89917 h 0.0888 l 0.0888,-5.10963 h 0.0888 l 0.0888,-8.71666 h 0.0888 l 0.0888,-10.78745 h 0.0888 l 0.0888,-13.25808 h 0.0888 l 0.0888,-16.63784 h 0.0888 l 0.0888,-22.64817 h 0.0888 l 0.0888,-27.72412 h 0.0888 l 0.0888,-31.48689 h 0.0888 l 0.0888,-33.17888 h 0.0888 l 0.0888,-31.301693 h 0.0888 l 0.0888,-19.171607 h 0.0888 V 53.568 l 0.0888,2.352783 h 0.0888 l 0.0888,17.64798 h 0.0888 l 0.0888,36.335557 h 0.0888 l 0.0888,50.8016 h 0.0888 l 0.0888,47.99847 h 0.0888 l 0.0888,38.7178 h 0.0888 l 0.0888,23.48154 h 0.0888 l 0.0888,12.43734 h 0.0888 l 0.0888,5.65258 h 0.0888 l 0.0888,2.25176 h 0.0888 l 0.0888,0.98489 h 0.0888 v 0.31567 l 0.0888,-0.11785 h 0.0888 l 0.0888,0.47561 0.2665,0.10943 v 0.15573 l 0.0888,-0.10102 h 0.0888 v 0.16836 l 0.0888,-0.15152 0.88833,-0.004 v -0.19782 l 0.0888,0.39985 h 0.0888 v -0.15573 l 0.0888,0.0631 h 0.0888 v -0.12626 l 0.0888,0.0842 0.62183,-0.0295 v 0.2357 l 0.0888,-0.11785 h 0.0888 v -0.31146 l 0.0888,0.15994 h 0.0888 v 0.15152 l 0.0888,-0.0589 h 0.0888 v 0.11785 l 0.0888,-0.22308 h 0.0888 v 0.29884 l 0.0888,-0.24833 0.17767,-0.0463 v 0.18098 l 0.0888,-0.10943 0.35533,0.0674 v -0.25675 l 0.0888,0.23991 0.2665,0.08 v 0.0463 l 0.0888,-0.0379 h 0.0888 v -0.21045 l 0.0888,0.13048 0.2665,0.0252 v -0.15994 l 0.0888,0.18519 0.2665,-0.0884 v -0.14311 l 0.0888,0.0463 0.2665,0.0842 v 0.15152 l 0.0888,-0.19782 h 0.0888 v 0.15994 l 0.0888,-0.22728 0.17766,0.0758 v 0.14731 l 0.0888,-0.1431 0.17766,0.10101 0.0888,0.0547 h 0.0888 v 0.19782 l 0.0888,-0.32409 0.17766,-0.0337 v 0.22307 l 0.0888,-0.0968 0.17766,-0.0842 v -0.19361 l 0.0888,0.22307 0.26649,0.0295 v 0.12626 l 0.0888,-0.0673 0.17766,0.0547 0.0888,-0.16836 v 0.0421 l 0.17766,0.0126 0.0888,-0.17257 0.17767,0.0589 v 0.23149 l 0.0888,-0.0379 0.533,-0.0379 v -0.2862 h 0.0888 0.0888 l 0.0888,0.2357 0.26649,-0.0926 0.0888,-0.16836 v 0.0674 h 0.0888 l 0.0888,0.26937 h 0.0888 v -0.19782 l 0.0888,0.18519 0.17766,0.0716 v -0.34513 l 0.0888,0.24412 h 0.0888 v -0.14311 l 0.0888,0.10102 0.2665,0.004 v 0.15994 l 0.0888,-0.23991 h 0.0888 v 0.31988 l 0.0888,-0.34514 h 0.0888 l 0.0888,0.14311 0.2665,-0.0842 v -0.0673 l 0.0888,0.11364 0.17766,-0.0168 v 0.15573 l 0.0888,-0.1894 h 0.0888 l 0.0888,0.19782 h 0.0888 v -0.26095 l 0.0888,0.12627 0.17767,0.0547 v -0.27358 l 0.0888,0.0295 h 0.0888 v 0.13048 l 0.0888,-0.0842 h 0.0888 v 0.28621 l 0.0888,-0.10943 0.2665,-0.0673 v 0.23149 l 0.0888,-0.1894 h 0.0888 v -0.11785 l 0.0888,0.0842 0.44416,0.0758 v -0.19782 l 0.0888,0.18519 0.2665,-0.0926 0.0888,-0.0505 h 0.0888 v 0.14731 l 0.0888,-0.0463 0.533,-0.0716 v 0.1936 l 0.0888,-0.29883 h 0.0888 l 0.0888,0.22728 v -0.31146 h 0.0888 v 0.27779 l 0.0888,-0.15573 0.17767,0.10522 v 0.0463 l 0.0888,-0.1894 h 0.0888 v 0.29463 l 0.0888,-0.0884 0.62183,-0.0126 v -0.19782 l 0.0888,0.34513 h 0.0888 v -0.24411 l 0.0888,0.0547 h 0.0888 v -0.15994 l 0.0888,0.11365 h 0.0888 v 0.13889 l 0.0888,-0.0295 h 0.0888 v -0.14311 l 0.0888,0.0168 0.35533,-0.0505 v 0.19361 l 0.0888,-0.12626 0.26649,0.0463 v 0.13048 l 0.0888,-0.24833 0.17766,0.0126 v 0.1431 l 0.0888,-0.0884 0.2665,0.0126 v 0.13048 l 0.0888,-0.0253 0.17766,-0.0673 v -0.0505 l 0.0888,0.1431 0.7995,-0.0463 v -0.11785 l 0.0888,0.12627 0.2665,0.0589 0.0888,0.10102 0.17767,0.0126 v -0.27778 l 0.0888,0.26937 h 0.0888 v -0.25254 l 0.0888,0.20624 0.17766,-0.0758 v -0.21045 l 0.0888,0.15152 0.44417,-0.021 v 0.16415 l 0.0888,-0.17678 h 0.0888 v 0.1431 l 0.0888,-0.0463 0.62183,-0.008 v -0.29042 l 0.0888,0.23149 0.79949,-0.0168 v 0.1431 l 0.0888,-0.0168 0.35533,-0.0547 0.0888,-0.1894 h 0.0888 l 0.0888,0.41247 v -0.14731 l 0.26649,-0.10101 0.0888,-0.0842 v 0.08 l 0.17766,-0.0758 v 0.22728 l 0.0888,-0.12206 0.2665,-0.0421 v -0.1431 l 0.0888,0.34092 h 0.0888 l 0.0888,-0.22728 v 0.0716 l 0.17767,-0.10522 v -0.0505 l 0.0888,0.008 h 0.0888 l 0.0888,0.21465 v -0.13047 l 1.06599,0.0379 v -0.18099 l 0.0888,0.0421 0.17767,0.0505 v 0.10101 l 0.0888,-0.0926 0.17766,-0.008 v 0.21886 l 0.0888,-0.1431 h 0.0888 v 0.12206 h 0.0888 0.0888 l 0.0888,-0.3283 h 0.0888 v 0.30304 l 0.0888,-0.15993 0.62183,0.0168 v 0.22307 l 0.0888,-0.0295 0.17766,-0.0968 0.0888,-0.0842 v 0.08 l 1.066,0.0842 v -0.29463 l 0.0888,0.39143 h 0.0888 l 0.0888,-0.30304 h 0.0888 v 0.12206 l 0.0888,-0.22728 h 0.0888 v 0.27778 l 0.0888,-0.0547 0.35533,-0.0673 0.0888,0.20202 0.17767,-0.0505 0.0888,-0.22728 h 0.0888 v 0.12205 l 0.0888,-0.08 0.17767,0.0379 0.0888,0.2399 h 0.0888 l 0.0888,-0.15994 0.35533,-0.0168 0.0888,-0.24833 h 0.0888 l 0.0888,0.28621 0.17766,0.0253 v -0.18519 l 0.0888,0.17677 0.17766,0.0168 v -0.19782 l 0.0888,0.19361 0.17767,-0.0673 v -0.0505 l 0.0888,0.19782 h 0.0888 l 0.0888,-0.18519 h 0.0888 v -0.14731 l 0.0888,0.13468 0.35534,0.0421 v -0.23991 l 0.0888,0.0631 h 0.0888 l 0.0888,0.25674 h 0.0888 v -0.1431 l 0.0888,0.11785 h 0.17766 v -0.24412 l 0.0888,0.25674 h 0.0888 v 0.18099 l 0.0888,-0.282 h 0.0888 v -0.12206 l 0.0888,0.13889 0.2665,-0.10943 0.0888,-0.0842 v 0.22307 l 0.35533,-0.0253 v 0.14732 l 0.0888,-0.19782 0.35533,0.0337 v 0.17677 h 0.0888 0.0888 v -0.22307 l 0.0888,0.14731 0.17767,-0.0126 0.0888,-0.22729 0.17766,0.10102 0.0888,0.0505 1.15482,-0.08 v -0.0758 l 0.0888,0.21466 0.44416,-0.0252 0.0888,-0.23149 0.17767,0.0295 v 0.15573 l 0.0888,-0.22307 h 0.0888 v 0.23569 l 0.0888,-0.0505 h 0.0888 l 0.0888,0.16836 v -0.0884 h 0.0888 v -0.16415 l 0.0888,0.0673 0.44416,0.0379 0.0888,0.19361 h 0.0888 v -0.11364 l 0.0888,0.0884 h 0.0888 v -0.1894 l 0.0888,0.0463 0.17766,0.0126 v -0.19361 l 0.0888,0.15994 0.17767,-0.0547 v -0.0589 l 0.0888,0.20624 0.2665,-0.0463 v -0.18098 l 0.0888,0.1431 0.17767,0.08 0.0888,-0.20624 v 0.15152 l 0.2665,0.0211 v -0.27358 l 0.0888,0.0505 h 0.0888 v 0.31146 l 0.0888,-0.24412 0.2665,0.0295 v 0.22307 l 0.0888,-0.10101 0.35533,0.0463 v -0.23991 l 0.0888,0.24832 h 0.0888 v -0.13047 l 0.0888,0.021 1.24366,0.0547 v -0.29883 l 0.0888,0.26516 h 0.0888 v -0.13048 l 0.0888,0.26516 h 0.0888 v -0.31987 l 0.0888,0.26516 0.44416,-0.0631 v -0.08 l 0.0888,0.23149 h 0.0888 l 0.0888,-0.31146 0.44417,0.0126 0.0888,0.19782 h 0.0888 v 0.1431 l 0.0888,-0.36196 0.17767,0.0505 v 0.1894 l 0.0888,-0.22307 h 0.0888 v 0.27779 l 0.0888,-0.0505 0.44416,-0.008 v -0.1852 l 0.0888,0.13469 0.62183,-0.004 v -0.12206 l 0.0888,0.0421 0.71066,0.008 v 0.1431 l 0.0888,-0.21044 h 0.0888 l 0.0888,0.16414 h 0.0888 v 0.20203 l 0.0888,-0.37459 h 0.0888 l 0.0888,0.17256 h 0.0888 v -0.11364 l 0.0888,0.0547 h 0.0888 v -0.17678 l 0.0888,0.0884 h 0.0888 v 0.22307 l 0.0888,-0.19782 0.17766,0.0168 0.0888,0.22307 h 0.0888 v -0.23149 l 0.0888,0.11364 0.35533,-0.021 v -0.1431 l 0.0888,0.004 0.2665,0.0168 0.0888,0.20624 0.17767,-0.0379 0.0888,-0.14732 0.62183,0.0505 v 0.10943 l 0.0888,-0.15152 0.2665,-0.0421 0.0888,0.22729 v -0.26096 h 0.0888 v 0.17257 l 0.0888,-0.20624 0.17767,0.0842 v 0.0968 l 0.0888,-0.0758 0.53299,-0.0589 v 0.19782 l 0.0888,-0.0126 0.17766,0.0253 v -0.32829 l 0.0888,0.33671 0.44416,-0.0547 0.0888,-0.14731 0.17767,0.0547 v 0.10101 l 0.0888,-0.0673 0.35533,0.004 v -0.13889 l 0.0888,0.24832 h 0.0888 v -0.24412 l 0.0888,0.0421 h 0.0888 l 0.0888,0.16835 v -0.30304 h 0.0888 v 0.38722 l 0.0888,-0.10101 0.35533,-0.0126 v -0.10522 l 0.0888,0.0463 0.35534,0.0758 v 0.0589 l 0.0888,-0.24412 h 0.0888 v 0.12206 l 0.0888,-0.10101 h 0.0888 v 0.13047 l 0.0888,-0.004 h 0.0888 l 0.0888,-0.19361 0.2665,0.0253 0.0888,0.17256 0.35533,0.0505 v -0.19361 l 0.0888,0.0252 0.17766,-0.0926 v -0.10943 l 0.0888,0.25253 0.2665,0.0716 v -0.18519 h 0.0888 l 0.35533,-0.0379 0.0888,0.21465 v -0.19781 l 0.71066,0.0884 v 0.0295 l 0.0888,-0.20623 h 0.0888 l 0.0888,0.20623 h 0.0888 v -0.19361 l 0.0888,0.0758 0.35533,-0.0758 v 0.26517 l 0.0888,-0.16836 h 0.0888 v 0.12627 l 0.0888,-0.22308 h 0.0888 l 0.0888,0.21045 0.17767,0.0379 v -0.18098 l 0.0888,0.19782 0.17767,0.008 v -0.21044 l 0.0888,0.0842 0.17767,0.10522 v 0.008 l 0.0888,-0.14311 0.17766,0.0758 v 0.08 l 0.0888,-0.08 0.53299,0.0926 v 0.0968 l 0.0888,-0.21887 h 0.0888 v -0.21465 l 0.0888,0.35776 h 0.0888 v -0.21045 l 0.0888,0.0716 0.26649,-0.0379 v 0.27358 l 0.0888,-0.17256 0.44416,-0.0463 v -0.0673 l 0.0888,0.15152 0.2665,-0.10101 0.0888,-0.0421 v 0.0673 l 0.79949,0.008 v 0.10943 l 0.0888,-0.004 0.17767,-0.0842 0.0888,-0.10523 0.17767,0.008 v 0.15573 l 0.0888,-0.18098 h 0.44416 v 0.15994 l 0.0888,-0.0379 h 0.0888 v 0.1431 l 0.0888,-0.0631 h 0.0888 v -0.14731 l 0.0888,0.13468 0.17766,-0.0126 v -0.30304 l 0.0888,0.28621 0.17767,0.0379 v -0.31146 l 0.0888,0.1431 h 0.0888 v 0.11785 l 0.0888,-0.18098 0.17766,-0.0337 v 0.30725 l 0.0888,-0.10943 0.62183,-0.0842 0.0888,-0.0842 v 0.0505 l 0.533,0.0842 v 0.0589 l 0.0888,-0.15994 0.17766,0.0589 0.0888,0.12626 h 0.0888 v -0.21465 l 0.0888,0.18098 h 0.0888 v -0.12206 l 0.0888,0.008 0.17766,0.0379 0.0888,0.13048 h 0.0888 v -0.24412 l 0.0888,0.23991 h 0.0888 v -0.26096 l 0.0888,0.18941 h 0.0888 v -0.13048 l 0.0888,0.0842 0.2665,-0.0421 v -0.0884 l 0.0888,0.2357 h 0.0888 v -0.23149 l 0.0888,0.0631 0.79949,0.0547 v -0.17677 l 0.0888,0.13889 0.44416,-0.0421 v -0.15152 l 0.0888,0.31146 h 0.0888 l 0.0888,-0.26516 0.44416,-0.0253 v 0.38302 l 0.0888,-0.26937 h 0.0888 v 0.12205 l 0.0888,-0.10101 h 0.0888 v 0.14731 l 0.0888,-0.0758 0.26649,0.0253 v -0.16414 l 0.0888,0.08 0.62183,-0.0758 v 0.21886 l 0.0888,-0.15994 0.88833,0.0379 v 0.10102 l 0.0888,-0.24412 h 0.0888 v 0.11364 l 0.0888,-0.0337 0.2665,-0.0211 v 0.17257 l 0.0888,-0.0126 0.35533,0.0631 0.0888,-0.41247 v 0.20203 l 0.2665,0.0168 v -0.17257 l 0.0888,0.34092 h 0.0888 v -0.13048 l 0.0888,0.10523 h 0.0888 v -0.36197 l 0.0888,0.33251 0.17767,-0.0505 0.0888,-0.24833 h 0.0888 l 0.0888,0.21466 v -0.0295 h 0.0888 v -0.1852 l 0.0888,0.17257 0.2665,0.008 v 0.17677 l 0.0888,-0.37038 0.17767,0.0463 v 0.17678 l 0.0888,-0.0126 0.44416,-0.0842 v -0.0884 l 0.0888,0.1431 h 0.0888 v -0.19782 l 0.0888,0.22307 0.62183,0.10102 v -0.24833 l 0.0888,0.0926 0.53299,0.0968 v 0.15152 l 0.0888,-0.26095 0.35533,-0.0421 v -0.0716 l 0.0888,0.0842 0.17766,-0.0716 v -0.10523 l 0.0888,0.17257 h 0.0888 v -0.16415 l 0.0888,0.26937 0.35533,-0.0126 0.0888,-0.16415 0.17767,0.0842 0.0888,0.2862 h 0.0888 l 0.0888,-0.32408 0.62183,0.0758 0.0888,0.0421 v -0.0168 l 0.2665,-0.0253 v -0.1389 l 0.0888,0.13469 0.62183,-0.0842 v 0.29883 l 0.0888,-0.27358 0.35533,-0.004 v -0.10943 l 0.0888,0.0842 0.17766,0.008 v 0.14731 l 0.0888,-0.11785 0.26649,-0.008 v 0.19782 l 0.0888,-0.37459 h 0.0888 v 0.19361 l 0.0888,-0.0589 0.17767,0.10943 v -0.23569 l 0.0888,0.13468 0.44416,-0.0505 v 0.26938 l 0.0888,-0.17257 h 0.0888 v -0.18098 l 0.0888,0.0379 0.44417,-0.0589 v 0.3746 l 0.0888,-0.21045 h 0.0888 v -0.15573 l 0.0888,0.19361 h 0.0888 v -0.16415 l 0.0888,0.20203 h 0.0888 v -0.26937 l 0.0888,0.22728 h 0.0888 v -0.24833 l 0.0888,0.20203 1.15483,0.0716 0.0888,0.0421 v -0.21465 l 0.17767,0.008 v 0.12205 l 0.0888,-0.0716 0.533,-0.0842 v 0.20203 l 0.0888,-0.21044 0.2665,-0.0674 0.0888,0.24412 0.35533,-0.0631 v -0.1894 l 0.0888,0.22728 0.17767,0.0252 v -0.20203 l 0.0888,0.0505 0.2665,0.0631 v 0.10102 l 0.0888,-0.0379 h 0.0888 v -0.14731 l 0.0888,0.0421 h 0.0888 v 0.12206 l 0.0888,-0.26095 h 0.0888 l 0.0888,0.22728 h 0.0888 v -0.12627 l 0.0888,0.004 0.35533,0.10523 0.0888,-0.22729 v 0.21887 h 0.0888 l 0.0888,-0.16836 v 0.11364 l 0.17767,0.0758 v -0.3325 l 0.0888,0.33671 0.17767,0.10102 0.0888,-0.4251 h 0.0888 v 0.27778 l 0.0888,-0.0295 0.17767,0.0631 v -0.18098 h 0.0888 l 0.2665,0.0421 v 0.16415 l 0.0888,-0.21045 0.71067,0.10943 v 0.0505 l 0.0888,-0.0337 0.62183,0.0463 v -0.26937 l 0.0888,0.19782 h 0.0888 v -0.282 l 0.0888,0.282 h 0.0888 v -0.11364 l 0.0888,0.0252 0.17767,-0.0421 v -0.26095 l 0.0888,0.42931 h 0.0888 l 0.0888,-0.24412 0.26649,0.0463 v -0.1894 l 0.0888,0.17677 h 0.0888 l 0.0888,0.16836 v -0.19782 l 0.88833,0.0252 v -0.17256 l 0.0888,0.19782 0.35533,-0.0505 0.0888,0.19782 h 0.0888 v -0.21887 l 0.0888,0.0379 h 0.0888 v 0.15993 l 0.0888,-0.19361 0.2665,0.0631 0.0888,0.13468 h 0.0888 l 0.0888,-0.22728 0.17767,0.0547 v -0.31567 l 0.0888,0.38722 h 0.0888 v -0.19361 l 0.0888,0.13889 0.2665,-0.0379 v -0.15994 l 0.0888,0.0337 0.35533,0.10943 v 0.0168 l 0.0888,-0.21886 h 0.0888 v 0.282 l 0.0888,-0.15153 0.62183,0.0589 0.0888,0.0716 0.62183,0.0379 v -0.29041 l 0.0888,0.30304 h 0.0888 v -0.25675 l 0.0888,0.10523 0.44416,0.0547 v -0.28199 l 0.0888,0.29041 0.17767,-0.08 v -0.08 l 0.0888,0.10943 h 0.0888 l 0.0888,-0.20623 0.17766,0.0716 v 0.29041 l 0.0888,-0.26095 0.17766,-0.0589 v -0.0716 l 0.0888,0.13047 0.79949,-0.08 v -0.15994 l 0.0888,0.23991 0.35533,0.0211 v 0.10943 l 0.0888,-0.31988 0.17766,0.0884 v 0.0716 l 0.0888,-0.0252 0.2665,-0.0421 0.0888,-0.16836 v 0.282 l 0.17766,0.0463 v -0.16414 l 0.0888,0.0842 h 0.0888 v -0.30726 l 0.0888,0.15994 0.79949,-0.0842 v 0.26938 l 0.0888,-0.11785 0.26649,-0.004 v 0.13468 l 0.0888,-0.1431 h 0.0888 v -0.32409 l 0.0888,0.14311 h 0.0888 v 0.13047 l 0.0888,-0.0968 h 0.0888 l 0.0888,0.22728 v -0.39564 h 0.0888 l 0.0888,0.40406 v -0.11364 l 0.17766,0.0126 v 0.15573 l 0.0888,-0.22307 h 0.0888 l 0.0888,-0.16836 v 0.24412 l 0.2665,0.0842 0.0888,-0.25675 h 0.0888 v 0.11785 l 0.0888,-0.0589 0.2665,0.004 v -0.13469 h 0.0888 l 0.17767,0.0463 v 0.0926 l 0.0888,-0.0926 0.35533,0.0926 v 0.1431 l 0.0888,-0.43773 h 0.0888 v 0.42931 l 0.0888,-0.25253 h 0.0888 l 0.0888,-0.20624 v 0.1894 l 0.35533,0.0673 v -0.26095 l 0.0888,0.47561 h 0.0888 v -0.50928 l 0.0888,0.23149 0.17767,0.004 0.0888,-0.16836 v 0.16836 l 0.2665,-0.004 v -0.11364 l 0.0888,0.19782 0.17767,0.0168 v -0.36196 l 0.0888,0.5219 h 0.0888 l 0.0888,-0.3788 h 0.0888 v 0.25254 l 0.0888,-0.1852 0.35533,-0.0463 V 291.887 l 0.0888,0.24411 h 0.0888 V 291.902 l 0.0888,0.0631 h 0.0888 v 0.24832 l 0.0888,-0.48402 h 0.0888 l 0.0888,0.44193 h 0.0888 l 0.0888,-0.35775 h 0.0888 v 0.20202 l 0.0888,-0.0547 0.17767,0.10522 v -0.29883 l 0.0888,0.12206 h 0.0888 v 0.18098 l 0.0888,-0.21465 h 0.0888 l 0.0888,0.15152 0.35533,-0.0926 v -0.0926 l 0.0888,0.27357 0.17766,-0.0716 0.0888,-0.26095 0.35534,0.0968 v 0.34092 l 0.0888,-0.60609 h 0.0888 v 0.24833 l 0.0888,-0.33671 h 0.0888 l 0.0888,0.46719 h 0.0888 l 0.0888,-0.41248 h 0.0888 l 0.0888,0.282 0.17767,0.0631 v -0.27779 l 0.0888,0.14732 h 0.0888 v -0.14311 l 0.0888,0.15573 h 0.0888 l 0.0888,0.13469 h 0.0888 v -0.27358 l 0.0888,0.0295 0.2665,0.0842 v 0.0631 l 0.0888,-0.10943 0.35533,-0.0337 V 291.582 l 0.0888,0.19361 h 0.0888 v -0.29463 l 0.0888,0.28621 h 0.0888 v -0.13048 l 0.0888,0.0716 0.17767,0.0379 v -0.25675 l 0.0888,0.26095 h 0.0888 v 0.14732 l 0.0888,-0.3746 0.17767,-0.10101 v 0.27358 l 0.0888,-0.008 h 0.0888 l 0.0888,-0.27358 h 0.0888 v 0.282 l 0.0888,-0.24833 0.17767,0.0674 v 0.0463 l 0.0888,-0.15573 h 0.0888 v 0.34093 l 0.0888,-0.37039 0.17766,-0.0716 0.0888,0.27358 h 0.0888 l 0.0888,-0.20203 h 0.0888 v 0.28621 l 0.0888,-0.0758 h 0.0888 v -0.21045 l 0.0888,0.004 0.17767,0.0252 v -0.13889 l 0.0888,0.23149 0.2665,0.0379 v -0.17678 l 0.0888,0.0505 h 0.0888 v 0.1431 l 0.0888,-0.10522 0.2665,-0.0337 v -0.11785 l 0.0888,0.33671 h 0.0888 v -0.25674 l 0.0888,0.13048 h 0.0888 v -0.18099 l 0.0888,0.0253 0.17766,0.0589 v 0.13048 l 0.0888,-0.24833 h 0.0888 v -0.25674 l 0.0888,0.16835 h 0.0888 v 0.21466 l 0.0888,-0.15573 0.17766,0.0716 v -0.1894 l 0.0888,0.11785 0.35533,0.021 v -0.19782 l 0.0888,0.31988 h 0.0888 v -0.1431 l 0.0888,0.0968 h 0.0888 l 0.0888,-0.37038 h 0.0888 v 0.39143 l 0.0888,-0.22728 h 0.0888 v 0.24832 l 0.0888,-0.21886 h 0.0888 v 0.22307 l 0.0888,-0.15152 0.17766,-0.0716 v 0.21465 l 0.0888,-0.18519 0.17766,0.0295 v -0.15573 l 0.0888,0.25254 h 0.0888 v 0.20203 l 0.0888,-0.16836 0.2665,-0.0463 v -0.11785 l 0.0888,0.0295 0.17767,0.0631 V 291.115 l 0.0888,0.0673 0.17767,0.10943 v -0.31146 l 0.0888,0.12627 0.17766,-0.0758 v 0.22307 l 0.0888,-0.19361 h 0.0888 v 0.12627 l 0.0888,-0.18098 0.17767,0.008 v -0.20623 l 0.0888,0.21044 0.17766,0.08 v 0.17678 l 0.0888,-0.15153 0.2665,0.0421 0.0888,0.26938 h 0.0888 l 0.0888,-0.22729 v 0 h 0.0888 v -0.21044 l 0.0888,0.16835 0.2665,-0.0842 v 0.26937 l 0.0888,-0.31146 0.17767,-0.004 v 0.50507 l 0.0888,-0.12627 0.35533,-0.0631 v -0.14732 l 0.0888,0.17678 h 0.0888 v -0.20203 l 0.0888,0.47561 h 0.0888 v -0.21466 l 0.0888,0.22729 h 0.0888 v -0.31567 l 0.0888,0.23991 0.17766,0.0126 v 0.18519 l 0.0888,-0.31146 h 0.0888 l 0.0888,0.38302 0.35533,-0.0673 v 0.27358 l 0.0888,-0.11364 0.17766,0.0337 v -0.29041 l 0.0888,0.21465 h 0.17767 v -0.13889 l 0.0888,0.48823 0.2665,-0.008 v 0.13889 l 0.0888,-0.282 h 0.0888 l 0.0888,0.21466 v -0.17257 h 0.0888 l 0.0888,0.27358 0.35533,0.08 0.0888,0.0505 h 0.0888 l 0.0888,0.26937 0.17766,-0.0716 v -0.21886 l 0.0888,0.33251 0.35533,-0.0589 v -0.0926 l 0.0888,0.1389 h 0.0888 v 0.12627 l 0.0888,-0.32409 h 0.0888 v 0.2357 l 0.0888,-0.0252 h 0.0888 l 0.0888,0.29462 h 0.0888 l 0.0888,-0.20203 0.44416,0.0673 0.0888,0.23149 h 0.0888 l 0.0888,-0.29462 h 0.0888 v 0.1431 l 0.0888,-0.11785 0.17766,-0.10522 v 0.26096 l 0.0888,-0.0211 h 0.17767 v 0.1431 l 0.0888,-0.25253 0.2665,0.0631 v 0.14731 l 0.0888,-0.0968 0.35534,0.0337 v 0.27779 l 0.0888,-0.12206 0.17766,0.0379 v -0.21886 l 0.0888,0.20202 0.17766,-0.0926 v -0.0758 l 0.0888,0.0631 0.17766,0.0968 v 0.0379 l 0.0888,-0.15994 h 0.0888 v 0.32829 l 0.0888,-0.13889 h 0.0888 v -0.17677 l 0.0888,0.15573 0.35533,-0.0968 v 0.23149 l 0.0888,-0.0589 h 0.0888 l 0.0888,-0.15994 h 0.0888 v 0.18098 l 0.0888,-0.17677 0.2665,-0.0463 0.0888,0.22307 0.35533,-0.0884 v -0.0463 l 0.0888,0.14311 0.88833,0.0968 0.0888,0.0547 0.2665,-0.0295 v -0.14311 l 0.0888,0.0631 0.53299,0.0631 v 0.12627 l 0.0888,-0.13469 0.62183,0.0379 v 0.1894 l 0.0888,-0.0926 1.15482,0.0421 v -0.20203 l 0.0888,0.12206 h 0.0888 v 0.13468 l 0.0888,-0.0168 0.2665,-0.004 v -0.15573 l 0.0888,0.11785 0.71066,-0.0505 0.0888,0.20203 0.44416,-0.008 v -0.1431 l 0.0888,0.12206 0.88833,-0.0589 v -0.0547 l 0.0888,0.21465 0.17767,-0.10522 v -0.0589 l 0.0888,0.12206 0.533,0.0842 v 0.12627 l 0.0888,-0.19361 0.35533,0.0716 v 0.11785 l 0.0888,-0.14311 h 0.0888 v 0.24412 l 0.0888,-0.18519 0.44416,0.0337 v -0.15994 l 0.0888,0.21887 0.17766,-0.0168 v -0.17256 l 0.0888,0.21465 0.35534,-0.0253 v 0.15573 l 0.0888,-0.08 h 0.0888 v -0.11785 l 0.0888,0.0631 0.88833,0.0252 v 0.0926 h 0.0888 l 0.71067,0.0758 0.0888,0.0421 v -0.0547 l 0.88833,0.0716 v 0.0505 l 0.0888,-0.0126 1.06599,-0.0211 v 0.13469 l 0.0888,-0.0547 0.44417,-0.0252 v 0.20203 l 0.0888,-0.0968 0.533,0.0547 v 0.08 l 0.0888,-0.1431 0.35533,0.0884 0.0888,0.13468 h 0.0888 v -0.19361 l 0.0888,0.11785 h 0.0888 v -0.17677 l 0.0888,0.23149 0.2665,0.0463 0.0888,-0.22728 v 0.13889 l 1.42132,0.0716 v 0.0505 l 0.0888,-0.0252 1.77666,0.0421 v 0.10944 l 0.0888,-0.0589 2.22082,-0.08 0.0888,0.22728 v -0.0463 l 1.15483,-0.008 v 0.12206 l 0.0888,-0.0547 6.84012,0.0758 v 0.0716 l 0.0888,-0.0884 4.3528,-0.08 v -0.0379 l 0.0888,0.0253 0.2665,0.0337 v 0.0884 l 0.0888,-0.11364 1.24366,-0.0211 v -0.10943 l 0.0888,0.0673 0.35533,-0.0673 0.0888,-0.0968 0.71066,0.008 v -0.15993 l 0.0888,0.08 0.26649,-0.0758 v -0.0884 l 0.0888,0.08 0.17766,-0.0211 v -0.10943 l 0.0888,0.0547 0.17767,-0.10944 0.0888,-0.12626 0.35533,-0.0631 0.0888,-0.18098 h 0.0888 l 0.0888,-0.13469 h 0.0888 l 0.0888,-0.41247 h 0.0888 V 293.413 l 0.0888,0.0211 0.17767,-0.10522 0.0888,-0.41248 0.17767,-0.0379 0.0888,-0.45456 h 0.0888 l 0.0888,-0.59346 0.17767,0.004 0.0888,-0.2862 h 0.0888 l 0.0888,-0.90071 h 0.0888 l 0.0888,-0.59767 h 0.0888 l 0.0888,-0.7113 h 0.0888 l 0.0888,-0.63555 h 0.0888 l 0.0888,-0.81232 h 0.0888 l 0.0888,-0.84178 h 0.0888 l 0.0888,-1.11116 h 0.0888 l 0.0888,-0.66501 h 0.0888 l 0.0888,-1.5615 h 0.0888 l 0.0888,-1.23321 h 0.0888 l 0.0888,-1.61623 h 0.0888 l 0.0888,-2.55902 h 0.0888 l 0.0888,-2.02449 h 0.0888 l 0.0888,-2.38645 h 0.0888 l 0.0888,-2.42434 h 0.0888 l 0.0888,-1.6541 h 0.0888 l 0.0888,-0.85441 h 0.0888 v -0.71131 l 0.0888,0.31146 h 0.0888 l 0.0888,-0.79127 h 0.0888 v -1.25426 l 0.0888,0.62713 h 0.0888 v -0.36197 l 0.0888,0.37881 h 0.0888 v -0.42931 l 0.0888,0.11784 h 0.0888 l 0.0888,0.54295 h 0.0888 l 0.0888,1.97399 h 0.0888 l 0.0888,3.80485 h 0.0888 l 0.0888,5.27377 h 0.0888 l 0.0888,6.03559 h 0.0888 l 0.0888,4.56246 h 0.0888 l 0.0888,2.87469 h 0.0888 l 0.0888,1.77616 h 0.0888 l 0.0888,1.01435 h 0.0888 l 0.0888,0.32409 h 0.0888 l 0.0888,0.22728 0.2665,0.0926 0.0888,0.0716 51.21208,0.0337 v 0"
         clip-path="url(#p383ceadce0)"
         style="fill:none;stroke:#1f77b4;stroke-width:1.5;stroke-linecap:square"
         id="path88" />
    </g>
    <g
       id="patch_3">
      <path
         d="M 57.6,307.584 V 41.472"
         style="fill:none;stroke:#000000;stroke-width:0.8;stroke-linecap:square;stroke-linejoin:miter"
         id="path89" />
    </g>
    <g
       id="patch_4">
      <path
         d="M 414.72,307.584 V 41.472"
         style="fill:none;stroke:#000000;stroke-width:0.8;stroke-linecap:square;stroke-linejoin:miter"
         id="path90" />
    </g>
    <g
       id="patch_5">
      <path
         d="M 57.6,307.584 H 414.72"
         style="fill:none;stroke:#000000;stroke-width:0.8;stroke-linecap:square;stroke-linejoin:miter"
         id="path91" />
    </g>
    <g
       id="patch_6">
      <path
         d="M 57.6,41.472 H 414.72"
         style="fill:none;stroke:#000000;stroke-width:0.8;stroke-linecap:square;stroke-linejoin:miter"
         id="path92" />
    </g>
    <g
       id="text_18">
      <!-- Calibrated Na22, Semiconductor -->
      <g
         transform="matrix(0.12,0,0,-0.12,138.44719,35.472)"
         id="g121">
        <defs
           id="defs92">
          <path
             id="DejaVuSans-61"
             d="m 2194,1759 q -697,0 -966,-159 -269,-159 -269,-544 0,-306 202,-486 202,-179 548,-179 479,0 768,339 289,339 289,901 v 128 z m 1147,238 V 0 H 2766 V 531 Q 2569,213 2275,61 1981,-91 1556,-91 q -537,0 -855,302 -317,302 -317,808 0,590 395,890 396,300 1180,300 h 807 v 57 q 0,397 -261,614 -261,217 -733,217 -300,0 -585,-72 -284,-72 -546,-216 v 532 q 315,122 612,182 297,61 578,61 760,0 1135,-394 375,-393 375,-1193 z"
             transform="scale(0.015625)" />
          <path
             id="DejaVuSans-6c"
             d="m 603,4863 h 575 V 0 H 603 Z"
             transform="scale(0.015625)" />
          <path
             id="DejaVuSans-69"
             d="m 603,3500 h 575 V 0 H 603 Z m 0,1363 h 575 V 4134 H 603 Z"
             transform="scale(0.015625)" />
          <path
             id="DejaVuSans-62"
             d="m 3116,1747 q 0,634 -261,995 -261,361 -717,361 -457,0 -718,-361 -261,-361 -261,-995 0,-634 261,-995 261,-361 718,-361 456,0 717,361 261,361 261,995 z M 1159,2969 q 182,312 458,463 277,152 661,152 638,0 1036,-506 399,-506 399,-1331 Q 3713,922 3314,415 2916,-91 2278,-91 1894,-91 1617,61 1341,213 1159,525 V 0 H 581 v 4863 h 578 z"
             transform="scale(0.015625)" />
          <path
             id="DejaVuSans-64"
             d="m 2906,2969 v 1894 h 575 V 0 H 2906 V 525 Q 2725,213 2448,61 2172,-91 1784,-91 1150,-91 751,415 353,922 353,1747 q 0,825 398,1331 399,506 1033,506 388,0 664,-152 277,-151 458,-463 z M 947,1747 q 0,-634 261,-995 261,-361 717,-361 456,0 718,361 263,361 263,995 0,634 -263,995 -262,361 -718,361 -456,0 -717,-361 -261,-361 -261,-995 z"
             transform="scale(0.015625)" />
          <path
             id="DejaVuSans-4e"
             d="m 628,4666 h 850 L 3547,763 v 3903 h 612 V 0 H 3309 L 1241,3903 V 0 H 628 Z"
             transform="scale(0.015625)" />
          <path
             id="DejaVuSans-53"
             d="m 3425,4513 v -616 q -359,172 -678,256 -319,85 -616,85 -515,0 -795,-200 -280,-200 -280,-569 0,-310 186,-468 186,-157 705,-254 l 381,-78 q 706,-135 1042,-474 336,-339 336,-907 0,-679 -455,-1029 -454,-350 -1332,-350 -331,0 -705,75 -373,75 -773,222 v 650 q 384,-215 753,-325 369,-109 725,-109 540,0 834,212 294,213 294,607 0,343 -211,537 -211,194 -692,291 l -385,75 q -706,140 -1022,440 -315,300 -315,835 0,619 436,975 436,356 1201,356 329,0 669,-60 341,-59 697,-177 z"
             transform="scale(0.015625)" />
          <path
             id="DejaVuSans-6d"
             d="m 3328,2828 q 216,388 516,572 300,184 706,184 547,0 844,-383 297,-382 297,-1088 V 0 h -578 v 2094 q 0,503 -179,746 -178,244 -543,244 -447,0 -707,-297 -259,-296 -259,-809 V 0 h -578 v 2094 q 0,506 -178,748 -178,242 -550,242 -441,0 -701,-298 -259,-298 -259,-808 V 0 H 581 v 3500 h 578 v -544 q 197,322 472,475 275,153 653,153 382,0 649,-194 267,-193 395,-562 z"
             transform="scale(0.015625)" />
          <path
             id="DejaVuSans-63"
             d="m 3122,3366 v -538 q -244,135 -489,202 -245,67 -495,67 -560,0 -870,-355 -309,-354 -309,-995 0,-641 309,-996 310,-354 870,-354 250,0 495,67 245,67 489,202 V 134 Q 2881,22 2623,-34 2366,-91 2075,-91 1284,-91 818,406 353,903 353,1747 q 0,856 470,1346 471,491 1290,491 265,0 518,-55 253,-54 491,-163 z"
             transform="scale(0.015625)" />
        </defs>
        <use
           xlink:href="#DejaVuSans-43"
           id="use92" />
        <use
           xlink:href="#DejaVuSans-61"
           x="69.824219"
           id="use93" />
        <use
           xlink:href="#DejaVuSans-6c"
           x="131.10352"
           id="use94" />
        <use
           xlink:href="#DejaVuSans-69"
           x="158.88672"
           id="use95" />
        <use
           xlink:href="#DejaVuSans-62"
           x="186.66992"
           id="use96" />
        <use
           xlink:href="#DejaVuSans-72"
           x="250.14648"
           id="use97" />
        <use
           xlink:href="#DejaVuSans-61"
           x="291.25977"
           id="use98" />
        <use
           xlink:href="#DejaVuSans-74"
           x="352.53906"
           id="use99" />
        <use
           xlink:href="#DejaVuSans-65"
           x="391.74805"
           id="use100" />
        <use
           xlink:href="#DejaVuSans-64"
           x="453.27148"
           id="use101" />
        <use
           xlink:href="#DejaVuSans-20"
           x="516.74805"
           id="use102" />
        <use
           xlink:href="#DejaVuSans-4e"
           x="548.53516"
           id="use103" />
        <use
           xlink:href="#DejaVuSans-61"
           x="623.33984"
           id="use104" />
        <use
           xlink:href="#DejaVuSans-32"
           x="684.61914"
           id="use105" />
        <use
           xlink:href="#DejaVuSans-32"
           x="748.24219"
           id="use106" />
        <use
           xlink:href="#DejaVuSans-2c"
           x="811.86523"
           id="use107" />
        <use
           xlink:href="#DejaVuSans-20"
           x="843.65234"
           id="use108" />
        <use
           xlink:href="#DejaVuSans-53"
           x="875.43945"
           id="use109" />
        <use
           xlink:href="#DejaVuSans-65"
           x="938.91602"
           id="use110" />
        <use
           xlink:href="#DejaVuSans-6d"
           x="1000.4395"
           id="use111" />
        <use
           xlink:href="#DejaVuSans-69"
           x="1097.8516"
           id="use112" />
        <use
           xlink:href="#DejaVuSans-63"
           x="1125.6348"
           id="use113" />
        <use
           xlink:href="#DejaVuSans-6f"
           x="1180.6152"
           id="use114" />
        <use
           xlink:href="#DejaVuSans-6e"
           x="1241.7969"
           id="use115" />
        <use
           xlink:href="#DejaVuSans-64"
           x="1305.1758"
           id="use116" />
        <use
           xlink:href="#DejaVuSans-75"
           x="1368.6523"
           id="use117" />
        <use
           xlink:href="#DejaVuSans-63"
           x="1432.0312"
           id="use118" />
        <use
           xlink:href="#DejaVuSans-74"
           x="1487.0117"
           id="use119" />
        <use
           xlink:href="#DejaVuSans-6f"
           x="1526.2207"
           id="use120" />
        <use
           xlink:href="#DejaVuSans-72"
           x="1587.4023"
           id="use121" />
      </g>
    </g>
    <g
       id="legend_1">
      <g
         id="patch_7">
        <path
           d="M 275.06437,68.68575 H 406.32 q 2.4,0 2.4,-2.4 V 49.872 q 0,-2.4 -2.4,-2.4 H 275.06437 q -2.4,0 -2.4,2.4 v 16.41375 q 0,2.4 2.4,2.4 z"
           style="opacity:0.8;fill:#ffffff;stroke:#cccccc;stroke-linejoin:miter"
           id="path121" />
      </g>
      <g
         id="line2d_17">
        <path
           d="m 277.46438,57.190125 h 6 v 0 h 12 v 0 h 6"
           style="fill:none;stroke:#1f77b4;stroke-width:1.5;stroke-linecap:square"
           id="path122" />
      </g>
      <g
         id="text_19">
        <!-- Calibrated data -->
        <g
           transform="matrix(0.12,0,0,-0.12,311.06437,61.390125)"
           id="g136">
          <use
             xlink:href="#DejaVuSans-43"
             id="use122" />
          <use
             xlink:href="#DejaVuSans-61"
             x="69.824219"
             id="use123" />
          <use
             xlink:href="#DejaVuSans-6c"
             x="131.10352"
             id="use124" />
          <use
             xlink:href="#DejaVuSans-69"
             x="158.88672"
             id="use125" />
          <use
             xlink:href="#DejaVuSans-62"
             x="186.66992"
             id="use126" />
          <use
             xlink:href="#DejaVuSans-72"
             x="250.14648"
             id="use127" />
          <use
             xlink:href="#DejaVuSans-61"
             x="291.25977"
             id="use128" />
          <use
             xlink:href="#DejaVuSans-74"
             x="352.53906"
             id="use129" />
          <use
             xlink:href="#DejaVuSans-65"
             x="391.74805"
             id="use130" />
          <use
             xlink:href="#DejaVuSans-64"
             x="453.27148"
             id="use131" />
          <use
             xlink:href="#DejaVuSans-20"
             x="516.74805"
             id="use132" />
          <use
             xlink:href="#DejaVuSans-64"
             x="548.53516"
             id="use133" />
          <use
             xlink:href="#DejaVuSans-61"
             x="612.01172"
             id="use134" />
          <use
             xlink:href="#DejaVuSans-74"
             x="673.29102"
             id="use135" />
          <use
             xlink:href="#DejaVuSans-61"
             x="712.5"
             id="use136" />
        </g>
      </g>
    </g>
  </g>
  <path
     style="fill:none;stroke:#000000;stroke-width:0.999997;stroke-linecap:butt;stroke-linejoin:bevel;stroke-dasharray:none;stroke-opacity:1;marker-end:url(#ArrowWideRounded-0);paint-order:stroke fill markers"
     d="m 300.53575,268.5575 11.06935,18.45101"
     id="path141-4"
     sodipodi:nodetypes="cc" />
  <text
     xml:space="preserve"
     style="font-size:9.99998px;font-family:Arial;-inkscape-font-specification:Arial;fill:#000000;fill-opacity:1;stroke:none;stroke-width:0.999997;stroke-linecap:butt;stroke-linejoin:bevel;stroke-dasharray:none;stroke-opacity:1;paint-order:stroke fill markers"
     x="267.85791"
     y="265.58582"
     id="text146-9"><tspan
       sodipodi:role="line"
       id="tspan146-3"
       style="stroke-width:1"
       x="267.85791"
       y="265.58582">Compton Edge</tspan></text>
  <defs
     id="defs136">
    <clipPath
       id="p383ceadce0">
      <rect
         x="57.6"
         y="41.472"
         width="357.12"
         height="266.112"
         id="rect136" />
    </clipPath>
  </defs>
  <path
     style="fill:none;stroke:#000000;stroke-width:1;stroke-linejoin:bevel;stroke-dasharray:none;stroke-opacity:1;marker-end:url(#ArrowWideRounded);paint-order:stroke fill markers"
     d="m 334.67131,214.0451 26.7117,45.3396"
     id="path136" />
  <path
     style="fill:none;stroke:#000000;stroke-width:0.999997;stroke-linejoin:bevel;stroke-dasharray:none;stroke-opacity:1;marker-end:url(#ArrowWideRounded);paint-order:stroke fill markers"
     d="M 226.06714,98.06007 196.54369,63.967501"
     id="path138" />
  <path
     style="fill:none;stroke:#000000;stroke-width:0.999997;stroke-linejoin:bevel;stroke-dasharray:none;stroke-opacity:1;marker-end:url(#ArrowWideRounded);paint-order:stroke fill markers"
     d="m 74.517543,233.3831 2.420264,27.8331"
     id="path139"
     sodipodi:nodetypes="cc" />
  <path
     style="fill:none;stroke:#000000;stroke-width:0.999997;stroke-linejoin:bevel;stroke-dasharray:none;stroke-opacity:1;marker-end:url(#ArrowWideRounded);paint-order:stroke fill markers"
     d="m 99.757492,262.08059 3.284648,12.27423"
     id="path140" />
  <path
     style="fill:none;stroke:#000000;stroke-width:0.999997;stroke-linejoin:bevel;stroke-dasharray:none;stroke-opacity:1;marker-end:url(#ArrowWideRounded);paint-order:stroke fill markers"
     d="m 152.48479,253.9554 -8.47095,16.42325"
     id="path141" />
  <ellipse
     style="fill:none;stroke:#000000;stroke-width:0.999997;stroke-linejoin:bevel;stroke-dasharray:none;stroke-opacity:1;paint-order:stroke fill markers"
     id="path142"
     cx="123.4467"
     cy="280.05847"
     rx="16.281677"
     ry="4.9730644" />
  <text
     xml:space="preserve"
     style="font-size:9.99998px;font-family:Arial;-inkscape-font-specification:Arial;fill:#000000;stroke:none;stroke-width:0.999997;stroke-linejoin:bevel;stroke-dasharray:none;stroke-opacity:1;paint-order:stroke fill markers;fill-opacity:1"
     x="62.129242"
     y="223.85602"
     id="text142"><tspan
       sodipodi:role="line"
       id="tspan142"
       style="stroke-width:1;stroke:none;fill:#000000;fill-opacity:1"
       x="62.129242"
       y="223.85602" /></text>
  <text
     xml:space="preserve"
     style="font-size:9.99998px;font-family:Arial;-inkscape-font-specification:Arial;fill:#000000;fill-opacity:1;stroke:none;stroke-width:0.999997;stroke-linejoin:bevel;stroke-dasharray:none;stroke-opacity:1;paint-order:stroke fill markers"
     x="66.154282"
     y="231.34969"
     id="text143"><tspan
       sodipodi:role="line"
       id="tspan143"
       style="stroke-width:1"
       x="66.154282"
       y="231.34969">Lead X-rays</tspan></text>
  <text
     xml:space="preserve"
     style="font-size:9.99998px;font-family:Arial;-inkscape-font-specification:Arial;fill:#000000;fill-opacity:1;stroke:none;stroke-width:0.999997;stroke-linejoin:bevel;stroke-dasharray:none;stroke-opacity:1;paint-order:stroke fill markers"
     x="80.596596"
     y="259.14435"
     id="text144"><tspan
       sodipodi:role="line"
       id="tspan144"
       style="stroke-width:1"
       x="80.596596"
       y="259.14435">Backscattering</tspan></text>
  <text
     xml:space="preserve"
     style="font-size:9.99998px;font-family:Arial;-inkscape-font-specification:Arial;fill:#000000;fill-opacity:1;stroke:none;stroke-width:0.999997;stroke-linejoin:bevel;stroke-dasharray:none;stroke-opacity:1;paint-order:stroke fill markers"
     x="71.126701"
     y="296.88641"
     id="text145"><tspan
       sodipodi:role="line"
       id="tspan145"
       style="stroke-width:1"
       x="71.126701"
       y="296.88641">Compton Continuum</tspan></text>
  <text
     xml:space="preserve"
     style="font-size:9.99998px;font-family:Arial;-inkscape-font-specification:Arial;fill:#000000;fill-opacity:1;stroke:none;stroke-width:0.999997;stroke-linejoin:bevel;stroke-dasharray:none;stroke-opacity:1;paint-order:stroke fill markers"
     x="112.88746"
     y="247.69946"
     id="text146"><tspan
       sodipodi:role="line"
       id="tspan146"
       style="stroke-width:1"
       x="112.88746"
       y="247.69946">Compton Edge</tspan></text>
  <text
     xml:space="preserve"
     style="font-size:9.99998px;font-family:Arial;-inkscape-font-specification:Arial;fill:#000000;fill-opacity:1;stroke:none;stroke-width:0.999997;stroke-linejoin:bevel;stroke-dasharray:none;stroke-opacity:1;paint-order:stroke fill markers"
     x="203.51566"
     y="107.92834"
     id="text147"><tspan
       sodipodi:role="line"
       id="tspan147"
       style="stroke-width:1"
       x="203.51566"
       y="107.92834">Annihilation Peak</tspan></text>
  <text
     xml:space="preserve"
     style="font-size:9.99998px;font-family:Arial;-inkscape-font-specification:Arial;fill:#000000;fill-opacity:1;stroke:none;stroke-width:0.999997;stroke-linejoin:bevel;stroke-dasharray:none;stroke-opacity:1;paint-order:stroke fill markers"
     x="310.44104"
     y="210.6566"
     id="text148"><tspan
       sodipodi:role="line"
       id="tspan148"
       style="stroke-width:1"
       x="310.44104"
       y="210.6566">Photopeak</tspan></text>
</svg>
